STARTFONT 2.1
COMMENT
COMMENT Converted from OpenType font "uvn_baisau.ttf" by "otf2bdf 3.0".
COMMENT
FONT -FreeType-UVN Bai Sau-Bold-R-Normal--66-480-100-100-P-327-ISO10646-1
SIZE 48 100 100
FONTBOUNDINGBOX 93 93 -11 -18
STARTPROPERTIES 19
FOUNDRY "FreeType"
FAMILY_NAME "UVN Bai Sau"
WEIGHT_NAME "Bold"
SLANT "R"
SETWIDTH_NAME "Normal"
ADD_STYLE_NAME ""
PIXEL_SIZE 66
POINT_SIZE 480
RESOLUTION_X 100
RESOLUTION_Y 100
SPACING "P"
AVERAGE_WIDTH 327
CHARSET_REGISTRY "ISO10646"
CHARSET_ENCODING "1"
FONT_ASCENT 75
FONT_DESCENT 17
COPYRIGHT "(c) Copyright 2001 by Tom Truong. All Rights Reserved"
_OTF_FONTFILE "uvn_baisau.ttf"
_OTF_PSNAME "UVNBaiSauBold"
ENDPROPERTIES
CHARS 383
STARTCHAR 0020
ENCODING 32
SWIDTH 270 0
DWIDTH 18 0
BBX 0 0 0 0
BITMAP
ENDCHAR
STARTCHAR 0021
ENCODING 33
SWIDTH 315 0
DWIDTH 21 0
BBX 14 48 4 -1
BITMAP
7FF8
7FF8
7FF8
7FF8
7FF8
7FF8
7FF8
7FF8
7FF8
7FF8
7FF8
7FF8
7FF8
7FF8
7FF8
7FF8
7FF8
7FF8
7FF8
7FF8
7FF8
7FF8
7FF8
7FF8
7FF0
7FF0
7FF0
7FF0
7FF0
3FF0
3FF0
3FF0
0000
0000
0000
1FC0
3FF0
7FF0
7FF8
FFF8
FFFC
FFFC
FFF8
7FF8
7FF8
3FF0
1FE0
0780
ENDCHAR
STARTCHAR 0022
ENCODING 34
SWIDTH 345 0
DWIDTH 23 0
BBX 19 18 2 29
BITMAP
FF0FE0
FF0FE0
FF0FE0
FF0FE0
FF0FE0
FF0FE0
FF0FE0
FF0FE0
FF0FE0
FF0FE0
FF0FE0
FF0FE0
FF0FE0
FF0FE0
FF0FE0
FF0FE0
FF0FE0
FF0FE0
ENDCHAR
STARTCHAR 0023
ENCODING 35
SWIDTH 765 0
DWIDTH 51 0
BBX 49 48 1 0
BITMAP
000007F807F800
000007F807F800
00000FF80FF000
00000FF00FF000
00000FF00FF000
00001FF01FE000
00001FE01FE000
00001FE01FE000
00003FE03FC000
00003FC03FC000
00003FC07FC000
00007F807F8000
00007F807F8000
01FFFFFFFFFF80
01FFFFFFFFFF80
01FFFFFFFFFF80
03FFFFFFFFFF00
03FFFFFFFFFF00
03FFFFFFFFFF00
07FFFFFFFFFE00
07FFFFFFFFFE00
0003FC03FC0000
0007F807F80000
0007F807F80000
0007F807F80000
000FF00FF00000
000FF00FF00000
000FF00FF00000
3FFFFFFFFFF000
3FFFFFFFFFF000
3FFFFFFFFFF000
7FFFFFFFFFE000
7FFFFFFFFFE000
7FFFFFFFFFC000
FFFFFFFFFFC000
FFFFFFFFFFC000
00FF80FF000000
00FF00FF000000
00FF01FF000000
01FE01FE000000
01FE01FE000000
01FE03FE000000
03FC03FC000000
03FC03FC000000
07FC07FC000000
07F807F8000000
07F807F8000000
0FF80FF0000000
ENDCHAR
STARTCHAR 0024
ENCODING 36
SWIDTH 555 0
DWIDTH 37 0
BBX 26 53 7 -3
BITMAP
007F0000
007F0000
007F0000
007F0000
007F0000
007F0000
03FFFE00
0FFFFE00
1FFFFE00
3FFFFE00
7FFFFE00
7FFFFE00
FFFFFE00
FFFFFE00
FFF00000
FFE00000
FFE00000
FFE00000
FFF80000
7FFC0000
7FFF0000
3FFF8000
1FFFC000
0FFFF000
07FFF800
03FFFC00
01FFFE00
00FFFF00
003FFF00
001FFF80
000FFF80
0003FFC0
0003FFC0
0001FFC0
0003FFC0
0007FFC0
FFFFFFC0
FFFFFF80
FFFFFF80
FFFFFF00
FFFFFF00
FFFFFE00
FFFFFC00
FFFFF000
FFFFC000
007F0000
007F0000
007F0000
007F0000
007F0000
007F0000
007F0000
007F0000
ENDCHAR
STARTCHAR 0025
ENCODING 37
SWIDTH 870 0
DWIDTH 58 0
BBX 54 47 2 0
BITMAP
001C000003F800
01FF800007F800
03FFE00007F000
0FFFF0000FE000
1FFFF8000FE000
3FFFFC001FC000
3FFFFE003F8000
7FFFFE003F8000
7FC1FF007F0000
7F80FF00FF0000
FF007F00FE0000
FF007F01FC0000
FF007F01FC0000
FF007F03F80000
FF007F07F00000
7F80FF07F00000
7FC1FF0FE00000
7FFFFE1FE00000
3FFFFE1FC00000
1FFFFC3F800000
1FFFF83F800000
0FFFF07F000000
03FFE0FE000000
01FF80FE01F800
000001FC0FFF00
000003FC1FFF80
000003F83FFFC0
000007F07FFFE0
000007F0FFFFF0
00000FE1FFFFF8
00001FC1FF9FF8
00001FC3FE07FC
00003F83FC03FC
00007F83FC01FC
00007F03F801FC
0000FE03F801FC
0000FE03F801FC
0001FC03FC03FC
0003F803FE07FC
0003F801FF0FF8
0007F001FFFFF8
000FF000FFFFF0
000FE000FFFFF0
001FC0007FFFE0
001FC0003FFFC0
003F80000FFF00
007F000003FC00
ENDCHAR
STARTCHAR 0026
ENCODING 38
SWIDTH 750 0
DWIDTH 50 0
BBX 47 48 3 -1
BITMAP
001FFFFF8000
00FFFFFF8000
01FFFFFF8000
03FFFFFF8000
07FFFFFF8000
07FFFFFF8000
0FFFFFFF8000
0FFFFFFF8000
07FFFFFF8000
07FFFFFF8000
07FFE0000000
03FFE0000000
01FFF0000200
00FFF8000F00
00FFFC001F80
01FFFE003F80
07FFFE00FFC0
0FFFFF01FFC0
0FFFFF83FFE0
1FFFFFC1FFE0
3FFFFFE0FFF0
3FFFFFE0FFF0
7FFFFFF07FF0
7FFCFFF87FF0
7FF8FFFC7FF0
FFF87FFE7FF0
FFF03FFF7FF0
FFF01FFF7FF0
FFF00FFFFFF0
FFF00FFFFFF0
FFF007FFFFF0
FFF003FFFFE0
FFF801FFFFE0
7FF801FFFFE0
7FFC00FFFFC0
7FFE007FFFC0
3FFF807FFF80
3FFFFFFFFF00
1FFFFFFFFF80
1FFFFFFFFFC0
0FFFFFFFFFC0
07FFFFFFFFE0
03FFFFFFFFF0
01FFFFFFFFF8
007FFFFFFFFC
001FFFFE7FFE
0007FFF87FFE
00007F000000
ENDCHAR
STARTCHAR 0027
ENCODING 39
SWIDTH 180 0
DWIDTH 12 0
BBX 8 18 2 29
BITMAP
FF
FF
FF
FF
FF
FF
FF
FF
FF
FF
FF
FF
FF
FF
FF
FF
FF
FF
ENDCHAR
STARTCHAR 0028
ENCODING 40
SWIDTH 390 0
DWIDTH 26 0
BBX 20 62 5 -15
BITMAP
000600
000F00
001F80
003FC0
007FE0
007FE0
00FFC0
01FF80
03FF00
03FF00
07FE00
07FC00
0FF800
0FF800
1FF000
1FF000
3FE000
3FE000
3FC000
7FC000
7FC000
7F8000
7F8000
7F8000
FF8000
FF8000
FF0000
FF0000
FF0000
FF0000
FF0000
FF0000
FF0000
FF0000
FF0000
FF8000
FF8000
FF8000
7F8000
7F8000
7FC000
7FC000
7FC000
3FE000
3FE000
3FF000
1FF000
1FF800
0FF800
0FFC00
07FE00
07FE00
03FF00
01FF80
01FFC0
00FFE0
007FF0
003FE0
003FC0
001F80
000F00
000700
ENDCHAR
STARTCHAR 0029
ENCODING 41
SWIDTH 390 0
DWIDTH 26 0
BBX 19 62 2 -15
BITMAP
0C0000
1E0000
3F0000
7F8000
FFC000
FFE000
7FE000
7FF000
3FF800
1FF800
0FFC00
07FE00
07FE00
03FF00
01FF00
01FF00
00FF80
00FF80
007FC0
007FC0
007FC0
003FC0
003FE0
003FE0
003FE0
001FE0
001FE0
001FE0
001FE0
001FE0
001FE0
001FE0
001FE0
001FE0
001FE0
001FE0
001FE0
001FE0
001FE0
003FE0
003FC0
003FC0
007FC0
007FC0
007F80
00FF80
00FF80
01FF00
01FF00
03FE00
07FE00
07FC00
0FFC00
1FF800
3FF000
7FF000
FFE000
FFC000
7F8000
3F0000
1E0000
0C0000
ENDCHAR
STARTCHAR 002A
ENCODING 42
SWIDTH 480 0
DWIDTH 32 0
BBX 25 24 4 23
BITMAP
00FF8000
007F0000
087F0800
087F1800
1C7E3C00
3E3E7C00
3F3EFE00
7FBCFE00
7FDDFF00
FFFFFF80
1FFFF800
00FF8000
01FFC000
1FFFFC00
FFFFFF80
7FDDFF00
7FBCFE00
3F3E7E00
1E3E3C00
1C7E1C00
087F0800
007F0000
00FF0000
00FF8000
ENDCHAR
STARTCHAR 002B
ENCODING 43
SWIDTH 825 0
DWIDTH 55 0
BBX 39 40 8 0
BITMAP
0000FF0000
0000FF0000
0000FF0000
0000FF0000
0000FF0000
0000FF0000
0000FF0000
0000FF0000
0000FF0000
0000FF0000
0000FF0000
0000FF0000
0000FF0000
0000FF0000
0000FF0000
0000FF0000
FFFFFFFFFE
FFFFFFFFFE
FFFFFFFFFE
FFFFFFFFFE
FFFFFFFFFE
FFFFFFFFFE
FFFFFFFFFE
FFFFFFFFFE
0000FF0000
0000FF0000
0000FF0000
0000FF0000
0000FF0000
0000FF0000
0000FF0000
0000FF0000
0000FF0000
0000FF0000
0000FF0000
0000FF0000
0000FF0000
0000FF0000
0000FF0000
0000FF0000
ENDCHAR
STARTCHAR 002C
ENCODING 44
SWIDTH 270 0
DWIDTH 18 0
BBX 15 20 1 -10
BITMAP
0FFE
1FFE
1FFC
1FFC
1FF8
1FF8
1FF8
3FF0
3FF0
3FF0
3FE0
3FE0
7FE0
7FC0
7FC0
7FC0
7F80
7F80
FF80
FF00
ENDCHAR
STARTCHAR 002D
ENCODING 45
SWIDTH 330 0
DWIDTH 22 0
BBX 18 9 2 12
BITMAP
FFFFC0
FFFFC0
FFFFC0
FFFFC0
FFFFC0
FFFFC0
FFFFC0
FFFFC0
FFFFC0
ENDCHAR
STARTCHAR 002E
ENCODING 46
SWIDTH 270 0
DWIDTH 18 0
BBX 13 13 3 -1
BITMAP
1FC0
3FE0
7FF0
FFF8
FFF8
FFF8
FFF8
FFF8
FFF8
7FF0
7FF0
3FC0
0F00
ENDCHAR
STARTCHAR 002F
ENCODING 47
SWIDTH 270 0
DWIDTH 18 0
BBX 22 53 -2 -6
BITMAP
0000FC
0000FC
0000FC
0001F8
0001F8
0001F8
0003F0
0003F0
0003F0
0003E0
0007E0
0007E0
0007E0
000FC0
000FC0
000FC0
001F80
001F80
001F80
003F00
003F00
003F00
007E00
007E00
007E00
00FC00
00FC00
00FC00
01F800
01F800
01F800
01F800
03F000
03F000
03F000
07E000
07E000
07E000
0FC000
0FC000
0FC000
1F8000
1F8000
1F8000
3F0000
3F0000
3F0000
7E0000
7E0000
7E0000
FC0000
FC0000
FC0000
ENDCHAR
STARTCHAR 0030
ENCODING 48
SWIDTH 555 0
DWIDTH 37 0
BBX 34 48 2 -1
BITMAP
001FFE0000
00FFFF8000
01FFFFE000
07FFFFF000
0FFFFFF800
1FFFFFFC00
1FFFFFFE00
3FFFFFFF00
3FFFFFFF00
7FFFFFFF80
7FFC0FFF80
FFF807FF80
FFF003FF80
FFF003FF80
FFE003FFC0
FFE003FFC0
FFE003FFC0
FFE003FFC0
FFE003FFC0
FFE003FFC0
FFE003FFC0
FFE003FFC0
FFE003FFC0
FFE003FFC0
FFE003FFC0
FFE003FFC0
FFE003FFC0
FFE003FFC0
FFE003FFC0
FFE003FFC0
FFE003FFC0
FFE003FFC0
FFE003FFC0
FFF003FFC0
FFF003FF80
FFF807FF80
7FFC0FFF80
7FFFFFFF80
7FFFFFFF00
3FFFFFFF00
3FFFFFFE00
1FFFFFFC00
0FFFFFFC00
07FFFFF800
03FFFFE000
00FFFFC000
003FFF0000
0007F80000
ENDCHAR
STARTCHAR 0031
ENCODING 49
SWIDTH 555 0
DWIDTH 37 0
BBX 18 47 9 0
BITMAP
FFFFC0
FFFFC0
FFFFC0
FFFFC0
FFFFC0
FFFFC0
FFFFC0
FFFFC0
FFFFC0
FFFFC0
FFFFC0
01FFC0
01FFC0
01FFC0
01FFC0
01FFC0
01FFC0
01FFC0
01FFC0
01FFC0
01FFC0
01FFC0
01FFC0
01FFC0
01FFC0
01FFC0
01FFC0
01FFC0
01FFC0
01FFC0
01FFC0
01FFC0
01FFC0
01FFC0
01FFC0
01FFC0
01FFC0
01FFC0
01FFC0
01FFC0
01FFC0
01FFC0
01FFC0
01FFC0
01FFC0
01FFC0
01FFC0
ENDCHAR
STARTCHAR 0032
ENCODING 50
SWIDTH 555 0
DWIDTH 37 0
BBX 32 47 3 0
BITMAP
003FF800
00FFFF00
03FFFF80
07FFFFE0
0FFFFFE0
1FFFFFF0
3FFFFFF8
3FFFFFF8
7FFFFFFC
7FFFFFFC
7FF83FFC
FFF01FFE
FFE01FFE
FFE00FFE
FFE00FFE
FFE01FFE
FFF01FFE
7FF83FFC
7FFC7FFC
7FF8FFF8
3FF0FFF8
3FE1FFF0
1FC3FFF0
0F87FFE0
0F0FFFC0
021FFF80
003FFF80
007FFF00
00FFFE00
01FFFC00
03FFF800
07FFF000
0FFFE000
1FFFC000
3FFF8000
3FFE0000
7FFFFFFF
7FFFFFFF
FFFFFFFF
FFFFFFFF
FFFFFFFF
FFFFFFFF
FFFFFFFF
FFFFFFFF
7FFFFFFF
3FFFFFFF
1FFFFFFF
ENDCHAR
STARTCHAR 0033
ENCODING 51
SWIDTH 555 0
DWIDTH 37 0
BBX 32 47 3 0
BITMAP
7FFFFC00
7FFFFF80
7FFFFFE0
7FFFFFF0
7FFFFFF8
7FFFFFF8
7FFFFFFC
7FFFFFFC
7FFFFFFC
7FFFFFFC
7FFFFFF8
0000FFF8
0001FFF0
0003FFE0
0007FFC0
000FFF80
001FFF00
003FFE00
007FFC00
00FFF800
01FFFF80
01FFFFE0
01FFFFF0
01FFFFF8
01FFFFFC
01FFFFFC
01FFFFFE
00003FFE
00001FFE
00000FFE
000007FF
000007FF
000007FF
00000FFF
00000FFE
00003FFE
FFFFFFFE
FFFFFFFE
FFFFFFFE
FFFFFFFC
FFFFFFF8
FFFFFFF8
FFFFFFF0
FFFFFFE0
FFFFFFC0
FFFFFF00
FFFFF800
ENDCHAR
STARTCHAR 0034
ENCODING 52
SWIDTH 555 0
DWIDTH 37 0
BBX 34 47 2 1
BITMAP
0001FFC800
0003FF8800
0007FF1800
0007FF3800
000FFE3800
000FFE7800
001FFC7800
001FFCF800
003FF8F800
003FF1F800
007FF3F800
00FFE3F800
00FFE7F800
01FFC7F800
01FFCFF800
03FF8FF800
03FF1FF800
07FF1FF800
07FE1FF800
0FFE1FF800
1FFC1FF800
1FFC1FF800
3FF81FF800
3FF01FF800
7FF01FF800
7FE01FF800
FFE01FF800
FFFFFFFFC0
FFFFFFFFC0
FFFFFFFFC0
FFFFFFFFC0
FFFFFFFFC0
FFFFFFFFC0
FFFFFFFFC0
7FFFFFFFC0
3FFFFFFFC0
1FFFFFFFC0
00FFFFFFC0
00001FF800
00001FF800
00001FF800
00001FF800
00001FF800
00001FF800
00001FF800
00001FF800
00001FF800
ENDCHAR
STARTCHAR 0035
ENCODING 53
SWIDTH 555 0
DWIDTH 37 0
BBX 30 47 4 0
BITMAP
7FFFFFE0
7FFFFFE0
7FFFFFE0
7FFFFFE0
7FFFFFE0
7FFFFFE0
7FFFFFE0
7FFFFFE0
7FFFFFE0
7FFFFFE0
7FF00000
7FF00000
7FF00000
7FF00000
7FF00000
7FF00000
7FFFFC00
7FFFFF00
7FFFFF80
7FFFFFC0
7FFFFFE0
7FFFFFF0
7FFFFFF8
7FFFFFF8
7FFFFFF8
7FFFFFFC
00007FFC
00003FFC
00001FFC
00001FFC
00001FFC
00001FFC
00001FFC
00001FFC
00003FFC
00007FFC
FFFFFFFC
FFFFFFFC
FFFFFFF8
FFFFFFF8
FFFFFFF0
FFFFFFE0
FFFFFFE0
FFFFFFC0
FFFFFF00
FFFFFC00
FFFFE000
ENDCHAR
STARTCHAR 0036
ENCODING 54
SWIDTH 555 0
DWIDTH 37 0
BBX 34 48 2 -1
BITMAP
0001FFE000
0003FFE000
0007FFC000
0007FF8000
000FFF8000
000FFF0000
001FFF0000
001FFE0000
003FFE0000
007FFC0000
007FF80000
00FFF80000
00FFF00000
01FFF00000
01FFE00000
03FFE00000
03FFC78000
07FFCFE000
0FFF8FF800
0FFF1FFC00
1FFF1FFE00
1FFE3FFF00
3FFE3FFF00
3FFC7FFF80
3FFC7FFF80
7FF81FFF80
7FF807FFC0
7FF003FFC0
7FF003FFC0
FFE003FFC0
FFE003FFC0
FFE003FFC0
FFE003FFC0
FFF003FFC0
FFF007FF80
7FF80FFF80
7FFE3FFF80
7FFFFFFF80
3FFFFFFF00
3FFFFFFF00
1FFFFFFE00
1FFFFFFC00
0FFFFFF800
07FFFFF000
03FFFFE000
00FFFFC000
003FFF0000
0007F00000
ENDCHAR
STARTCHAR 0037
ENCODING 55
SWIDTH 555 0
DWIDTH 37 0
BBX 31 47 3 0
BITMAP
FFFFFE00
FFFFFFF0
FFFFFFF8
FFFFFFFC
FFFFFFFC
FFFFFFFE
FFFFFFFE
FFFFFFFE
FFFFFFFE
FFFFFFFE
FFFFFFFE
00001FFC
00001FFC
00003FFC
00003FF8
00003FF8
00007FF8
00007FF8
00007FF0
0000FFF0
0000FFF0
0FFFFFFC
0FFFFFFC
0FFFFFFC
0FFFFFFC
0FFFFFFC
0FFFFFFC
0FFFFFFC
0007FF80
0007FF80
000FFF00
000FFF00
000FFF00
001FFF00
001FFE00
001FFE00
003FFE00
003FFC00
003FFC00
007FFC00
007FF800
007FF800
00FFF800
00FFF000
00FFF000
01FFF000
01FFE000
ENDCHAR
STARTCHAR 0038
ENCODING 56
SWIDTH 555 0
DWIDTH 37 0
BBX 34 48 2 -1
BITMAP
001FFE0000
00FFFF8000
01FFFFE000
03FFFFF000
07FFFFF800
0FFFFFFC00
1FFFFFFE00
1FFFFFFE00
3FFFFFFE00
3FFC0FFF00
3FF807FF00
3FF003FF00
3FF003FF00
3FF003FF00
3FF003FF00
3FF007FE00
1FF80FFE00
1FFE1FFC00
0FFFFFFC00
07FFFFF800
03FFFFF000
01FFFFE000
07FFFFF000
0FFFFFFC00
1FFFFFFE00
3FFFFFFF00
7FFC0FFF00
7FF807FF80
7FF003FF80
FFE003FF80
FFE001FFC0
FFE001FFC0
FFE001FFC0
FFE001FFC0
FFE003FFC0
FFF003FFC0
FFF80FFF80
7FFF7FFF80
7FFFFFFF80
7FFFFFFF00
3FFFFFFF00
1FFFFFFE00
1FFFFFFC00
0FFFFFF800
03FFFFF000
01FFFFC000
007FFF0000
0007F00000
ENDCHAR
STARTCHAR 0039
ENCODING 57
SWIDTH 555 0
DWIDTH 37 0
BBX 34 47 2 0
BITMAP
001FFE0000
007FFF8000
01FFFFE000
03FFFFF000
07FFFFF800
0FFFFFFC00
1FFFFFFE00
3FFFFFFE00
3FFFFFFF00
7FFFFFFF00
7FFFFFFF80
7FFC0FFF80
FFF807FF80
FFF003FF80
FFF003FFC0
FFE003FFC0
FFE001FFC0
FFE003FF80
FFF003FF80
FFF003FF80
FFF807FF80
FFFC07FF00
7FFF8FFF00
7FFF8FFF00
7FFF1FFE00
3FFF1FFE00
1FFE3FFC00
1FFE7FFC00
07FC7FF800
03F8FFF800
00F8FFF000
0011FFF000
0001FFE000
0003FFE000
0003FFC000
0007FFC000
000FFF8000
000FFF0000
001FFF0000
001FFE0000
003FFE0000
003FFC0000
007FFC0000
00FFF80000
00FFF00000
01FFF00000
01FFE00000
ENDCHAR
STARTCHAR 003A
ENCODING 58
SWIDTH 300 0
DWIDTH 20 0
BBX 13 33 4 -1
BITMAP
1FC0
3FE0
7FF0
FFF0
FFF8
FFF8
FFF8
FFF8
FFF8
FFF0
7FF0
3FE0
0F80
0000
0000
0000
0000
0000
0000
0000
1FC0
3FE0
7FF0
FFF0
FFF8
FFF8
FFF8
FFF8
FFF8
FFF0
7FE0
3FC0
0F00
ENDCHAR
STARTCHAR 003B
ENCODING 59
SWIDTH 300 0
DWIDTH 20 0
BBX 17 42 1 -10
BITMAP
01F800
07FE00
0FFE00
0FFF00
1FFF00
1FFF00
1FFF80
1FFF00
0FFF00
0FFF00
07FE00
03FC00
01F000
000000
000000
000000
000000
000000
000000
000000
000000
000000
0FFE00
0FFE00
0FFE00
1FFC00
1FFC00
1FFC00
1FF800
1FF800
1FF000
3FF000
3FF000
3FE000
3FE000
3FE000
7FC000
7FC000
7FC000
7F8000
7F8000
FF8000
ENDCHAR
STARTCHAR 003C
ENCODING 60
SWIDTH 825 0
DWIDTH 55 0
BBX 38 39 9 1
BITMAP
000000001C
000000007C
00000001FC
0000000FFC
0000003FFC
000001FFFC
000007FFFC
00001FFFFC
0000FFFFF0
0003FFFFC0
001FFFFE00
007FFFF800
03FFFFC000
0FFFFF0000
3FFFF80000
FFFFE00000
FFFF800000
FFFC000000
FFF0000000
FFE0000000
FFFC000000
FFFF000000
FFFFC00000
7FFFF80000
1FFFFE0000
03FFFFC000
00FFFFF000
001FFFFE00
0007FFFF80
0000FFFFF0
00003FFFFC
00000FFFFC
000001FFFC
0000007FFC
0000000FFC
00000003FC
00000000FC
000000001C
0000000004
ENDCHAR
STARTCHAR 003D
ENCODING 61
SWIDTH 825 0
DWIDTH 55 0
BBX 39 22 8 9
BITMAP
FFFFFFFFFE
FFFFFFFFFE
FFFFFFFFFE
FFFFFFFFFE
FFFFFFFFFE
FFFFFFFFFE
FFFFFFFFFE
FFFFFFFFFE
0000000000
0000000000
0000000000
0000000000
0000000000
0000000000
0000000000
FFFFFFFFFE
FFFFFFFFFE
FFFFFFFFFE
FFFFFFFFFE
FFFFFFFFFE
FFFFFFFFFE
FFFFFFFFFE
ENDCHAR
STARTCHAR 003E
ENCODING 62
SWIDTH 825 0
DWIDTH 55 0
BBX 38 38 9 1
BITMAP
C000000000
F800000000
FE00000000
FF80000000
FFF0000000
FFFC000000
FFFF800000
FFFFE00000
7FFFF80000
0FFFFF0000
03FFFFC000
007FFFF800
001FFFFE00
0003FFFFC0
0000FFFFF0
00003FFFFC
000007FFFC
000001FFFC
0000003FFC
0000003FFC
000000FFFC
000003FFFC
00001FFFFC
00007FFFF8
0003FFFFC0
000FFFFF00
007FFFF800
01FFFFE000
0FFFFF0000
3FFFFC0000
FFFFF00000
FFFF800000
FFFE000000
FFF0000000
FFC0000000
FE00000000
F800000000
E000000000
ENDCHAR
STARTCHAR 003F
ENCODING 63
SWIDTH 510 0
DWIDTH 34 0
BBX 31 48 1 -1
BITMAP
003FFC00
01FFFF00
03FFFFC0
07FFFFE0
0FFFFFF0
1FFFFFF8
3FFFFFF8
3FFFFFFC
7FFFFFFC
7FFFFFFE
7FF83FFE
FFF01FFE
1FE00FFE
01E00FFE
00000FFE
00000FFE
00001FFE
00003FFE
0007FFFE
003FFFFE
003FFFFC
003FFFFC
003FFFF8
003FFFF8
003FFFF0
003FFFC0
003FFF80
003FFC00
003FF800
003FF800
003FF800
003FF800
00000000
00000000
00000000
000FE000
001FF000
003FF800
007FFC00
007FFC00
007FFC00
007FFC00
007FFC00
007FFC00
003FF800
003FF800
001FF000
0003C000
ENDCHAR
STARTCHAR 0040
ENCODING 64
SWIDTH 990 0
DWIDTH 66 0
BBX 61 59 3 -10
BITMAP
0000000060000000
000000FFFFC00000
000007FFFFF80000
00003FFFFFFF0000
0000FFFFFFFFC000
0003FFFFFFFFE000
0007FFFFFFFFF800
000FFF80007FFC00
003FFC00000FFE00
007FF0000003FF00
00FFC0000001FF80
01FF800000007F80
01FE000000003FC0
03FC000000001FE0
07F8000000001FE0
0FF0000000000FF0
0FF0003FC00007F0
1FE000FFF1FC07F0
1FC003FFF9FC07F0
3FC007FFFFFC03F8
3F800FFFFFF803F8
7F801FF8FFF803F8
7F003FE03FF803F8
7F007FC01FF803F8
7E007F800FF003F8
FE00FF800FF003F8
FE00FF000FF003F8
FE01FF000FF003F8
FE01FE001FE003F8
FC01FE001FE003F0
FC01FE001FE007F0
FC01FE001FE007F0
FC03FC003FC007F0
FC03FC003FC00FE0
FE03FC003FC01FE0
FE03FC007FC01FC0
FE01FC007F803FC0
FE01FE00FF807F80
FE01FE01FF80FF00
7F01FF03FFC7FE00
7F00FFFFFFFFFC00
7F00FFFFDFFFF800
3F807FFF9FFFF000
3F803FFF0FFFE000
3FC01FFC07FF0000
1FE000C000F00000
0FF0000000000000
0FF8000000000000
07FC00000000E000
03FF00000001F000
01FF80000007F000
00FFF000003FF800
007FFE0001FFF000
003FFFFFFFFFE000
000FFFFFFFFF8000
0003FFFFFFFE0000
0000FFFFFFF80000
00003FFFFFC00000
000003FFFE000000
ENDCHAR
STARTCHAR 0041
ENCODING 65
SWIDTH 615 0
DWIDTH 41 0
BBX 36 47 3 0
BITMAP
000FFF0000
007FFFC000
00FFFFF000
03FFFFF800
07FFFFFC00
0FFFFFFE00
0FFFFFFF00
1FFFFFFF80
3FFFFFFF80
3FFFFFFFC0
3FFFFFFFC0
7FFE07FFC0
7FFC03FFE0
7FF801FFE0
FFF001FFE0
FFF000FFE0
FFF000FFE0
FFF000FFF0
FFF000FFF0
FFF3FFFFF0
FFF3FFFFF0
FFF3FFFFF0
FFF3FFFFF0
FFF3FFFFF0
FFF3FFFFF0
FFF3FFFFF0
FFF3FFFFF0
FFF3FFFFF0
FFF3FFFFF0
FFF3FFFFF0
FFF000FFF0
FFF000FFF0
FFF000FFF0
FFF000FFF0
FFF000FFF0
FFF000FFF0
FFF000FFF0
FFF000FFF0
FFF000FFF0
FFF000FFF0
FFF000FFF0
FFF000FFF0
FFF000FFF0
FFF000FFF0
FFF000FFF0
FFF000FFF0
FFF000FFF0
ENDCHAR
STARTCHAR 0042
ENCODING 66
SWIDTH 585 0
DWIDTH 39 0
BBX 35 47 3 0
BITMAP
001FFE0000
00FFFF8000
01FFFFE000
07FFFFF000
0FFFFFF800
1FFFFFFC00
1FFFFFFE00
3FFFFFFE00
3FFFFFFF00
7FFFFFFF00
7FFC1FFF00
7FF80FFF00
FFF007FF00
FFF007FF00
FFF007FF00
FFF007FF00
FFF00FFF00
FFF01FFF00
FFF1FFFE00
FFF3FFFC00
FFF3FFF800
FFF3FFF000
FFF3FFF000
FFF3FFFC00
FFF3FFFE00
FFF3FFFF00
FFF3FFFF80
FFF3FFFFC0
FFF00FFFC0
FFF003FFC0
FFF001FFE0
FFF001FFE0
FFF001FFE0
FFF001FFE0
FFF003FFE0
FFF007FFE0
FFF03FFFE0
FFF3FFFFC0
FFF3FFFFC0
FFF3FFFFC0
FFF3FFFF80
FFF3FFFF00
FFF3FFFE00
FFF3FFFC00
FFF3FFF800
FFF3FFE000
FFF3FF0000
ENDCHAR
STARTCHAR 0043
ENCODING 67
SWIDTH 495 0
DWIDTH 33 0
BBX 30 47 2 0
BITMAP
0000005C
00003FFC
0003FFFC
000FFFFC
003FFFFC
007FFFFC
00FFFFFC
03FFFFFC
07FFFFFC
07FFFFFC
0FFFFFFC
1FFFFF00
1FFFE000
3FFF8000
3FFF0000
7FFE0000
7FFC0000
7FF80000
FFF80000
FFF00000
FFF00000
FFF00000
FFF00000
FFF00000
FFF00000
FFF00000
FFF00000
FFF00000
FFF80000
FFF80000
7FFC0000
7FFC0000
7FFE0000
3FFF8000
3FFFC000
1FFFFC00
0FFFFFFC
0FFFFFFC
07FFFFFC
03FFFFFC
01FFFFFC
00FFFFFC
003FFFFC
001FFFFC
0007FFFC
0000FFFC
000007FC
ENDCHAR
STARTCHAR 0044
ENCODING 68
SWIDTH 630 0
DWIDTH 42 0
BBX 38 47 3 0
BITMAP
FFF8000000
FFFFF80000
FFFFFF0000
FFFFFFC000
FFFFFFF000
FFFFFFF800
FFFFFFFC00
FFFFFFFE00
FFFFFFFF00
FFFFFFFF80
FFFFFFFFC0
FFF1FFFFC0
FFF01FFFE0
FFF007FFF0
FFF003FFF0
FFF001FFF8
FFF000FFF8
FFF0007FF8
FFF0007FF8
FFF0007FFC
FFF0003FFC
FFF0003FFC
FFF0003FFC
FFF0003FFC
FFF0003FFC
FFF0003FFC
FFF0003FFC
FFF0003FFC
FFF0007FFC
FFF0007FF8
FFF000FFF8
FFF001FFF8
FFF003FFF0
FFF007FFF0
FFF01FFFE0
FFF0FFFFE0
FFF3FFFFC0
FFF3FFFF80
FFF3FFFF80
FFF3FFFF00
FFF3FFFE00
FFF3FFFC00
FFF3FFF000
FFF3FFE000
FFF3FF8000
FFF3FE0000
FFF3C00000
ENDCHAR
STARTCHAR 0045
ENCODING 69
SWIDTH 510 0
DWIDTH 34 0
BBX 30 47 2 0
BITMAP
0000005C
00003FFC
0003FFFC
000FFFFC
003FFFFC
007FFFFC
00FFFFFC
03FFFFFC
07FFFFFC
07FFFFFC
0FFFFFFC
1FFFFC00
1FFFE000
3FFF8000
3FFE0000
7FFC0000
7FFC0000
7FF80000
FFFFFFFC
FFFFFFFC
FFFFFFFC
FFFFFFFC
FFFFFFFC
FFFFFFFC
FFFFFFFC
FFFFFFFC
FFFFFFFC
FFFFFFFC
FFFFFFFC
FFF80000
7FF80000
7FFC0000
7FFE0000
3FFF0000
3FFFC000
1FFFF000
0FFFFFFC
0FFFFFFC
07FFFFFC
03FFFFFC
01FFFFFC
00FFFFFC
003FFFFC
001FFFFC
0007FFFC
0000FFFC
000007FC
ENDCHAR
STARTCHAR 0046
ENCODING 70
SWIDTH 450 0
DWIDTH 30 0
BBX 25 47 3 0
BITMAP
0003FF80
007FFF80
01FFFF80
07FFFF80
0FFFFF80
1FFFFF80
3FFFFF80
3FFFFF80
7FFFFF80
7FFFFF80
7FFFFF80
7FFE0000
FFF80000
FFF00000
FFF00000
FFF00000
FFF00000
FFF00000
FFF00000
FFFFFF80
FFFFFF80
FFFFFF80
FFFFFF80
FFFFFF80
FFFFFF80
FFFFFF80
FFFFFF80
FFFFFF80
FFFFFF80
FFFFFF80
FFF00000
FFF00000
FFF00000
FFF00000
FFF00000
FFF00000
FFF00000
FFF00000
FFF00000
FFF00000
FFF00000
FFF00000
FFF00000
FFF00000
FFF00000
FFF00000
FFF00000
ENDCHAR
STARTCHAR 0047
ENCODING 71
SWIDTH 765 0
DWIDTH 51 0
BBX 48 48 2 -1
BITMAP
00007FFE0000
0001FFFFC000
000FFFFFF000
001FFFFFFC00
007FFFFFFF00
00FFFFFFFF80
01FFFFFFFFC0
03FFFFFFFFC0
07FFFFFFFF80
0FFFFFFFFF00
0FFFFFFFFE00
1FFFF007FC00
1FFFC001F800
3FFF00007000
3FFE00002000
7FFE00000000
7FFC00000000
7FF800000000
FFF801FFFFFF
FFF001FFFFFF
FFF001FFFFFF
FFF001FFFFFF
FFF001FFFFFF
FFF001FFFFFE
FFF001FFFFFE
FFF001FFFFFE
FFF001FFFFFE
FFF001FFFFFE
FFF800001FFE
7FF800003FFE
7FFC00003FFC
7FFC00007FFC
7FFE0000FFFC
3FFF0001FFF8
3FFFC003FFF8
1FFFF00FFFF0
1FFFFFFFFFF0
0FFFFFFFFFE0
07FFFFFFFFE0
03FFFFFFFFC0
01FFFFFFFF80
00FFFFFFFF00
007FFFFFFE00
003FFFFFFC00
000FFFFFF000
0007FFFFC000
0000FFFF0000
000007F00000
ENDCHAR
STARTCHAR 0048
ENCODING 72
SWIDTH 630 0
DWIDTH 42 0
BBX 36 47 3 0
BITMAP
FFF000FFF0
FFF000FFF0
FFF000FFF0
FFF000FFF0
FFF000FFF0
FFF000FFF0
FFF000FFF0
FFF000FFF0
FFF000FFF0
FFF000FFF0
FFF000FFF0
FFF000FFF0
FFF000FFF0
FFF000FFF0
FFF000FFF0
FFF000FFF0
FFF000FFF0
FFFFFFFFF0
FFFFFFFFF0
FFFFFFFFF0
FFFFFFFFF0
FFFFFFFFF0
FFFFFFFFF0
FFFFFFFFF0
FFFFFFFFF0
FFFFFFFFF0
FFFFFFFFF0
FFFFFFFFF0
FFF000FFF0
FFF000FFF0
FFF000FFF0
FFF000FFF0
FFF000FFF0
FFF000FFF0
FFF000FFF0
FFF000FFF0
FFF000FFF0
FFF000FFF0
FFF000FFF0
FFF000FFF0
FFF000FFF0
FFF000FFF0
FFF000FFF0
FFF000FFF0
FFF000FFF0
FFF000FFF0
FFF000FFF0
ENDCHAR
STARTCHAR 0049
ENCODING 73
SWIDTH 270 0
DWIDTH 18 0
BBX 11 47 4 0
BITMAP
FFE0
FFE0
FFE0
FFE0
FFE0
FFE0
FFE0
FFE0
FFE0
FFE0
FFE0
FFE0
FFE0
FFE0
FFE0
FFE0
FFE0
FFE0
FFE0
FFE0
FFE0
FFE0
FFE0
FFE0
FFE0
FFE0
FFE0
FFE0
FFE0
FFE0
FFE0
FFE0
FFE0
FFE0
FFE0
FFE0
FFE0
FFE0
FFE0
FFE0
FFE0
FFE0
FFE0
FFE0
FFE0
FFE0
FFE0
ENDCHAR
STARTCHAR 004A
ENCODING 74
SWIDTH 420 0
DWIDTH 28 0
BBX 25 47 0 0
BITMAP
0007FF80
0007FF80
0007FF80
0007FF80
0007FF80
0007FF80
0007FF80
0007FF80
0007FF80
0007FF80
0007FF80
0007FF80
0007FF80
0007FF80
0007FF80
0007FF80
0007FF80
0007FF80
0007FF80
0007FF80
0007FF80
0007FF80
0007FF80
0007FF80
0007FF80
0007FF80
0007FF80
0007FF80
0007FF80
0007FF80
0007FF80
0007FF80
0007FF80
0007FF80
000FFF80
001FFF80
FFFFFF00
FFFFFF00
FFFFFF00
FFFFFE00
FFFFFE00
FFFFFC00
FFFFF800
FFFFF000
FFFFE000
FFFF8000
FFFC0000
ENDCHAR
STARTCHAR 004B
ENCODING 75
SWIDTH 600 0
DWIDTH 40 0
BBX 37 47 3 0
BITMAP
FFF000FFF8
FFF000FFF8
FFF001FFF0
FFF001FFF0
FFF003FFE0
FFF003FFE0
FFF003FFC0
FFF007FFC0
FFF007FF80
FFF00FFF80
FFF00FFF00
FFF01FFF00
FFF01FFE00
FFF03FFE00
FFF07FFC00
FFF0FFFC00
FFF3FFF800
FFFFFFF800
FFFFFFF000
FFFFFFC000
FFFFFFF000
FFFFFFFC00
FFFFFFFE00
FFFFFFFF00
FFFFFFFF80
FFFFFFFF80
FFFFFFFFC0
FFFFFFFFC0
FFF00FFFC0
FFF003FFC0
FFF003FFC0
FFF003FFC0
FFF001FFC0
FFF001FFC0
FFF001FFC0
FFF001FFC0
FFF001FFC0
FFF001FFC0
FFF001FFC0
FFF001FFC0
FFF001FFC0
FFF001FFC0
FFF001FFC0
FFF001FFC0
FFF001FFC0
FFF001FFC0
FFF001FFC0
ENDCHAR
STARTCHAR 004C
ENCODING 76
SWIDTH 420 0
DWIDTH 28 0
BBX 26 47 3 0
BITMAP
FFF00000
FFF00000
FFF00000
FFF00000
FFF00000
FFF00000
FFF00000
FFF00000
FFF00000
FFF00000
FFF00000
FFF00000
FFF00000
FFF00000
FFF00000
FFF00000
FFF00000
FFF00000
FFF00000
FFF00000
FFF00000
FFF00000
FFF00000
FFF00000
FFF00000
FFF00000
FFF00000
FFF00000
FFF00000
FFF00000
FFF00000
FFF00000
FFF00000
FFF00000
FFF80000
FFFC0000
7FFFFFC0
7FFFFFC0
7FFFFFC0
3FFFFFC0
3FFFFFC0
1FFFFFC0
0FFFFFC0
07FFFFC0
03FFFFC0
00FFFFC0
001FFFC0
ENDCHAR
STARTCHAR 004D
ENCODING 77
SWIDTH 825 0
DWIDTH 55 0
BBX 54 47 1 0
BITMAP
003F80000FF000
00FFE0001FFC00
01FFF0003FFC00
01FFF8007FFE00
03FFF8007FFF00
03FFFC00FFFF00
07FFFC00FFFF00
07FFFC00FFFF80
07FFFE01FFFF80
07FFFE01FFFF80
07FFFE01FEFF80
07FDFE01FEFF80
0FFDFF03FEFF80
0FFDFF03FEFFC0
0FFDFF03FEFFC0
0FFDFF03FCFFC0
0FFCFF07FCFFC0
0FFCFF87FCFFC0
0FFCFF87FCFFC0
0FFCFF87FCFFC0
1FF87F8FF87FC0
1FF87FCFF87FE0
1FF87FCFF87FE0
1FF87FCFF87FE0
1FF87FCFF07FE0
1FF83FCFF07FE0
1FF83FDFF07FE0
3FF83FFFF07FE0
3FF83FFFF07FF0
3FF83FFFE07FF0
3FF81FFFE07FF0
3FF01FFFE03FF0
3FF01FFFE03FF0
3FF01FFFE03FF0
3FF01FFFC03FF0
7FF00FFFC03FF0
7FF00FFFC03FF8
7FF00FFFC03FF8
7FF00FFFC03FF8
7FF007FF803FF8
7FF007FF803FF8
7FF007FF803FF8
FFE007FF803FF8
FFE003FF001FFC
FFE003FF001FFC
FFE001FE001FFC
FFE000FC001FFC
ENDCHAR
STARTCHAR 004E
ENCODING 78
SWIDTH 660 0
DWIDTH 44 0
BBX 38 49 3 -1
BITMAP
0300000000
0FE0003FFC
3FF8003FFC
3FFC003FFC
7FFC003FFC
7FFE003FFC
7FFF003FFC
FFFF003FFC
FFFF803FFC
FFFF803FFC
FFFFC03FFC
FFFFC03FFC
FFFFE03FFC
FFFFF03FFC
FFFFF03FFC
FFFFF83FFC
FFFFF83FFC
FFFFFC3FFC
FFFFFC3FFC
FFEFFE3FFC
FFEFFE1FFC
FFE7FF1FFC
FFE7FF1FFC
FFE3FF9FFC
FFE3FF9FFC
FFE1FFDFFC
FFE1FFDFFC
FFE0FFFFFC
FFF0FFFFFC
FFF07FFFFC
FFF03FFFFC
FFF03FFFFC
FFF01FFFFC
FFF01FFFFC
FFF00FFFFC
FFF00FFFFC
FFF007FFFC
FFF007FFFC
FFF003FFFC
FFF003FFFC
FFF001FFFC
FFF000FFFC
FFF000FFFC
FFF0007FFC
FFF0007FF8
FFF0003FF8
FFF0001FF0
FFF0000FE0
0000000380
ENDCHAR
STARTCHAR 004F
ENCODING 79
SWIDTH 765 0
DWIDTH 51 0
BBX 48 48 2 -1
BITMAP
00007FFE0000
0003FFFF8000
000FFFFFE000
001FFFFFF800
007FFFFFFC00
00FFFFFFFF00
01FFFFFFFF80
03FFFFFFFFC0
07FFFFFFFFC0
0FFFFFFFFFE0
0FFFFFFFFFF0
1FFFF81FFFF0
1FFFC003FFF8
3FFF8001FFFC
3FFE0000FFFC
7FFE00007FFC
7FFC00003FFE
7FF800003FFE
FFF800001FFE
FFF000001FFE
FFF000001FFE
FFF000000FFF
FFF000000FFF
FFF000000FFF
FFF000000FFF
FFF000000FFF
FFF000001FFF
FFF000001FFE
FFF800001FFE
7FF800003FFE
7FFC00003FFE
7FFC00007FFC
7FFE0000FFFC
3FFF0001FFFC
3FFFC003FFF8
1FFFF00FFFF8
1FFFFFFFFFF0
0FFFFFFFFFE0
07FFFFFFFFE0
03FFFFFFFFC0
01FFFFFFFF80
00FFFFFFFF00
007FFFFFFE00
003FFFFFFC00
000FFFFFF000
0007FFFFC000
0000FFFF0000
00000FE00000
ENDCHAR
STARTCHAR 0050
ENCODING 80
SWIDTH 570 0
DWIDTH 38 0
BBX 34 47 3 0
BITMAP
001FFE0000
00FFFF8000
01FFFFE000
03FFFFF000
07FFFFF800
0FFFFFFC00
1FFFFFFE00
3FFFFFFF00
3FFFFFFF00
7FFFFFFF80
7FFFFFFF80
7FFC0FFF80
FFF807FF80
FFF007FFC0
FFF003FFC0
FFF003FFC0
FFF003FFC0
FFF003FFC0
FFF007FFC0
FFF00FFF80
FFF03FFF80
FFF3FFFF80
FFF3FFFF00
FFF3FFFF00
FFF3FFFE00
FFF3FFFE00
FFF3FFFC00
FFF3FFF800
FFF3FFE000
FFF3FFC000
FFF3FF0000
FFF3F80000
FFF0000000
FFF0000000
FFF0000000
FFF0000000
FFF0000000
FFF0000000
FFF0000000
FFF0000000
FFF0000000
FFF0000000
FFF0000000
FFF0000000
FFF0000000
FFF0000000
FFF0000000
ENDCHAR
STARTCHAR 0051
ENCODING 81
SWIDTH 765 0
DWIDTH 51 0
BBX 48 53 2 -6
BITMAP
00007FFE0000
0003FFFF8000
000FFFFFE000
001FFFFFF800
007FFFFFFC00
00FFFFFFFF00
01FFFFFFFF80
03FFFFFFFFC0
07FFFFFFFFC0
0FFFFFFFFFE0
0FFFFFFFFFF0
1FFFF81FFFF8
1FFFC003FFF8
3FFF0001FFFC
3FFE0000FFFC
7FFC00007FFC
7FFC00003FFE
7FF800003FFE
FFF800001FFE
FFF000001FFE
FFF000001FFF
FFF000000FFF
FFF000000FFF
FFF000000FFF
FFF000000FFF
FFF000000FFF
FFF000000FFF
FFF000001FFF
FFF800001FFE
FFF81FF81FFE
7FFC1FF83FFE
7FFC1FF87FFE
7FFE1FF87FFC
3FFF1FF9FFFC
3FFF1FFFFFFC
1FFF1FFFFFF8
1FFF1FFFFFF0
0FFF1FFFFFF0
07FF1FFFFFE0
07FF1FFFFFC0
03FF1FFFFF80
01FF1FFFFF00
007F1FFFFE00
003F1FFFFC00
000F1FFFF000
00071FFFC000
00001FFE0000
00001FF80000
00001FF80000
00001FF80000
00001FF80000
00001FF80000
00001FF80000
ENDCHAR
STARTCHAR 0052
ENCODING 82
SWIDTH 570 0
DWIDTH 38 0
BBX 34 47 3 0
BITMAP
003FFE0000
00FFFF8000
01FFFFE000
07FFFFF000
0FFFFFF800
1FFFFFFC00
1FFFFFFE00
3FFFFFFF00
3FFFFFFF00
7FFFFFFF80
7FFE3FFF80
7FF80FFF80
FFF00FFF80
FFF007FF80
FFF007FF80
FFF007FF80
FFF007FF80
FFF00FFF00
FFF03FFF00
FFF3FFFE00
FFF3FFFC00
FFF3FFF800
FFF3FFE000
FFF3FFE000
FFF3FFFC00
FFF3FFFE00
FFF3FFFF00
FFF3FFFF80
FFF3FFFF80
FFF07FFF80
FFF00FFFC0
FFF007FFC0
FFF003FFC0
FFF003FFC0
FFF003FFC0
FFF003FFC0
FFF003FFC0
FFF003FFC0
FFF003FFC0
FFF003FFC0
FFF003FFC0
FFF003FFC0
FFF003FFC0
FFF003FFC0
FFF003FFC0
FFF003FFC0
FFF003FFC0
ENDCHAR
STARTCHAR 0053
ENCODING 83
SWIDTH 525 0
DWIDTH 35 0
BBX 32 47 2 0
BITMAP
0007FFF8
00FFFFF8
03FFFFF8
0FFFFFF8
1FFFFFF8
1FFFFFF8
3FFFFFF8
7FFFFFF8
7FFFFFF8
7FFFFFF8
FFFFFFF8
FFF80000
FFF00000
FFF00000
FFF80000
FFFC0000
7FFE0000
7FFF8000
3FFFE000
3FFFF000
1FFFFC00
0FFFFF00
07FFFF80
03FFFFC0
01FFFFF0
007FFFF8
001FFFF8
000FFFFC
0003FFFC
0000FFFE
00007FFE
00003FFE
00001FFF
00001FFF
00001FFF
00003FFF
FFFFFFFE
FFFFFFFE
FFFFFFFE
FFFFFFFE
FFFFFFFC
FFFFFFF8
FFFFFFF8
FFFFFFF0
FFFFFFC0
FFFFFF00
FFFFF800
ENDCHAR
STARTCHAR 0054
ENCODING 84
SWIDTH 495 0
DWIDTH 33 0
BBX 31 47 1 0
BITMAP
FFFFFFFE
FFFFFFFE
FFFFFFFE
FFFFFFFE
FFFFFFFE
FFFFFFFE
FFFFFFFE
FFFFFFFE
FFFFFFFE
FFFFFFFE
FFFFFFFE
003FF800
003FF800
003FF800
003FF800
003FF800
003FF800
003FF800
003FF800
003FF800
003FF800
003FF800
003FF800
003FF800
003FF800
003FF800
003FF800
003FF800
003FF800
003FF800
003FF800
003FF800
003FF800
003FF800
003FF800
003FF800
003FF800
003FF800
003FF800
003FF800
003FF800
003FF800
003FF800
003FF800
003FF800
003FF800
003FF800
ENDCHAR
STARTCHAR 0055
ENCODING 85
SWIDTH 615 0
DWIDTH 41 0
BBX 36 48 3 -1
BITMAP
FFF000FFF0
FFF000FFF0
FFF000FFF0
FFF000FFF0
FFF000FFF0
FFF000FFF0
FFF000FFF0
FFF000FFF0
FFF000FFF0
FFF000FFF0
FFF000FFF0
FFF000FFF0
FFF000FFF0
FFF000FFF0
FFF000FFF0
FFF000FFF0
FFF000FFF0
FFF000FFF0
FFF000FFF0
FFF000FFF0
FFF000FFF0
FFF000FFF0
FFF000FFF0
FFF000FFF0
FFF000FFF0
FFF000FFF0
FFF000FFF0
FFF000FFF0
FFF000FFF0
FFF000FFE0
FFF000FFE0
FFF000FFE0
FFF001FFE0
7FF801FFE0
7FF803FFE0
7FFC07FFE0
7FFFFFFFC0
3FFFFFFFC0
3FFFFFFF80
1FFFFFFF80
1FFFFFFF00
0FFFFFFE00
07FFFFFE00
03FFFFFC00
01FFFFF800
007FFFE000
001FFF8000
0003F80000
ENDCHAR
STARTCHAR 0056
ENCODING 86
SWIDTH 540 0
DWIDTH 36 0
BBX 39 48 -1 -1
BITMAP
FFF0001FFE
FFF0001FFE
FFF0001FFC
7FF0001FFC
7FF8003FFC
7FF8003FFC
7FF8003FF8
3FF8003FF8
3FFC007FF8
3FFC007FF8
1FFC007FF0
1FFC007FF0
1FFE00FFF0
1FFE00FFF0
0FFE00FFE0
0FFE00FFE0
0FFF01FFE0
0FFF01FFE0
07FF01FFC0
07FF01FFC0
07FF83FFC0
07FF83FF80
03FF83FF80
03FF83FF80
03FFC7FF80
03FFC7FF00
01FFC7FF00
01FFC7FF00
01FFCFFF00
01FFEFFE00
00FFEFFE00
00FFEFFE00
00FFEFFE00
00FFFFFC00
007FFFFC00
007FFFFC00
007FFFFC00
007FFFF800
003FFFF800
003FFFF800
003FFFF000
001FFFF000
001FFFF000
000FFFE000
0007FFC000
0007FFC000
0001FF0000
00007C0000
ENDCHAR
STARTCHAR 0057
ENCODING 87
SWIDTH 900 0
DWIDTH 60 0
BBX 55 48 3 -1
BITMAP
FFE003FF801FFE
FFE003FF801FFE
FFE003FF801FFE
FFE003FF801FFE
FFE003FF801FFE
FFE003FF801FFE
FFE003FF801FFE
FFE003FF801FFE
FFE003FF801FFE
FFE003FF801FFE
FFE003FF801FFE
FFE003FF801FFE
FFE003FF801FFE
FFE003FF801FFE
FFE003FF801FFE
FFE003FF801FFE
FFE003FF801FFE
FFE003FF801FFE
FFE003FF801FFE
FFE003FF801FFE
FFE003FF801FFE
FFE003FF801FFE
FFE003FF801FFE
FFE003FF801FFE
FFE003FF801FFE
FFE003FF801FFE
FFE003FF801FFE
FFE003FF801FFE
FFE003FF801FFE
FFE003FF801FFE
FFE003FF801FFE
FFF003FF801FFE
FFF003FF801FFE
FFF007FFC01FFC
7FF007FFC03FFC
7FF80FFFE03FFC
7FFFFFFFFFFFFC
7FFFFFFFFFFFF8
3FFFFFFFFFFFF8
3FFFFFFFFFFFF8
1FFFFFFFFFFFF0
0FFFFFFFFFFFE0
0FFFFFFFFFFFE0
07FFFFEFFFFFC0
03FFFFC7FFFF80
00FFFF01FFFE00
003FFE00FFF800
0007F0001FC000
ENDCHAR
STARTCHAR 0058
ENCODING 88
SWIDTH 630 0
DWIDTH 42 0
BBX 40 47 1 0
BITMAP
C000000001
FF0000007F
FFE00003FF
FFF8001FFF
FFFE003FFF
FFFF00FFFF
FFFF81FFFF
FFFFC3FFFF
FFFFE7FFFF
FFFFFFFFFF
FFFFFFFFFF
3FFFFFFFFC
01FFFFFFC0
007FFFFE00
003FFFFC00
001FFFF800
000FFFF000
0007FFE000
0007FFE000
0003FFE000
0003FFC000
0003FFC000
0003FFC000
0003FFC000
0003FFC000
0003FFC000
0003FFC000
0003FFE000
0007FFE000
0007FFE000
000FFFF000
000FFFF800
001FFFFC00
007FFFFE00
00FFFFFF80
07FFFFFFF0
FFFFFFFFFF
FFFFFFFFFF
FFFFF7FFFF
FFFFE7FFFF
FFFFC3FFFF
FFFF80FFFF
FFFE007FFF
FFFC001FFF
FFF00007FF
FF800001FF
F80000001F
ENDCHAR
STARTCHAR 0059
ENCODING 89
SWIDTH 555 0
DWIDTH 37 0
BBX 32 47 3 0
BITMAP
FFE007FF
FFE007FF
FFE007FF
FFE007FF
FFE007FF
FFE007FF
FFE007FF
FFE007FF
FFE007FF
FFE007FF
FFE007FF
FFE007FF
FFE007FF
FFE007FF
FFE007FF
FFE007FF
FFE007FF
FFF00FFF
FFF00FFF
FFF81FFF
7FFC3FFE
7FFFFFFE
7FFFFFFE
3FFFFFFC
3FFFFFFC
1FFFFFF8
0FFFFFF0
07FFFFE0
03FFFFC0
00FFFF00
007FFE00
003FFC00
003FFC00
003FFC00
003FFC00
003FFC00
003FFC00
003FFC00
003FFC00
003FFC00
003FFC00
003FFC00
003FFC00
003FFC00
003FFC00
003FFC00
003FFC00
ENDCHAR
STARTCHAR 005A
ENCODING 90
SWIDTH 525 0
DWIDTH 35 0
BBX 34 47 1 0
BITMAP
3FFFFFE000
3FFFFFFC00
3FFFFFFF00
3FFFFFFF80
3FFFFFFF80
3FFFFFFF80
3FFFFFFFC0
3FFFFFFFC0
3FFFFFFFC0
3FFFFFFF80
3FFFFFFF80
00001FFF00
00003FFF00
00007FFE00
00007FFC00
0000FFFC00
0001FFF800
0003FFF000
0003FFE000
0007FFE000
000FFFC000
001FFF8000
001FFF8000
003FFF0000
007FFE0000
00FFFC0000
00FFFC0000
01FFF80000
03FFF00000
03FFE00000
07FFE00000
0FFFC00000
1FFF800000
1FFF800000
3FFF000000
7FFE000000
7FFFFFFFC0
FFFFFFFFC0
FFFFFFFFC0
FFFFFFFFC0
FFFFFFFFC0
FFFFFFFFC0
FFFFFFFFC0
7FFFFFFFC0
7FFFFFFFC0
3FFFFFFFC0
0FFFFFFFC0
ENDCHAR
STARTCHAR 005B
ENCODING 91
SWIDTH 330 0
DWIDTH 22 0
BBX 14 62 6 -15
BITMAP
FFFC
FFFC
FFFC
FFFC
FFFC
FF00
FF00
FF00
FF00
FF00
FF00
FF00
FF00
FF00
FF00
FF00
FF00
FF00
FF00
FF00
FF00
FF00
FF00
FF00
FF00
FF00
FF00
FF00
FF00
FF00
FF00
FF00
FF00
FF00
FF00
FF00
FF00
FF00
FF00
FF00
FF00
FF00
FF00
FF00
FF00
FF00
FF00
FF00
FF00
FF00
FF00
FF00
FF00
FF00
FF00
FF00
FF00
FFFC
FFFC
FFFC
FFFC
FFFC
ENDCHAR
STARTCHAR 005C
ENCODING 92
SWIDTH 270 0
DWIDTH 18 0
BBX 22 53 -2 -6
BITMAP
FC0000
FC0000
7E0000
7E0000
7E0000
3E0000
3F0000
3F0000
3F0000
1F8000
1F8000
1F8000
0FC000
0FC000
0FC000
07E000
07E000
07E000
03F000
03F000
03F000
01F800
01F800
01F800
00FC00
00FC00
00FC00
00FC00
007E00
007E00
007E00
003F00
003F00
003F00
001F80
001F80
001F80
000FC0
000FC0
000FC0
0007E0
0007E0
0007E0
0003F0
0003F0
0003F0
0003F0
0001F8
0001F8
0001F8
0000FC
0000FC
0000FC
ENDCHAR
STARTCHAR 005D
ENCODING 93
SWIDTH 330 0
DWIDTH 22 0
BBX 14 62 3 -15
BITMAP
FFFC
FFFC
FFFC
FFFC
FFFC
07FC
07FC
07FC
07FC
07FC
07FC
07FC
07FC
07FC
07FC
07FC
07FC
07FC
07FC
07FC
07FC
07FC
07FC
07FC
07FC
07FC
07FC
07FC
07FC
07FC
07FC
07FC
07FC
07FC
07FC
07FC
07FC
07FC
07FC
07FC
07FC
07FC
07FC
07FC
07FC
07FC
07FC
07FC
07FC
07FC
07FC
07FC
07FC
07FC
07FC
07FC
07FC
FFFC
FFFC
FFFC
FFFC
FFFC
ENDCHAR
STARTCHAR 005E
ENCODING 94
SWIDTH 990 0
DWIDTH 66 0
BBX 39 19 14 29
BITMAP
0001FF0000
0003FF8000
0007FFC000
000FFFE000
001FFFE000
003FFFF000
003FFFF800
007FFFFC00
00FFCFFE00
01FF87FF00
03FF03FF00
07FE01FF80
07FC00FFC0
0FF8007FE0
1FF0003FF0
3FE0001FF0
7FC0000FF8
FF800007FC
FF000003FE
ENDCHAR
STARTCHAR 005F
ENCODING 95
SWIDTH 495 0
DWIDTH 33 0
BBX 33 8 0 -16
BITMAP
FFFFFFFF80
FFFFFFFF80
FFFFFFFF80
FFFFFFFF80
FFFFFFFF80
FFFFFFFF80
FFFFFFFF80
FFFFFFFF80
ENDCHAR
STARTCHAR 0060
ENCODING 96
SWIDTH 495 0
DWIDTH 33 0
BBX 14 12 7 37
BITMAP
FF80
7F80
3FC0
1FC0
0FE0
07E0
07F0
03F0
01F8
00F8
007C
003C
ENDCHAR
STARTCHAR 0061
ENCODING 97
SWIDTH 555 0
DWIDTH 37 0
BBX 33 34 2 0
BITMAP
0003C00000
003FFE0000
00FFFF8000
03FFFFC000
07FFFFE000
0FFFFFF000
1FFFFFF800
3FFFFFFC00
3FFFFFFE00
7FFFFFFE00
7FFFFFFF00
FFF81FFF00
FFF007FF00
FFE007FF00
FFE003FF80
FFC003FF80
FFC003FF80
FFC003FF80
FFC003FF80
FFC003FF80
FFE003FF80
FFE003FF80
FFF003FF80
FFFC1BFF80
7FFFFBFF80
7FFFFBFF80
3FFFFBFF80
3FFFFBFF80
1FFFFBFF80
0FFFFBFF80
07FFFBFF80
03FFFBFF80
00FFFBFF80
003FFBFF80
ENDCHAR
STARTCHAR 0062
ENCODING 98
SWIDTH 555 0
DWIDTH 37 0
BBX 33 48 3 -1
BITMAP
FFC0000000
FFC0000000
FFC0000000
FFC0000000
FFC0000000
FFC0000000
FFC0000000
FFC0000000
FFC0000000
FFC0000000
FFC0000000
FFC0000000
FFC0000000
FFCFF80000
FFCFFF0000
FFCFFFC000
FFCFFFE000
FFCFFFF000
FFCFFFF800
FFCFFFFC00
FFCFFFFC00
FFCFFFFE00
FFCFFFFE00
FFCC7FFF00
FFC00FFF00
FFC007FF00
FFC007FF00
FFC003FF80
FFC003FF80
FFC003FF80
FFC003FF80
FFC003FF80
FFC003FF80
FFE003FF80
FFE007FF00
FFF00FFF00
7FF81FFF00
7FFFFFFE00
7FFFFFFE00
3FFFFFFC00
1FFFFFFC00
1FFFFFF800
0FFFFFF000
07FFFFE000
01FFFFC000
00FFFF0000
003FFC0000
0001800000
ENDCHAR
STARTCHAR 0063
ENCODING 99
SWIDTH 390 0
DWIDTH 26 0
BBX 23 33 2 0
BITMAP
0003FE
003FFE
00FFFE
03FFFE
07FFFE
0FFFFE
1FFFFE
3FFFFE
3FFFFE
7FFFFE
7FFE00
FFF800
FFF000
FFE000
FFE000
FFC000
FFC000
FFC000
FFE000
FFE000
FFF000
FFF800
7FFE00
7FFFFE
3FFFFE
3FFFFE
1FFFFE
0FFFFE
07FFFE
03FFFE
00FFFE
003FFE
0007FE
ENDCHAR
STARTCHAR 0064
ENCODING 100
SWIDTH 555 0
DWIDTH 37 0
BBX 33 48 2 -1
BITMAP
000003FF80
000003FF80
000003FF80
000003FF80
000003FF80
000003FF80
000003FF80
000003FF80
000003FF80
000003FF80
000003FF80
000003FF80
000003FF80
000183FF80
003FFBFF80
00FFFBFF80
03FFFBFF80
07FFFBFF80
0FFFFBFF80
1FFFFBFF80
3FFFFBFF80
3FFFFBFF80
7FFFFBFF80
7FFFFBFF80
FFFC0BFF80
FFF003FF80
FFE003FF80
FFE003FF80
FFC003FF80
FFC003FF80
FFC003FF80
FFC003FF80
FFC003FF80
FFE003FF80
FFE007FF00
FFF007FF00
FFF81FFF00
7FFFFFFF00
7FFFFFFE00
3FFFFFFE00
3FFFFFFC00
1FFFFFF800
0FFFFFF000
07FFFFE000
03FFFFC000
00FFFF0000
003FFC0000
0001800000
ENDCHAR
STARTCHAR 0065
ENCODING 101
SWIDTH 540 0
DWIDTH 36 0
BBX 34 35 2 -1
BITMAP
0001C00000
003FFC0000
00FFFF8000
01FFFFC000
07FFFFE000
0FFFFFF000
0FFFFFF800
1FFFFFFC00
3FFFFFFE00
3FF80FFE00
7FF01FFF00
7FE03FFE00
FFE0FFF800
FFC1FFF000
FFC3FFC000
FFCFFF8000
FFC7FF0000
FFC7FC0000
FFC3F83000
FFC3E07C00
FFC1C07F00
FFE000FFC0
FFF001FFC0
7FF807FF80
7FFE3FFF80
3FFFFFFF00
3FFFFFFF00
1FFFFFFE00
0FFFFFFC00
0FFFFFF800
03FFFFF000
01FFFFE000
00FFFF8000
003FFE0000
0001C00000
ENDCHAR
STARTCHAR 0066
ENCODING 102
SWIDTH 345 0
DWIDTH 23 0
BBX 20 47 3 0
BITMAP
0007F0
01FFF0
07FFF0
0FFFF0
1FFFF0
3FFFF0
3FFFF0
7FFFF0
7FFFF0
FFFFF0
FFF000
FFE000
FFC000
FFC000
FFFFF0
FFFFF0
FFFFF0
FFFFF0
FFFFF0
FFFFF0
FFFFF0
FFFFF0
FFFFF0
FFFFF0
FFC000
FFC000
FFC000
FFC000
FFC000
FFC000
FFC000
FFC000
FFC000
FFC000
FFC000
FFC000
FFC000
FFC000
FFC000
FFC000
FFC000
FFC000
FFC000
FFC000
FFC000
FFC000
FFC000
ENDCHAR
STARTCHAR 0067
ENCODING 103
SWIDTH 555 0
DWIDTH 37 0
BBX 33 49 2 -15
BITMAP
0001C00000
003FFE0000
00FFFF8000
03FFFFC000
07FFFFE000
0FFFFFF000
1FFFFFF800
3FFFFFFC00
3FFFFFFE00
7FFFFFFE00
7FFFFFFF00
FFF81FFF00
FFF007FF00
FFE007FF00
FFE003FF80
FFC003FF80
FFC003FF80
FFC003FF80
FFC003FF80
FFC003FF80
FFE003FF80
FFE003FF80
FFF003FF80
7FFC0BFF80
7FFFFBFF80
7FFFFBFF80
3FFFFBFF80
1FFFFBFF80
1FFFFBFF80
0FFFFBFF80
03FFFBFF80
01FFFBFF80
007FFBFF80
001FFBFF80
000003FF80
000003FF80
000007FF00
08000FFF00
0F801FFF00
0FFFFFFF00
0FFFFFFE00
0FFFFFFE00
0FFFFFFC00
0FFFFFF800
0FFFFFF000
0FFFFFE000
0FFFFFC000
07FFFE0000
001FF00000
ENDCHAR
STARTCHAR 0068
ENCODING 104
SWIDTH 540 0
DWIDTH 36 0
BBX 30 47 3 0
BITMAP
FFC00000
FFC00000
FFC00000
FFC00000
FFC00000
FFC00000
FFC00000
FFC00000
FFC00000
FFC00000
FFC00000
FFC00000
FFC00000
FFC0E000
FFC7FE00
FFDFFF80
FFFFFFC0
FFFFFFE0
FFFFFFF0
FFFFFFF0
FFFFFFF8
FFFFFFF8
FFFFFFF8
FFFEFFFC
FFF03FFC
FFE01FFC
FFE00FFC
FFE00FFC
FFC00FFC
FFC00FFC
FFC00FFC
FFC00FFC
FFC00FFC
FFC00FFC
FFC00FFC
FFC00FFC
FFC00FFC
FFC00FFC
FFC00FFC
FFC00FFC
FFC00FFC
FFC00FFC
FFC00FFC
FFC00FFC
FFC00FFC
FFC00FFC
FFC00FFC
ENDCHAR
STARTCHAR 0069
ENCODING 105
SWIDTH 240 0
DWIDTH 16 0
BBX 12 48 2 0
BITMAP
0F80
3FC0
7FE0
7FF0
FFF0
FFF0
FFF0
FFF0
7FF0
7FE0
3FE0
0F80
0000
0000
0000
7FF0
7FF0
7FF0
7FF0
7FF0
7FF0
7FF0
7FF0
7FF0
7FF0
7FF0
7FF0
7FF0
7FF0
7FF0
7FF0
7FF0
7FF0
7FF0
7FF0
7FF0
7FF0
7FF0
7FF0
7FF0
7FF0
7FF0
7FF0
7FF0
7FF0
7FF0
7FF0
7FF0
ENDCHAR
STARTCHAR 006A
ENCODING 106
SWIDTH 240 0
DWIDTH 16 0
BBX 19 62 -5 -14
BITMAP
001F00
007F80
00FFC0
00FFE0
00FFE0
01FFE0
01FFE0
01FFE0
00FFE0
00FFC0
007FC0
001F00
000000
000000
000000
00FFE0
00FFE0
00FFE0
00FFE0
00FFE0
00FFE0
00FFE0
00FFE0
00FFE0
00FFE0
00FFE0
00FFE0
00FFE0
00FFE0
00FFE0
00FFE0
00FFE0
00FFE0
00FFE0
00FFE0
00FFE0
00FFE0
00FFE0
00FFE0
00FFE0
00FFE0
00FFE0
00FFE0
00FFE0
00FFE0
00FFE0
00FFE0
00FFE0
00FFE0
00FFE0
00FFC0
01FFC0
FFFFC0
FFFFC0
FFFFC0
FFFF80
FFFF80
FFFF00
FFFE00
FFFC00
FFF800
FFC000
ENDCHAR
STARTCHAR 006B
ENCODING 107
SWIDTH 510 0
DWIDTH 34 0
BBX 30 47 3 0
BITMAP
FFC00000
FFC00000
FFC00000
FFC00000
FFC00000
FFC00000
FFC00000
FFC00000
FFC00000
FFC00000
FFC00000
FFC00000
FFC00000
FFC00000
FFC01FFC
FFC01FFC
FFC03FF8
FFC03FF8
FFC03FF0
FFC07FF0
FFC07FF0
FFC0FFE0
FFC0FFE0
FFC1FFE0
FFC7FFC0
FFFFFF80
FFFFFF80
FFFFFE00
FFFFFF00
FFFFFFC0
FFFFFFE0
FFFFFFF0
FFFFFFF0
FFFFFFF8
FFC0FFF8
FFC03FF8
FFC03FF8
FFC01FF8
FFC01FF8
FFC01FF8
FFC01FF8
FFC01FF8
FFC01FF8
FFC01FF8
FFC01FF8
FFC01FF8
FFC01FF8
ENDCHAR
STARTCHAR 006C
ENCODING 108
SWIDTH 240 0
DWIDTH 16 0
BBX 11 47 3 0
BITMAP
FFE0
FFE0
FFE0
FFE0
FFE0
FFE0
FFE0
FFE0
FFE0
FFE0
FFE0
FFE0
FFE0
FFE0
FFE0
FFE0
FFE0
FFE0
FFE0
FFE0
FFE0
FFE0
FFE0
FFE0
FFE0
FFE0
FFE0
FFE0
FFE0
FFE0
FFE0
FFE0
FFE0
FFE0
FFE0
FFE0
FFE0
FFE0
FFE0
FFE0
FFE0
FFE0
FFE0
FFE0
FFE0
FFE0
FFE0
ENDCHAR
STARTCHAR 006D
ENCODING 109
SWIDTH 795 0
DWIDTH 53 0
BBX 48 34 3 0
BITMAP
000E0000F000
00FFE00FFE00
03FFF83FFF80
07FFFC7FFFC0
0FFFFEFFFFE0
1FFFFFFFFFF0
3FFFFFFFFFF8
3FFFFFFFFFFC
7FFFFFFFFFFC
7FFFFFFFFFFC
7FF9FFFF3FFE
FFE07FFC0FFE
FFE03FF807FE
FFC03FF807FE
FFC01FF807FE
FFC01FF807FF
FFC01FF807FF
FFC01FF807FF
FFC01FF807FF
FFC01FF807FF
FFC01FF807FF
FFC01FF807FF
FFC01FF807FF
FFC01FF807FF
FFC01FF807FF
FFC01FF807FF
FFC01FF807FF
FFC01FF807FF
FFC01FF807FF
FFC01FF807FF
FFC01FF807FF
FFC01FF807FF
FFC01FF807FF
FFC01FF807FF
ENDCHAR
STARTCHAR 006E
ENCODING 110
SWIDTH 525 0
DWIDTH 35 0
BBX 30 34 3 0
BITMAP
000F8000
007FF800
01FFFE00
07FFFF00
0FFFFF80
1FFFFFC0
1FFFFFE0
3FFFFFF0
7FFFFFF0
7FFFFFF8
7FFDFFF8
FFF03FF8
FFE01FFC
FFC01FFC
FFC01FFC
FFC00FFC
FFC00FFC
FFC00FFC
FFC00FFC
FFC00FFC
FFC00FFC
FFC00FFC
FFC00FFC
FFC00FFC
FFC00FFC
FFC00FFC
FFC00FFC
FFC00FFC
FFC00FFC
FFC00FFC
FFC00FFC
FFC00FFC
FFC00FFC
FFC00FFC
ENDCHAR
STARTCHAR 006F
ENCODING 111
SWIDTH 540 0
DWIDTH 36 0
BBX 33 35 2 -1
BITMAP
0001E00000
003FFE0000
00FFFF8000
01FFFFC000
07FFFFE000
0FFFFFF000
0FFFFFF800
1FFFFFFC00
3FFFFFFE00
3FFFFFFE00
7FFFFFFF00
7FF81FFF00
FFF00FFF00
FFE007FF80
FFE003FF80
FFE003FF80
FFC003FF80
FFC003FF80
FFC003FF80
FFE003FF80
FFE003FF80
FFF007FF80
FFF00FFF00
7FFC1FFF00
7FFFFFFF00
3FFFFFFE00
3FFFFFFE00
1FFFFFFC00
0FFFFFF800
0FFFFFF000
03FFFFE000
01FFFFC000
00FFFF0000
003FFC0000
0001800000
ENDCHAR
STARTCHAR 0070
ENCODING 112
SWIDTH 555 0
DWIDTH 37 0
BBX 33 48 3 -14
BITMAP
0003C00000
003FFE0000
00FFFF8000
03FFFFC000
07FFFFE000
0FFFFFF000
1FFFFFF800
3FFFFFFC00
3FFFFFFE00
7FFFFFFE00
7FFFFFFF00
FFF81FFF00
FFF00FFF00
FFE007FF00
FFE003FF80
FFC003FF80
FFC003FF80
FFC003FF80
FFC003FF80
FFC003FF80
FFC003FF80
FFC007FF00
FFC00FFF00
FFC81FFF00
FFCFFFFF00
FFCFFFFE00
FFCFFFFE00
FFCFFFFC00
FFCFFFF800
FFCFFFF000
FFCFFFE000
FFCFFFC000
FFCFFF0000
FFCFFC0000
FFC0000000
FFC0000000
FFC0000000
FFC0000000
FFC0000000
FFC0000000
FFC0000000
FFC0000000
FFC0000000
FFC0000000
FFC0000000
FFC0000000
FFC0000000
FFC0000000
ENDCHAR
STARTCHAR 0071
ENCODING 113
SWIDTH 555 0
DWIDTH 37 0
BBX 33 48 2 -14
BITMAP
0003C00000
003FFE0000
00FFFF8000
03FFFFC000
07FFFFE000
0FFFFFF000
1FFFFFF800
3FFFFFFC00
3FFFFFFE00
7FFFFFFE00
7FFFFFFF00
FFF81FFF00
FFF007FF00
FFE007FF00
FFE003FF80
FFC003FF80
FFC003FF80
FFC003FF80
FFC003FF80
FFC003FF80
FFE003FF80
FFE003FF80
FFF003FF80
FFFC1BFF80
7FFFFBFF80
7FFFFBFF80
3FFFFBFF80
3FFFFBFF80
1FFFFBFF80
0FFFFBFF80
07FFFBFF80
03FFFBFF80
00FFFBFF80
003FFBFF80
000003FF80
000003FF80
000003FF80
000003FF80
000003FF80
000003FF80
000003FF80
000003FF80
000003FF80
000003FF80
000003FF80
000003FF80
000003FF80
000003FF80
ENDCHAR
STARTCHAR 0072
ENCODING 114
SWIDTH 360 0
DWIDTH 24 0
BBX 21 33 3 0
BITMAP
FFC0F8
FFC7F8
FFCFF8
FFDFF8
FFFFF8
FFFFF8
FFFFF8
FFFFF8
FFFFF8
FFFFF8
FFFF80
FFFC00
FFF800
FFF000
FFE000
FFE000
FFE000
FFC000
FFC000
FFC000
FFC000
FFC000
FFC000
FFC000
FFC000
FFC000
FFC000
FFC000
FFC000
FFC000
FFC000
FFC000
FFC000
ENDCHAR
STARTCHAR 0073
ENCODING 115
SWIDTH 435 0
DWIDTH 29 0
BBX 25 33 2 0
BITMAP
00FFFF00
07FFFF00
0FFFFF00
1FFFFF00
3FFFFF00
7FFFFF00
7FFFFF00
7FFFFF00
7FFFFF00
7FE00000
7FE00000
7FF00000
7FFC0000
3FFF8000
3FFFE000
1FFFF000
0FFFFC00
03FFFE00
00FFFF00
003FFF00
000FFF80
0003FF80
0003FF80
0007FF80
FFFFFF80
FFFFFF80
FFFFFF80
FFFFFF00
FFFFFF00
FFFFFE00
FFFFFC00
FFFFF800
FFFFC000
ENDCHAR
STARTCHAR 0074
ENCODING 116
SWIDTH 345 0
DWIDTH 23 0
BBX 18 41 3 0
BITMAP
FFC000
FFC000
FFC000
FFC000
FFC000
FFC000
FFC000
FFC000
FFFFC0
FFFFC0
FFFFC0
FFFFC0
FFFFC0
FFFFC0
FFFFC0
FFFFC0
FFFFC0
FFFFC0
FFC000
FFC000
FFC000
FFC000
FFC000
FFC000
FFC000
FFC000
FFC000
FFC000
FFC000
FFC000
FFE000
FFFFC0
FFFFC0
7FFFC0
7FFFC0
3FFFC0
3FFFC0
1FFFC0
0FFFC0
03FFC0
007FC0
ENDCHAR
STARTCHAR 0075
ENCODING 117
SWIDTH 525 0
DWIDTH 35 0
BBX 30 34 3 -1
BITMAP
FFC00FFC
FFC00FFC
FFC00FFC
FFC00FFC
FFC00FFC
FFC00FFC
FFC00FFC
FFC00FFC
FFC00FFC
FFC00FFC
FFC00FFC
FFC00FFC
FFC00FFC
FFC00FFC
FFC00FFC
FFC00FFC
FFC00FFC
FFC00FFC
FFC00FFC
FFC01FFC
FFC01FFC
FFE01FF8
FFF03FF8
7FFDFFF8
7FFFFFF8
7FFFFFF0
3FFFFFF0
1FFFFFE0
1FFFFFC0
0FFFFF80
07FFFF00
01FFFE00
007FF800
00070000
ENDCHAR
STARTCHAR 0076
ENCODING 118
SWIDTH 465 0
DWIDTH 31 0
BBX 33 34 -1 -1
BITMAP
FFE001FF80
7FE003FF80
7FF003FF80
7FF003FF00
3FF003FF00
3FF007FF00
3FF807FE00
1FF807FE00
1FF80FFE00
1FFC0FFC00
0FFC0FFC00
0FFC0FFC00
0FFC1FF800
07FE1FF800
07FE1FF800
07FE1FF000
03FF3FF000
03FF3FF000
03FF3FF000
01FF7FE000
01FF7FE000
01FFFFE000
00FFFFC000
00FFFFC000
00FFFFC000
007FFF8000
007FFF8000
007FFF8000
003FFF0000
003FFF0000
001FFE0000
001FFC0000
0007F80000
0001800000
ENDCHAR
STARTCHAR 0077
ENCODING 119
SWIDTH 795 0
DWIDTH 53 0
BBX 48 34 3 -1
BITMAP
FFC01FF807FF
FFC01FF807FF
FFC01FF807FF
FFC01FF807FF
FFC01FF807FF
FFC01FF807FF
FFC01FF807FF
FFC01FF807FF
FFC01FF807FF
FFC01FF807FF
FFC01FF807FF
FFC01FF807FF
FFC01FF807FF
FFC01FF807FF
FFC01FF807FF
FFC01FF807FF
FFC01FF807FF
FFC01FF807FF
FFC01FF807FF
FFC01FF807FE
FFC03FF807FE
FFE03FF807FE
FFE07FFC0FFE
7FFDFFFFBFFE
7FFFFFFFFFFC
7FFFFFFFFFFC
3FFFFFFFFFFC
3FFFFFFFFFF8
1FFFFFFFFFF0
0FFFFFFFFFE0
07FFFC7FFFC0
03FFF83FFF80
00FFE00FFE00
00060000D000
ENDCHAR
STARTCHAR 0078
ENCODING 120
SWIDTH 435 0
DWIDTH 29 0
BBX 28 33 1 0
BITMAP
F80001F0
FF000FF0
FFC03FF0
FFE0FFF0
FFF9FFF0
FFFFFFF0
FFFFFFF0
FFFFFFF0
FFFFFFF0
FFFFFFF0
0FFFFF00
03FFFC00
01FFF800
00FFF000
00FFF000
007FE000
007FE000
00FFE000
00FFE000
00FFF000
01FFF800
03FFFC00
0FFFFF00
FFFFFFF0
FFFFFFF0
FFFFFFF0
FFFFFFF0
FFFFFFF0
FFF9FFF0
FFE0FFF0
FFC07FF0
FF001FF0
F80001F0
ENDCHAR
STARTCHAR 0079
ENCODING 121
SWIDTH 525 0
DWIDTH 35 0
BBX 30 47 3 -14
BITMAP
FFC00FFC
FFC00FFC
FFC00FFC
FFC00FFC
FFC00FFC
FFC00FFC
FFC00FFC
FFC00FFC
FFC00FFC
FFC00FFC
FFC00FFC
FFC00FFC
FFC00FFC
FFC00FFC
FFC00FFC
FFC00FFC
FFC00FFC
FFC00FFC
FFC00FFC
FFC00FFC
FFC01FFC
FFE01FFC
FFE03FF8
FFF87FF8
7FFFFFF8
7FFFFFF0
3FFFFFF0
3FFFFFE0
1FFFFFC0
0FFFFFC0
07FFFF00
01FFFE00
00FFF800
003FF000
003FF000
003FF000
003FF000
003FF000
003FF000
003FF000
003FF000
003FF000
003FF000
003FF000
003FF000
003FF000
003FF000
ENDCHAR
STARTCHAR 007A
ENCODING 122
SWIDTH 450 0
DWIDTH 30 0
BBX 28 33 1 0
BITMAP
3FFFFF00
3FFFFFC0
3FFFFFE0
3FFFFFE0
3FFFFFF0
3FFFFFF0
3FFFFFF0
3FFFFFF0
3FFFFFE0
0003FFE0
0007FFC0
000FFF80
001FFF00
003FFF00
007FFE00
00FFFC00
00FFF800
01FFF000
03FFE000
07FFC000
0FFF8000
1FFF0000
3FFE0000
7FFFFFF0
7FFFFFF0
FFFFFFF0
FFFFFFF0
FFFFFFF0
FFFFFFF0
FFFFFFF0
7FFFFFF0
3FFFFFF0
0FFFFFF0
ENDCHAR
STARTCHAR 007B
ENCODING 123
SWIDTH 495 0
DWIDTH 33 0
BBX 24 62 5 -14
BITMAP
0001FF
000FFF
003FFF
007FFF
007FFF
007FFF
00FFFF
00FFFF
00FFE0
00FFC0
00FFC0
00FF80
00FF80
00FF80
00FF80
00FF80
00FF80
00FF80
00FF80
00FF80
00FF80
00FF80
00FF80
01FF80
01FF80
03FF80
0FFF80
FFFF00
FFFE00
FFFC00
FFE000
FFF800
FFFE00
FFFF00
FFFF00
07FF80
01FF80
01FF80
00FF80
00FF80
00FF80
00FF80
00FF80
00FF80
00FF80
00FF80
00FF80
00FF80
00FF80
00FF80
00FFC0
00FFC0
00FFC0
00FFF8
00FFFF
007FFF
007FFF
007FFF
003FFF
001FFF
0007FF
000007
ENDCHAR
STARTCHAR 007C
ENCODING 124
SWIDTH 495 0
DWIDTH 33 0
BBX 8 67 13 -16
BITMAP
FF
FF
FF
FF
FF
FF
FF
FF
FF
FF
FF
FF
FF
FF
FF
FF
FF
FF
FF
FF
FF
FF
FF
FF
FF
FF
FF
FF
FF
FF
FF
FF
FF
FF
FF
FF
FF
FF
FF
FF
FF
FF
FF
FF
FF
FF
FF
FF
FF
FF
FF
FF
FF
FF
FF
FF
FF
FF
FF
FF
FF
FF
FF
FF
FF
FF
FF
ENDCHAR
STARTCHAR 007D
ENCODING 125
SWIDTH 495 0
DWIDTH 33 0
BBX 24 62 4 -14
BITMAP
FFC000
FFF800
FFFC00
FFFE00
FFFE00
FFFF00
FFFF00
FFFF00
03FF00
03FF00
01FF00
01FF00
01FF00
01FF00
01FF00
01FF00
01FF00
01FF00
01FF00
01FF00
01FF00
01FF00
01FF80
01FF80
01FF80
01FFC0
00FFF0
00FFFF
007FFF
003FFF
0007FF
001FFF
003FFF
007FFF
00FFFF
00FFE0
01FFC0
01FF80
01FF80
01FF00
01FF00
01FF00
01FF00
01FF00
01FF00
01FF00
01FF00
01FF00
01FF00
01FF00
01FF00
01FF00
03FF00
1FFF00
FFFF00
FFFF00
FFFF00
FFFE00
FFFE00
FFF800
FFE000
F00000
ENDCHAR
STARTCHAR 007E
ENCODING 126
SWIDTH 825 0
DWIDTH 55 0
BBX 44 12 6 14
BITMAP
007F80000030
03FFF8000070
0FFFFF0001F0
3FFFFFE00FF0
FFFFFFFFFFF0
FFFFFFFFFFF0
FFFFFFFFFFF0
FFFFFFFFFFF0
FF007FFFFFC0
FC0007FFFF80
F00000FFFE00
C000001FF000
ENDCHAR
STARTCHAR 0080
ENCODING 128
SWIDTH 555 0
DWIDTH 37 0
BBX 36 47 0 0
BITMAP
00000001F0
000001FFF0
00000FFFF0
00007FFFF0
0000FFFFF0
0003FFFFF0
0007FFFFF0
000FFFFFF0
001FFFFFF0
003FFFFFF0
007FFFFFF0
007FFF8000
00FFFE0000
00FFF80000
00FFF00000
01FFF00000
01FFE00000
7FFFFFFF80
7FFFFFFF80
7FFFFFFF80
FFFFFFFF80
03FF800000
03FF800000
03FF800000
03FF800000
7FFFFFFE00
7FFFFFFE00
7FFFFFFE00
FFFFFFFE00
01FFC00000
01FFE00000
01FFE00000
01FFF00000
00FFF80000
00FFFC0000
007FFF0000
007FFFF000
003FFFFFF0
003FFFFFF0
001FFFFFF0
000FFFFFF0
0007FFFFF0
0001FFFFF0
0000FFFFF0
00003FFFF0
000007FFF0
0000003FF0
ENDCHAR
STARTCHAR 00A0
ENCODING 160
SWIDTH 555 0
DWIDTH 37 0
BBX 0 0 0 0
BITMAP
ENDCHAR
STARTCHAR 00A1
ENCODING 161
SWIDTH 315 0
DWIDTH 21 0
BBX 14 47 4 0
BITMAP
1FC0
3FF0
7FF8
7FF8
FFF8
FFFC
FFFC
FFF8
7FF8
7FF8
3FF0
1FE0
0700
0000
0000
3FF0
3FF0
3FF0
7FF0
7FF0
7FF0
7FF0
7FF0
7FF0
7FF8
7FF8
7FF8
7FF8
7FF8
7FF8
7FF8
7FF8
7FF8
7FF8
7FF8
7FF8
7FF8
7FF8
7FF8
7FF8
7FF8
7FF8
7FF8
7FF8
7FF8
7FF8
7FF8
ENDCHAR
STARTCHAR 00A2
ENCODING 162
SWIDTH 555 0
DWIDTH 37 0
BBX 22 46 7 0
BITMAP
001FC0
001FC0
001FC0
001FC0
001FC0
001FC0
001FC0
001FC0
001FC0
00FFFC
03FFFC
07FFFC
0FFFFC
1FFFFC
3FFFFC
3FFFFC
7FFFFC
7FFC00
7FE000
FFC000
FFC000
FF8000
FF8000
FF8000
FF8000
FFC000
FFE000
7FF000
7FFFFC
7FFFFC
3FFFFC
3FFFFC
1FFFFC
0FFFFC
07FFFC
01FFFC
003FFC
001FC0
001FC0
001FC0
001FC0
001FC0
001FC0
001FC0
001FC0
001FC0
ENDCHAR
STARTCHAR 00A3
ENCODING 163
SWIDTH 555 0
DWIDTH 37 0
BBX 36 47 1 0
BITMAP
0001FFE000
0007FFE000
001FFFE000
003FFFE000
007FFFE000
00FFFFE000
00FFFFE000
01FFFFE000
01FFFFE000
01FFFFE000
03FFF00000
03FFE00000
03FFC00000
03FF800000
03FF800000
03FF800000
03FF800000
3FFFFC0000
3FFFFC0000
3FFFFC0000
3FFFFC0000
3FFFFC0000
3FFFFC0000
3FFFFC0000
3FFFFC0000
3FFFFC0000
03FF800000
03FF807FF0
03FF807FF0
03FF807FF0
03FF807FF0
03FF807FF0
07FF80FFE0
07FF00FFE0
0FFE01FFE0
1FFC07FFE0
FFFFFFFFE0
FFFFFFFFC0
FFFFFFFFC0
FFFFFFFF80
FFFFFFFF80
FFFFFFFF00
FFFFFFFE00
FFFFFFFC00
FFFFFFF800
FFFFFFE000
FFFFFF8000
ENDCHAR
STARTCHAR 00A4
ENCODING 164
SWIDTH 555 0
DWIDTH 37 0
BBX 36 47 0 0
BITMAP
00000001F0
000001FFF0
00000FFFF0
00007FFFF0
0000FFFFF0
0003FFFFF0
0007FFFFF0
000FFFFFF0
001FFFFFF0
003FFFFFF0
007FFFFFF0
007FFF8000
00FFFE0000
00FFF80000
00FFF00000
01FFF00000
01FFE00000
7FFFFFFF80
7FFFFFFF80
7FFFFFFF80
FFFFFFFF80
03FF800000
03FF800000
03FF800000
03FF800000
7FFFFFFE00
7FFFFFFE00
7FFFFFFE00
FFFFFFFE00
01FFC00000
01FFE00000
01FFE00000
01FFF00000
00FFF80000
00FFFC0000
007FFF0000
007FFFF000
003FFFFFF0
003FFFFFF0
001FFFFFF0
000FFFFFF0
0007FFFFF0
0001FFFFF0
0000FFFFF0
00003FFFF0
000007FFF0
0000003FF0
ENDCHAR
STARTCHAR 00A5
ENCODING 165
SWIDTH 585 0
DWIDTH 39 0
BBX 39 47 0 0
BITMAP
FFE0000FFE
7FF0000FFE
7FF0000FFC
3FF0001FFC
3FF8001FF8
1FF8003FF8
1FFC003FF0
0FFC003FF0
0FFC007FE0
0FFE007FE0
07FE00FFE0
07FF00FFC0
03FF00FFC0
FFFF01FFFE
FFFF81FFFE
FFFF83FFFE
FFFFC3FFFE
FFFFC7FFFE
007FC7FE00
007FE7FC00
007FEFFC00
003FFFFC00
FFFFFFFFFE
FFFFFFFFFE
FFFFFFFFFE
FFFFFFFFFE
FFFFFFFFFE
FFFFFFFFFE
0007FFC000
0003FFC000
0003FF8000
0003FF8000
0001FF8000
0001FF8000
0001FF8000
0001FF8000
0001FF8000
0001FF8000
0001FF8000
0001FF8000
0001FF8000
0001FF8000
0001FF8000
0001FF8000
0001FF8000
0001FF8000
0001FF8000
ENDCHAR
STARTCHAR 00A6
ENCODING 166
SWIDTH 495 0
DWIDTH 33 0
BBX 8 58 13 -11
BITMAP
FF
FF
FF
FF
FF
FF
FF
FF
FF
FF
FF
FF
FF
FF
FF
FF
FF
FF
FF
FF
FF
FF
FF
FF
FF
00
00
00
00
00
00
00
00
00
FF
FF
FF
FF
FF
FF
FF
FF
FF
FF
FF
FF
FF
FF
FF
FF
FF
FF
FF
FF
FF
FF
FF
FF
ENDCHAR
STARTCHAR 00A7
ENCODING 167
SWIDTH 525 0
DWIDTH 35 0
BBX 29 52 4 -5
BITMAP
000FFFC0
01FFFFC0
07FFFFC0
1FFFFFC0
3FFFFFC0
3FFFFFC0
7FFFFFC0
7FFFFFC0
7FFFFFC0
FFFFFFC0
FFFC0000
FFF00000
7FE00000
7FF00000
7FF00000
3FFC0000
3FFF0000
1FFFC000
1FFFF000
3FFFFC00
7FFFFF00
7FFFFF80
FFFFFFC0
FF87FFE0
FF81FFF0
FFC07FF0
7FE01FF8
7FF81FF8
3FFE1FF8
3FFFFFF8
1FFFFFF0
07FFFFF0
03FFFFE0
007FFFC0
001FFF80
0007FFC0
0001FFE0
00007FF0
00003FF0
00003FF8
00007FF8
7FFFFFF8
7FFFFFF8
7FFFFFF8
7FFFFFF0
7FFFFFF0
7FFFFFE0
7FFFFFE0
7FFFFFC0
7FFFFF00
7FFFFC00
7FFFE000
ENDCHAR
STARTCHAR 00A8
ENCODING 168
SWIDTH 495 0
DWIDTH 33 0
BBX 20 9 7 38
BITMAP
3C0380
7E0FE0
FF0FE0
FF1FF0
FF1FF0
FF1FE0
FF0FE0
7E0FC0
000100
ENDCHAR
STARTCHAR 00A9
ENCODING 169
SWIDTH 825 0
DWIDTH 55 0
BBX 49 48 3 0
BITMAP
00003FFE000000
0001FFFFC00000
0007FFFFF00000
000FFFFFFC0000
003FF807FE0000
007F8000FF8000
00FE00003FC000
01FC00000FE000
03F0000007F000
07E0000003F000
0FC01FFC01F800
0F807FFF00FC00
1F80FFFFC07C00
1F01FFFFE03E00
3E03FF7FE03E00
3E03FC0FF01F00
3C07F807F01F00
7C07F007F80F00
7C0FF003F80F00
780FE000000F80
780FE000000F80
780FE000000780
F80FE000000780
F80FE000000780
F80FE000000780
F80FE000000780
780FE000000F80
780FE000000F80
780FE003F80F80
7C0FF003F80F00
7C07F007F80F00
3C07F807F01F00
3E03FC0FF01F00
3E03FFFFE03E00
1F01FFFFE03E00
1F80FFFFC07C00
0F807FFF00FC00
07C01FFC01F800
07E0000003F000
03F0000007F000
01FC00000FE000
00FE00003FC000
007FC000FF8000
003FF807FE0000
000FFFFFFC0000
0007FFFFF00000
0001FFFFC00000
00003FFE000000
ENDCHAR
STARTCHAR 00AA
ENCODING 170
SWIDTH 420 0
DWIDTH 28 0
BBX 25 24 1 23
BITMAP
00FF8000
03FFE000
07FFF800
1FFFFC00
1FFFFE00
3FFFFE00
7FFFFF00
7FE3FF00
7F80FF80
FF807F80
FF007F80
FF007F80
FF007F80
FF007F80
FF807F80
7FC07F80
7FFF7F80
7FFF7F80
3FFF7F80
1FFF7F80
0FFF7F80
07FF7F80
01FF7F80
003F0000
ENDCHAR
STARTCHAR 00AB
ENCODING 171
SWIDTH 540 0
DWIDTH 36 0
BBX 29 21 4 6
BITMAP
00FE07F8
01FC0FF0
03FC1FE0
07F81FC0
07F03F80
0FE07F80
1FE0FF00
3FC1FE00
7F81FC00
7F03F800
FE07F800
7F03F800
7F81FC00
3FC1FE00
1FE0FF00
0FE07F80
07F03F80
07F81FC0
03FC1FE0
01FC0FF0
00FE07F8
ENDCHAR
STARTCHAR 00AC
ENCODING 172
SWIDTH 825 0
DWIDTH 55 0
BBX 39 16 8 12
BITMAP
FFFFFFFFFE
FFFFFFFFFE
FFFFFFFFFE
FFFFFFFFFE
FFFFFFFFFE
FFFFFFFFFE
FFFFFFFFFE
00000000FE
00000000FE
00000000FE
00000000FE
00000000FE
00000000FE
00000000FE
00000000FE
00000000FE
ENDCHAR
STARTCHAR 00AD
ENCODING 173
SWIDTH 330 0
DWIDTH 22 0
BBX 18 9 2 12
BITMAP
FFFFC0
FFFFC0
FFFFC0
FFFFC0
FFFFC0
FFFFC0
FFFFC0
FFFFC0
FFFFC0
ENDCHAR
STARTCHAR 00AE
ENCODING 174
SWIDTH 825 0
DWIDTH 55 0
BBX 49 48 3 0
BITMAP
00003FFE000000
0001FFFFC00000
0007FFFFF00000
000FFFFFFC0000
003FF007FF0000
007F8000FF8000
00FE00003FC000
01F800000FE000
03F0000007F000
07E0000003F000
0FC3FFFC01F800
0F83FFFF80FC00
1F03FFFFC07C00
1F03FFFFE03E00
3E03FFFFF03E00
3E03FC0FF01F00
3C03FC07F81F00
7C03FC07F80F00
7C03FC07F80F00
7803FC07F80F80
7803FC07F00F80
7803FC1FF00780
F803FFFFE00780
F803FFFFC00780
F803FFFF800780
F803FFFE000780
7803FCFF000F80
7803FC7F000F80
7803FC7F800F80
7C03FC7F800F00
7C03FC3FC00F00
3C03FC3FC01F00
3E03FC1FE01F00
3E03FC1FE03E00
1F03FC0FF03E00
1F83FC0FF07C00
0F83FC07F8FC00
07C0000001F800
07E0000003F000
03F0000007F000
01FC00000FE000
00FE00003FC000
007F8000FF8000
003FF807FE0000
000FFFFFFC0000
0007FFFFF00000
0001FFFFC00000
00003FFE000000
ENDCHAR
STARTCHAR 00AF
ENCODING 175
SWIDTH 495 0
DWIDTH 33 0
BBX 19 5 7 40
BITMAP
FFFFE0
FFFFE0
FFFFE0
FFFFE0
FFFFE0
ENDCHAR
STARTCHAR 00B0
ENCODING 176
SWIDTH 315 0
DWIDTH 21 0
BBX 20 20 1 27
BITMAP
00F000
07FE00
0FFF00
1FFF80
3FFFC0
7F0FE0
7C03E0
F801F0
F801F0
F801F0
F801F0
F801F0
F801F0
FC03F0
7E07E0
7F9FE0
3FFFC0
1FFF80
0FFF00
07FC00
ENDCHAR
STARTCHAR 00B1
ENCODING 177
SWIDTH 825 0
DWIDTH 55 0
BBX 39 41 8 -1
BITMAP
0000FF0000
0000FF0000
0000FF0000
0000FF0000
0000FF0000
0000FF0000
0000FF0000
0000FF0000
0000FF0000
0000FF0000
FFFFFFFFFE
FFFFFFFFFE
FFFFFFFFFE
FFFFFFFFFE
FFFFFFFFFE
FFFFFFFFFE
FFFFFFFFFE
FFFFFFFFFE
0000FF0000
0000FF0000
0000FF0000
0000FF0000
0000FF0000
0000FF0000
0000FF0000
0000FF0000
0000FF0000
0000FF0000
0000000000
0000000000
0000000000
0000000000
0000000000
FFFFFFFFFE
FFFFFFFFFE
FFFFFFFFFE
FFFFFFFFFE
FFFFFFFFFE
FFFFFFFFFE
FFFFFFFFFE
FFFFFFFFFE
ENDCHAR
STARTCHAR 00B2
ENCODING 178
SWIDTH 360 0
DWIDTH 24 0
BBX 21 28 2 19
BITMAP
03FC00
0FFF00
1FFFC0
3FFFE0
7FFFE0
7FFFF0
FF8FF0
FF07F0
FE07F0
FE07F0
FF0FF0
7F9FF0
7F3FE0
3E7FC0
1CFFC0
09FF80
03FF00
07FE00
0FFC00
1FF000
3FE000
7FC000
FFFFF8
FFFFF8
FFFFF8
FFFFF8
FFFFF8
7FFFF8
ENDCHAR
STARTCHAR 00B3
ENCODING 179
SWIDTH 360 0
DWIDTH 24 0
BBX 21 28 2 19
BITMAP
7FFC00
7FFFC0
7FFFE0
7FFFE0
7FFFF0
7FFFF0
7FFFE0
003FE0
007FC0
00FF00
01FE00
03FC00
07FF00
07FFC0
07FFE0
07FFF0
001FF0
0007F8
0003F8
0003F8
0007F8
000FF8
FFFFF0
FFFFF0
FFFFE0
FFFFE0
FFFF80
FFFF00
ENDCHAR
STARTCHAR 00B4
ENCODING 180
SWIDTH 495 0
DWIDTH 33 0
BBX 14 12 12 37
BITMAP
03FC
07F8
07F0
0FE0
0FE0
1FC0
3F80
3F00
7E00
7C00
FC00
F800
ENDCHAR
STARTCHAR 00B5
ENCODING 181
SWIDTH 630 0
DWIDTH 42 0
BBX 42 49 -1 -14
BITMAP
01FFE003FFC0
01FFE003FFC0
01FFC003FFC0
01FFC003FF80
03FFC003FF80
03FFC007FF80
03FFC007FF80
03FFC007FF80
03FFC007FF80
03FF8007FF00
03FF8007FF00
07FF800FFF00
07FF800FFF00
07FF800FFF00
07FF800FFF00
07FF800FFE00
07FF000FFE00
0FFF000FFE00
0FFF001FFE00
0FFF001FFE00
0FFF001FFE00
0FFF001FFE00
0FFF003FFC00
1FFF003FFC00
1FFF007FFC00
1FFF80FFFC00
1FFFC1FFFC00
1FFFFFFFFC00
1FFFFFFFF800
1FFFFFFFF800
3FFFFFFFF800
3FFFFFFFF800
3FFFFFBFF800
3FF9FFBFF800
3FF8FE3FF000
3FF800000000
7FF800000000
7FF800000000
7FF800000000
7FF000000000
7FF000000000
7FF000000000
7FF000000000
FFF000000000
FFF000000000
FFF000000000
FFE000000000
FFE000000000
FFE000000000
ENDCHAR
STARTCHAR 00B6
ENCODING 182
SWIDTH 495 0
DWIDTH 33 0
BBX 31 48 1 0
BITMAP
00FFFFFE
07FFFFFE
0FFFFFFE
1FFFFFFE
3FFF83F0
7FFF83F0
7FFF83F0
FFFF83F0
FFFF83F0
FFFF83F0
FFFF83F0
FFFF83F0
FFFF83F0
FFFF83F0
FFFF83F0
7FFF83F0
7FFF83F0
3FFF83F0
3FFF83F0
1FFF83F0
07FF83F0
01FF83F0
000F83F0
000F83F0
000F83F0
000F83F0
000F83F0
000F83F0
000F83F0
000F83F0
000F83F0
000F83F0
000F83F0
000F83F0
000F83F0
000F83F0
000F83F0
000F83F0
000F83F0
000F83F0
000F83F0
000F83F0
000F83F0
000F83F0
000F83F0
000F83F0
000F83F0
000F83F0
ENDCHAR
STARTCHAR 00B7
ENCODING 183
SWIDTH 270 0
DWIDTH 18 0
BBX 13 14 3 17
BITMAP
0200
1FC0
3FE0
7FF0
FFF8
FFF8
FFF8
FFF8
FFF8
FFF8
7FF0
7FE0
3FC0
0700
ENDCHAR
STARTCHAR 00B8
ENCODING 184
SWIDTH 495 0
DWIDTH 33 0
BBX 17 20 9 -16
BITMAP
00E000
01E000
01E000
01C000
01C000
01C000
03C000
03FC00
03FF00
03FF00
03FF80
001F80
000F80
000F80
C01F80
FF7F80
FFFF80
FFFF00
7FFE00
01C000
ENDCHAR
STARTCHAR 00B9
ENCODING 185
SWIDTH 360 0
DWIDTH 24 0
BBX 12 28 6 19
BITMAP
FFF0
FFF0
FFF0
FFF0
FFF0
FFF0
FFF0
07F0
07F0
07F0
07F0
07F0
07F0
07F0
07F0
07F0
07F0
07F0
07F0
07F0
07F0
07F0
07F0
07F0
07F0
07F0
07F0
07F0
ENDCHAR
STARTCHAR 00BA
ENCODING 186
SWIDTH 405 0
DWIDTH 27 0
BBX 25 24 1 23
BITMAP
007F8000
03FFE000
07FFF800
0FFFFC00
1FFFFE00
3FFFFE00
3FFFFF00
7FE1FF00
7FC0FF80
FF807F80
FF007F80
FF007F80
FF007F80
FF807F80
7F807F80
7FC0FF80
7FFFFF00
3FFFFF00
3FFFFE00
1FFFFE00
0FFFFC00
07FFF000
01FFE000
007F0000
ENDCHAR
STARTCHAR 00BB
ENCODING 187
SWIDTH 540 0
DWIDTH 36 0
BBX 28 21 4 6
BITMAP
FE07F000
FF03F800
7F83FC00
3F81FE00
1FC0FF00
0FE07F00
0FF03F80
07F83FC0
03F81FE0
01FC0FF0
01FE07F0
01FC0FE0
03F81FE0
07F83FC0
0FF03F80
0FE07F00
1FC0FF00
3F81FE00
7F83FC00
FF03F800
FE07F000
ENDCHAR
STARTCHAR 00BC
ENCODING 188
SWIDTH 870 0
DWIDTH 58 0
BBX 52 47 6 0
BITMAP
FFE000007F0000
FFE000007E0000
FFE00000FE0000
FFE00000FC0000
FFE00001FC0000
FFE00003F80000
0FE00003F00000
0FE00007F00000
0FE00007E00000
0FE0000FE00000
0FE0000FC00000
0FE0001FC00000
0FE0003F800000
0FE0003F000000
0FE0007F000000
0FE0007E000000
0FE000FE000000
0FE000FC000000
0FE001FC000000
0FE003F8000000
0FE003F0000000
0FE007F001FD00
0FE007E003F900
0FE00FE003FB00
0FE00FC007F300
0FE01FC00FE700
0FE03F800FEF00
00003F001FCF00
00007F001F9F00
00007E003FBF00
0000FE007F3F00
0000FC007E3F00
0001F800FE3F00
0003F801FC3F00
0003F001FC3F00
0007F003F83F00
0007E003FFFFF0
000FE003FFFFF0
001FC003FFFFF0
001F8003FFFFF0
003F8001FFFFF0
003F00007FFFF0
007F0000003F00
007E0000003F00
00FE0000003F00
01FC0000003F00
01F80000003F00
ENDCHAR
STARTCHAR 00BD
ENCODING 189
SWIDTH 870 0
DWIDTH 58 0
BBX 51 47 6 0
BITMAP
FFE000007F0000
FFE000007E0000
FFE00000FE0000
FFE00000FC0000
FFE00001FC0000
FFE00003F80000
0FE00003F00000
0FE00007F00000
0FE00007E00000
0FE0000FE00000
0FE0000FC00000
0FE0001FC00000
0FE0003F800000
0FE0003F000000
0FE0007F000000
0FE0007E000000
0FE000FE000000
0FE000FC000000
0FE001FC000000
0FE003F8000000
0FE003F000C000
0FE007F00FFC00
0FE007E03FFE00
0FE00FE07FFF00
0FE00FC0FFFF80
0FE01FC0FFFFC0
0FE03F81FE3FC0
00003F01FC1FC0
00007F01FC1FC0
00007E01FC1FC0
0000FE01FE3FC0
0000FC01FE7F80
0001F800FCFF80
0003F80079FF00
0003F00033FE00
0007F00007FC00
0007E0000FF800
000FE0001FF000
001FC0003FE000
001F80007FC000
003F8000FF8000
003F0001FFFFE0
007F0001FFFFE0
007E0001FFFFE0
00FE0001FFFFE0
01FC0001FFFFE0
01F80000FFFFE0
ENDCHAR
STARTCHAR 00BE
ENCODING 190
SWIDTH 870 0
DWIDTH 58 0
BBX 56 47 2 0
BITMAP
7FF8000007F000
7FFF800007E000
7FFFC0000FE000
7FFFC0000FC000
7FFFE0001FC000
7FFFE0003F8000
003FC0003F0000
007F80007F0000
00FF00007E0000
01FE0000FE0000
03FC0000FC0000
0FFE0001FC0000
0FFF8003F80000
0FFFC003F00000
0FFFE007F00000
001FE007E00000
0007F00FE00000
0007F00FC00000
0007F01FC00000
000FF03F800000
FFFFF03F000000
FFFFE07F001FD0
FFFFE07E003F90
FFFFC0FE003FB0
FFFF80FC007F30
FFFE01FC00FE70
FFC003F800FEF0
000003F001FCF0
000007F001F9F0
000007E003FBF0
00000FE007F3F0
00000FC007E3F0
00001F800FE3F0
00003F801FC3F0
00003F001FC3F0
00007F003F83F0
00007E003FFFFF
0000FE003FFFFF
0001FC003FFFFF
0001F8003FFFFF
0003F8001FFFFF
0003F00007FFFF
0007F0000003F0
0007E0000003F0
000FE0000003F0
001FC0000003F0
001F80000003F0
ENDCHAR
STARTCHAR 00BF
ENCODING 191
SWIDTH 510 0
DWIDTH 34 0
BBX 31 48 2 -1
BITMAP
0007E000
001FF800
001FFC00
003FFC00
003FFC00
007FFE00
007FFE00
007FFE00
003FFC00
003FFC00
001FF800
000FF000
0003C000
00000000
00000000
001FFC00
001FFC00
001FFC00
001FFC00
001FFC00
00FFFC00
03FFFC00
0FFFFC00
1FFFFC00
1FFFFC00
3FFFFC00
7FFFFC00
7FFFFC00
7FFFFC00
FFFC0000
FFF80000
FFF00000
FFF00000
FFF00600
FFF00FE0
FFF00FFE
7FF81FFE
7FFFFFFE
7FFFFFFC
3FFFFFFC
3FFFFFF8
1FFFFFF8
1FFFFFF0
0FFFFFE0
03FFFFC0
01FFFF80
007FFE00
000FF000
ENDCHAR
STARTCHAR 00C0
ENCODING 192
SWIDTH 615 0
DWIDTH 41 0
BBX 36 63 3 0
BITMAP
007F800000
003FC00000
003FC00000
001FE00000
000FE00000
0007F00000
0003F00000
0001F80000
0000F80000
0000FC0000
00007C0000
00003E0000
0000000000
0000000000
0000000000
0000000000
000FFF0000
007FFFC000
00FFFFF000
03FFFFF800
07FFFFFC00
0FFFFFFE00
0FFFFFFF00
1FFFFFFF80
3FFFFFFF80
3FFFFFFFC0
3FFFFFFFC0
7FFE07FFC0
7FFC03FFE0
7FF801FFE0
FFF001FFE0
FFF000FFE0
FFF000FFE0
FFF000FFF0
FFF000FFF0
FFF3FFFFF0
FFF3FFFFF0
FFF3FFFFF0
FFF3FFFFF0
FFF3FFFFF0
FFF3FFFFF0
FFF3FFFFF0
FFF3FFFFF0
FFF3FFFFF0
FFF3FFFFF0
FFF3FFFFF0
FFF000FFF0
FFF000FFF0
FFF000FFF0
FFF000FFF0
FFF000FFF0
FFF000FFF0
FFF000FFF0
FFF000FFF0
FFF000FFF0
FFF000FFF0
FFF000FFF0
FFF000FFF0
FFF000FFF0
FFF000FFF0
FFF000FFF0
FFF000FFF0
FFF000FFF0
ENDCHAR
STARTCHAR 00C1
ENCODING 193
SWIDTH 615 0
DWIDTH 41 0
BBX 36 63 3 0
BITMAP
00001FE000
00003FC000
00003F8000
00007F0000
00007F0000
0000FE0000
0000FC0000
0001F80000
0003F00000
0003E00000
0007E00000
0007C00000
0000000000
0000000000
0000000000
0000000000
000FFF0000
007FFFC000
00FFFFF000
03FFFFF800
07FFFFFC00
0FFFFFFE00
0FFFFFFF00
1FFFFFFF80
3FFFFFFF80
3FFFFFFFC0
3FFFFFFFC0
7FFE07FFC0
7FFC03FFE0
7FF801FFE0
FFF001FFE0
FFF000FFE0
FFF000FFE0
FFF000FFF0
FFF000FFF0
FFF3FFFFF0
FFF3FFFFF0
FFF3FFFFF0
FFF3FFFFF0
FFF3FFFFF0
FFF3FFFFF0
FFF3FFFFF0
FFF3FFFFF0
FFF3FFFFF0
FFF3FFFFF0
FFF3FFFFF0
FFF000FFF0
FFF000FFF0
FFF000FFF0
FFF000FFF0
FFF000FFF0
FFF000FFF0
FFF000FFF0
FFF000FFF0
FFF000FFF0
FFF000FFF0
FFF000FFF0
FFF000FFF0
FFF000FFF0
FFF000FFF0
FFF000FFF0
FFF000FFF0
FFF000FFF0
ENDCHAR
STARTCHAR 00C2
ENCODING 194
SWIDTH 615 0
DWIDTH 41 0
BBX 36 61 3 0
BITMAP
0003FC0000
0007FE0000
000FFE0000
000FFF0000
001FFF0000
001F9F8000
003F1F8000
003F0FC000
007E07C000
007C03E000
00F801E000
00F001F000
0000000000
0000000000
000FFF0000
007FFFC000
00FFFFF000
03FFFFF800
07FFFFFC00
0FFFFFFE00
0FFFFFFF00
1FFFFFFF80
3FFFFFFF80
3FFFFFFFC0
3FFFFFFFC0
7FFE07FFC0
7FFC03FFE0
7FF801FFE0
FFF001FFE0
FFF000FFE0
FFF000FFE0
FFF000FFF0
FFF000FFF0
FFF3FFFFF0
FFF3FFFFF0
FFF3FFFFF0
FFF3FFFFF0
FFF3FFFFF0
FFF3FFFFF0
FFF3FFFFF0
FFF3FFFFF0
FFF3FFFFF0
FFF3FFFFF0
FFF3FFFFF0
FFF000FFF0
FFF000FFF0
FFF000FFF0
FFF000FFF0
FFF000FFF0
FFF000FFF0
FFF000FFF0
FFF000FFF0
FFF000FFF0
FFF000FFF0
FFF000FFF0
FFF000FFF0
FFF000FFF0
FFF000FFF0
FFF000FFF0
FFF000FFF0
FFF000FFF0
ENDCHAR
STARTCHAR 00C3
ENCODING 195
SWIDTH 615 0
DWIDTH 41 0
BBX 36 61 3 0
BITMAP
000000F000
001FC0F000
003FFFE000
007FFFE000
007FFFC000
00FFFFC000
00F07F8000
00E0000000
0000000000
0000000000
0000000000
0000000000
0000000000
0000000000
000FFF0000
007FFFC000
00FFFFF000
03FFFFF800
07FFFFFC00
0FFFFFFE00
0FFFFFFF00
1FFFFFFF80
3FFFFFFF80
3FFFFFFFC0
3FFFFFFFC0
7FFE07FFC0
7FFC03FFE0
7FF801FFE0
FFF001FFE0
FFF000FFE0
FFF000FFE0
FFF000FFF0
FFF000FFF0
FFF3FFFFF0
FFF3FFFFF0
FFF3FFFFF0
FFF3FFFFF0
FFF3FFFFF0
FFF3FFFFF0
FFF3FFFFF0
FFF3FFFFF0
FFF3FFFFF0
FFF3FFFFF0
FFF3FFFFF0
FFF000FFF0
FFF000FFF0
FFF000FFF0
FFF000FFF0
FFF000FFF0
FFF000FFF0
FFF000FFF0
FFF000FFF0
FFF000FFF0
FFF000FFF0
FFF000FFF0
FFF000FFF0
FFF000FFF0
FFF000FFF0
FFF000FFF0
FFF000FFF0
FFF000FFF0
ENDCHAR
STARTCHAR 00C4
ENCODING 196
SWIDTH 615 0
DWIDTH 41 0
BBX 36 61 3 0
BITMAP
003C07C000
007F0FE000
00FF0FF000
00FF1FF000
00FF1FF000
00FF0FF000
007F0FE000
003E07C000
0000000000
0000000000
0000000000
0000000000
0000000000
0000000000
000FFF0000
007FFFC000
00FFFFF000
03FFFFF800
07FFFFFC00
0FFFFFFE00
0FFFFFFF00
1FFFFFFF80
3FFFFFFF80
3FFFFFFFC0
3FFFFFFFC0
7FFE07FFC0
7FFC03FFE0
7FF801FFE0
FFF001FFE0
FFF000FFE0
FFF000FFE0
FFF000FFF0
FFF000FFF0
FFF3FFFFF0
FFF3FFFFF0
FFF3FFFFF0
FFF3FFFFF0
FFF3FFFFF0
FFF3FFFFF0
FFF3FFFFF0
FFF3FFFFF0
FFF3FFFFF0
FFF3FFFFF0
FFF3FFFFF0
FFF000FFF0
FFF000FFF0
FFF000FFF0
FFF000FFF0
FFF000FFF0
FFF000FFF0
FFF000FFF0
FFF000FFF0
FFF000FFF0
FFF000FFF0
FFF000FFF0
FFF000FFF0
FFF000FFF0
FFF000FFF0
FFF000FFF0
FFF000FFF0
FFF000FFF0
ENDCHAR
STARTCHAR 00C5
ENCODING 197
SWIDTH 615 0
DWIDTH 41 0
BBX 36 64 3 0
BITMAP
0001F80000
0007FE0000
000FFF0000
001FFF8000
003FFF8000
003E0FC000
003C07C000
003C03C000
003C03C000
003C07C000
003E07C000
003F0FC000
001FFF8000
001FFF0000
000FFE0000
0003FC0000
0000000000
000FFF0000
007FFFC000
00FFFFF000
03FFFFF800
07FFFFFC00
0FFFFFFE00
0FFFFFFF00
1FFFFFFF80
3FFFFFFF80
3FFFFFFFC0
3FFFFFFFC0
7FFE07FFC0
7FFC03FFE0
7FF801FFE0
FFF001FFE0
FFF000FFE0
FFF000FFE0
FFF000FFF0
FFF000FFF0
FFF3FFFFF0
FFF3FFFFF0
FFF3FFFFF0
FFF3FFFFF0
FFF3FFFFF0
FFF3FFFFF0
FFF3FFFFF0
FFF3FFFFF0
FFF3FFFFF0
FFF3FFFFF0
FFF3FFFFF0
FFF000FFF0
FFF000FFF0
FFF000FFF0
FFF000FFF0
FFF000FFF0
FFF000FFF0
FFF000FFF0
FFF000FFF0
FFF000FFF0
FFF000FFF0
FFF000FFF0
FFF000FFF0
FFF000FFF0
FFF000FFF0
FFF000FFF0
FFF000FFF0
FFF000FFF0
ENDCHAR
STARTCHAR 00C6
ENCODING 198
SWIDTH 855 0
DWIDTH 57 0
BBX 52 47 3 0
BITMAP
000FFE00000030
007FFF80007FF0
00FFFFE003FFF0
03FFFFF01FFFF0
07FFFFFC7FFFF0
0FFFFFFEFFFFF0
0FFFFFFFFFFFF0
1FFFFFFFFFFFF0
3FFFFFFFFFFFF0
3FFFFFFFFFFFF0
3FFFFFFFFFFFF0
7FFE07FFFFF000
7FF803FFFF8000
7FF801FFFE0000
FFF001FFF80000
FFF000FFF00000
FFF000FFF00000
FFF000FFE00000
FFF000FFE00000
FFF3FFFFFFFFF0
FFF3FFFFFFFFF0
FFF3FFFFFFFFF0
FFF3FFFFFFFFF0
FFF3FFFFFFFFF0
FFF3FFFFFFFFF0
FFF3FFFFFFFFF0
FFF3FFFFFFFFF0
FFF3FFFFFFFFF0
FFF000FFE00000
FFF000FFE00000
FFF000FFE00000
FFF000FFF00000
FFF000FFF80000
FFF000FFFC0000
FFF000FFFF0000
FFF000FFFFC000
FFF000FFFFFFF0
FFF000FFFFFFF0
FFF000FFFFFFF0
FFF000FFFFFFF0
FFF000FFFFFFF0
FFF000FFFFFFF0
FFF000FFFFFFF0
FFF000FFFFFFF0
FFF000FFEFFFF0
FFF000FFE1FFF0
FFF000FFE00FF0
ENDCHAR
STARTCHAR 00C7
ENCODING 199
SWIDTH 495 0
DWIDTH 33 0
BBX 30 63 2 -16
BITMAP
0000005C
00003FFC
0003FFFC
000FFFFC
003FFFFC
007FFFFC
00FFFFFC
03FFFFFC
07FFFFFC
07FFFFFC
0FFFFFFC
1FFFFF00
1FFFE000
3FFF8000
3FFF0000
7FFE0000
7FFC0000
7FF80000
FFF80000
FFF00000
FFF00000
FFF00000
FFF00000
FFF00000
FFF00000
FFF00000
FFF00000
FFF00000
FFF80000
FFF80000
7FFC0000
7FFC0000
7FFE0000
3FFF8000
3FFFC000
1FFFFC00
0FFFFFFC
0FFFFFFC
07FFFFFC
03FFFFFC
01FFFFFC
00FFFFFC
003FFFFC
001FFFFC
0007FFFC
0000FFFC
000077FC
00007000
00007000
0000F000
0000FF00
0000FFC0
0000FFC0
0000FFE0
000007E0
000003E0
000003E0
003007E0
003FDFE0
003FFFE0
003FFFC0
001FFF80
00007000
ENDCHAR
STARTCHAR 00C8
ENCODING 200
SWIDTH 510 0
DWIDTH 34 0
BBX 30 63 2 0
BITMAP
001FE000
000FF000
000FF000
0007F800
0003F800
0001FC00
0000FC00
00007E00
00003E00
00003F00
00001F00
00000F80
00000000
00000000
00000000
00000000
0000005C
00003FFC
0003FFFC
000FFFFC
003FFFFC
007FFFFC
00FFFFFC
03FFFFFC
07FFFFFC
07FFFFFC
0FFFFFFC
1FFFFC00
1FFFE000
3FFF8000
3FFE0000
7FFC0000
7FFC0000
7FF80000
FFFFFFFC
FFFFFFFC
FFFFFFFC
FFFFFFFC
FFFFFFFC
FFFFFFFC
FFFFFFFC
FFFFFFFC
FFFFFFFC
FFFFFFFC
FFFFFFFC
FFF80000
7FF80000
7FFC0000
7FFE0000
3FFF0000
3FFFC000
1FFFF000
0FFFFFFC
0FFFFFFC
07FFFFFC
03FFFFFC
01FFFFFC
00FFFFFC
003FFFFC
001FFFFC
0007FFFC
0000FFFC
000007FC
ENDCHAR
STARTCHAR 00C9
ENCODING 201
SWIDTH 510 0
DWIDTH 34 0
BBX 30 63 2 0
BITMAP
000007F8
00000FF0
00000FE0
00001FC0
00001FC0
00003F80
00003F00
00007E00
0000FC00
0000F800
0001F800
0001F000
00000000
00000000
00000000
00000000
0000005C
00003FFC
0003FFFC
000FFFFC
003FFFFC
007FFFFC
00FFFFFC
03FFFFFC
07FFFFFC
07FFFFFC
0FFFFFFC
1FFFFC00
1FFFE000
3FFF8000
3FFE0000
7FFC0000
7FFC0000
7FF80000
FFFFFFFC
FFFFFFFC
FFFFFFFC
FFFFFFFC
FFFFFFFC
FFFFFFFC
FFFFFFFC
FFFFFFFC
FFFFFFFC
FFFFFFFC
FFFFFFFC
FFF80000
7FF80000
7FFC0000
7FFE0000
3FFF0000
3FFFC000
1FFFF000
0FFFFFFC
0FFFFFFC
07FFFFFC
03FFFFFC
01FFFFFC
00FFFFFC
003FFFFC
001FFFFC
0007FFFC
0000FFFC
000007FC
ENDCHAR
STARTCHAR 00CA
ENCODING 202
SWIDTH 510 0
DWIDTH 34 0
BBX 30 61 2 0
BITMAP
0001FF00
0001FF80
0003FF80
0003FFC0
0007FFC0
0007E7E0
000FC7E0
000FC3F0
001F81F0
001F00F8
003E0078
003C007C
00000000
00000000
0000005C
00003FFC
0003FFFC
000FFFFC
003FFFFC
007FFFFC
00FFFFFC
03FFFFFC
07FFFFFC
07FFFFFC
0FFFFFFC
1FFFFC00
1FFFE000
3FFF8000
3FFE0000
7FFC0000
7FFC0000
7FF80000
FFFFFFFC
FFFFFFFC
FFFFFFFC
FFFFFFFC
FFFFFFFC
FFFFFFFC
FFFFFFFC
FFFFFFFC
FFFFFFFC
FFFFFFFC
FFFFFFFC
FFF80000
7FF80000
7FFC0000
7FFE0000
3FFF0000
3FFFC000
1FFFF000
0FFFFFFC
0FFFFFFC
07FFFFFC
03FFFFFC
01FFFFFC
00FFFFFC
003FFFFC
001FFFFC
0007FFFC
0000FFFC
000007FC
ENDCHAR
STARTCHAR 00CB
ENCODING 203
SWIDTH 510 0
DWIDTH 34 0
BBX 30 61 2 0
BITMAP
000F01F0
001FC3F8
003FC3FC
003FC7FC
003FC7FC
003FC3FC
001FC3F8
000F81F0
00000000
00000000
00000000
00000000
00000000
00000000
0000005C
00003FFC
0003FFFC
000FFFFC
003FFFFC
007FFFFC
00FFFFFC
03FFFFFC
07FFFFFC
07FFFFFC
0FFFFFFC
1FFFFC00
1FFFE000
3FFF8000
3FFE0000
7FFC0000
7FFC0000
7FF80000
FFFFFFFC
FFFFFFFC
FFFFFFFC
FFFFFFFC
FFFFFFFC
FFFFFFFC
FFFFFFFC
FFFFFFFC
FFFFFFFC
FFFFFFFC
FFFFFFFC
FFF80000
7FF80000
7FFC0000
7FFE0000
3FFF0000
3FFFC000
1FFFF000
0FFFFFFC
0FFFFFFC
07FFFFFC
03FFFFFC
01FFFFFC
00FFFFFC
003FFFFC
001FFFFC
0007FFFC
0000FFFC
000007FC
ENDCHAR
STARTCHAR 00CC
ENCODING 204
SWIDTH 270 0
DWIDTH 18 0
BBX 15 63 0 0
BITMAP
FF80
7F80
3FC0
1FC0
0FE0
07E0
07F0
03F0
01F8
00F8
007C
003C
0000
0000
0000
0000
0FFE
0FFE
0FFE
0FFE
0FFE
0FFE
0FFE
0FFE
0FFE
0FFE
0FFE
0FFE
0FFE
0FFE
0FFE
0FFE
0FFE
0FFE
0FFE
0FFE
0FFE
0FFE
0FFE
0FFE
0FFE
0FFE
0FFE
0FFE
0FFE
0FFE
0FFE
0FFE
0FFE
0FFE
0FFE
0FFE
0FFE
0FFE
0FFE
0FFE
0FFE
0FFE
0FFE
0FFE
0FFE
0FFE
0FFE
ENDCHAR
STARTCHAR 00CD
ENCODING 205
SWIDTH 270 0
DWIDTH 18 0
BBX 15 63 4 0
BITMAP
03FE
03FC
07F8
07F0
0FE0
0FC0
1F80
1F80
3F00
7E00
7C00
F800
0000
0000
0000
0000
FFE0
FFE0
FFE0
FFE0
FFE0
FFE0
FFE0
FFE0
FFE0
FFE0
FFE0
FFE0
FFE0
FFE0
FFE0
FFE0
FFE0
FFE0
FFE0
FFE0
FFE0
FFE0
FFE0
FFE0
FFE0
FFE0
FFE0
FFE0
FFE0
FFE0
FFE0
FFE0
FFE0
FFE0
FFE0
FFE0
FFE0
FFE0
FFE0
FFE0
FFE0
FFE0
FFE0
FFE0
FFE0
FFE0
FFE0
ENDCHAR
STARTCHAR 00CE
ENCODING 206
SWIDTH 270 0
DWIDTH 18 0
BBX 20 63 -1 0
BITMAP
03FE00
03FE00
07FF00
07FF00
0FFF80
0FDF80
1F8FC0
1F0FC0
3F07E0
7E03E0
7C01F0
F800F0
000000
000000
000000
000000
07FF00
07FF00
07FF00
07FF00
07FF00
07FF00
07FF00
07FF00
07FF00
07FF00
07FF00
07FF00
07FF00
07FF00
07FF00
07FF00
07FF00
07FF00
07FF00
07FF00
07FF00
07FF00
07FF00
07FF00
07FF00
07FF00
07FF00
07FF00
07FF00
07FF00
07FF00
07FF00
07FF00
07FF00
07FF00
07FF00
07FF00
07FF00
07FF00
07FF00
07FF00
07FF00
07FF00
07FF00
07FF00
07FF00
07FF00
ENDCHAR
STARTCHAR 00CF
ENCODING 207
SWIDTH 270 0
DWIDTH 18 0
BBX 20 61 -1 0
BITMAP
1E03C0
7F07E0
7F8FF0
FF8FF0
FF8FF0
7F8FF0
7F07F0
3E03E0
000000
000000
000000
000000
000000
000000
07FF00
07FF00
07FF00
07FF00
07FF00
07FF00
07FF00
07FF00
07FF00
07FF00
07FF00
07FF00
07FF00
07FF00
07FF00
07FF00
07FF00
07FF00
07FF00
07FF00
07FF00
07FF00
07FF00
07FF00
07FF00
07FF00
07FF00
07FF00
07FF00
07FF00
07FF00
07FF00
07FF00
07FF00
07FF00
07FF00
07FF00
07FF00
07FF00
07FF00
07FF00
07FF00
07FF00
07FF00
07FF00
07FF00
07FF00
ENDCHAR
STARTCHAR 00D0
ENCODING 208
SWIDTH 645 0
DWIDTH 43 0
BBX 41 47 0 0
BITMAP
0FFF00000000
0FFFFF000000
0FFFFFE00000
0FFFFFF80000
0FFFFFFE0000
0FFFFFFF0000
0FFFFFFFC000
0FFFFFFFE000
0FFFFFFFE000
0FFFFFFFF000
0FFFFFFFF800
0FFE3FFFFC00
0FFE03FFFC00
0FFE00FFFE00
0FFE007FFE00
0FFE003FFF00
0FFE001FFF00
0FFE000FFF00
0FFE000FFF80
FFFFF807FF80
FFFFF807FF80
FFFFF807FF80
FFFFF807FF80
FFFFF807FF80
FFFFF807FF80
FFFFF807FF80
0FFE0007FF80
0FFE0007FF80
0FFE000FFF80
0FFE000FFF80
0FFE001FFF00
0FFE001FFF00
0FFE003FFF00
0FFE007FFE00
0FFE01FFFE00
0FFE0FFFFC00
0FFE7FFFF800
0FFE7FFFF800
0FFE7FFFF000
0FFE7FFFE000
0FFE7FFFC000
0FFE7FFF8000
0FFE7FFF0000
0FFE7FFC0000
0FFE7FF00000
0FFE7FC00000
0FFE7C000000
ENDCHAR
STARTCHAR 00D1
ENCODING 209
SWIDTH 660 0
DWIDTH 44 0
BBX 38 62 3 -1
BITMAP
0000007800
0007E07800
001FFFF000
003FFFF000
003FFFF000
007FFFE000
00783FC000
0078000000
0000000000
0000000000
0000000000
0000000000
0000000000
0300000000
0FE0003FFC
3FF8003FFC
3FFC003FFC
7FFC003FFC
7FFE003FFC
7FFF003FFC
FFFF003FFC
FFFF803FFC
FFFF803FFC
FFFFC03FFC
FFFFC03FFC
FFFFE03FFC
FFFFF03FFC
FFFFF03FFC
FFFFF83FFC
FFFFF83FFC
FFFFFC3FFC
FFFFFC3FFC
FFEFFE3FFC
FFEFFE1FFC
FFE7FF1FFC
FFE7FF1FFC
FFE3FF9FFC
FFE3FF9FFC
FFE1FFDFFC
FFE1FFDFFC
FFE0FFFFFC
FFF0FFFFFC
FFF07FFFFC
FFF03FFFFC
FFF03FFFFC
FFF01FFFFC
FFF01FFFFC
FFF00FFFFC
FFF00FFFFC
FFF007FFFC
FFF007FFFC
FFF003FFFC
FFF003FFFC
FFF001FFFC
FFF000FFFC
FFF000FFFC
FFF0007FFC
FFF0007FF8
FFF0003FF8
FFF0001FF0
FFF0000FE0
0000000380
ENDCHAR
STARTCHAR 00D2
ENCODING 210
SWIDTH 765 0
DWIDTH 51 0
BBX 48 64 2 -1
BITMAP
0001FE000000
0000FE000000
0000FF000000
00007F800000
00003F800000
00001FC00000
00000FC00000
000007E00000
000007E00000
000003F00000
000001F00000
000000F80000
000000000000
000000000000
000000000000
000000000000
00007FFE0000
0003FFFF8000
000FFFFFE000
001FFFFFF800
007FFFFFFC00
00FFFFFFFF00
01FFFFFFFF80
03FFFFFFFFC0
07FFFFFFFFC0
0FFFFFFFFFE0
0FFFFFFFFFF0
1FFFF81FFFF0
1FFFC003FFF8
3FFF8001FFFC
3FFE0000FFFC
7FFE00007FFC
7FFC00003FFE
7FF800003FFE
FFF800001FFE
FFF000001FFE
FFF000001FFE
FFF000000FFF
FFF000000FFF
FFF000000FFF
FFF000000FFF
FFF000000FFF
FFF000001FFF
FFF000001FFE
FFF800001FFE
7FF800003FFE
7FFC00003FFE
7FFC00007FFC
7FFE0000FFFC
3FFF0001FFFC
3FFFC003FFF8
1FFFF00FFFF8
1FFFFFFFFFF0
0FFFFFFFFFE0
07FFFFFFFFE0
03FFFFFFFFC0
01FFFFFFFF80
00FFFFFFFF00
007FFFFFFE00
003FFFFFFC00
000FFFFFF000
0007FFFFC000
0000FFFF0000
00000FE00000
ENDCHAR
STARTCHAR 00D3
ENCODING 211
SWIDTH 765 0
DWIDTH 51 0
BBX 48 64 2 -1
BITMAP
0000007F8000
000000FF0000
000000FE0000
000001FC0000
000001FC0000
000003F80000
000007F00000
000007E00000
00000FC00000
00000F800000
00001F800000
00001F000000
000000000000
000000000000
000000000000
000000000000
00007FFE0000
0003FFFF8000
000FFFFFE000
001FFFFFF800
007FFFFFFC00
00FFFFFFFF00
01FFFFFFFF80
03FFFFFFFFC0
07FFFFFFFFC0
0FFFFFFFFFE0
0FFFFFFFFFF0
1FFFF81FFFF0
1FFFC003FFF8
3FFF8001FFFC
3FFE0000FFFC
7FFE00007FFC
7FFC00003FFE
7FF800003FFE
FFF800001FFE
FFF000001FFE
FFF000001FFE
FFF000000FFF
FFF000000FFF
FFF000000FFF
FFF000000FFF
FFF000000FFF
FFF000001FFF
FFF000001FFE
FFF800001FFE
7FF800003FFE
7FFC00003FFE
7FFC00007FFC
7FFE0000FFFC
3FFF0001FFFC
3FFFC003FFF8
1FFFF00FFFF8
1FFFFFFFFFF0
0FFFFFFFFFE0
07FFFFFFFFE0
03FFFFFFFFC0
01FFFFFFFF80
00FFFFFFFF00
007FFFFFFE00
003FFFFFFC00
000FFFFFF000
0007FFFFC000
0000FFFF0000
00000FE00000
ENDCHAR
STARTCHAR 00D4
ENCODING 212
SWIDTH 765 0
DWIDTH 51 0
BBX 48 62 2 -1
BITMAP
00001FF00000
00001FF80000
00003FF80000
00003FFC0000
00007FFC0000
00007EFE0000
0000FC7E0000
0000F83F0000
0001F81F0000
0001F00F8000
0003E00F8000
0003C007C000
000000000000
000000000000
00007FFE0000
0003FFFF8000
000FFFFFE000
001FFFFFF800
007FFFFFFC00
00FFFFFFFF00
01FFFFFFFF80
03FFFFFFFFC0
07FFFFFFFFC0
0FFFFFFFFFE0
0FFFFFFFFFF0
1FFFF81FFFF0
1FFFC003FFF8
3FFF8001FFFC
3FFE0000FFFC
7FFE00007FFC
7FFC00003FFE
7FF800003FFE
FFF800001FFE
FFF000001FFE
FFF000001FFE
FFF000000FFF
FFF000000FFF
FFF000000FFF
FFF000000FFF
FFF000000FFF
FFF000001FFF
FFF000001FFE
FFF800001FFE
7FF800003FFE
7FFC00003FFE
7FFC00007FFC
7FFE0000FFFC
3FFF0001FFFC
3FFFC003FFF8
1FFFF00FFFF8
1FFFFFFFFFF0
0FFFFFFFFFE0
07FFFFFFFFE0
03FFFFFFFFC0
01FFFFFFFF80
00FFFFFFFF00
007FFFFFFE00
003FFFFFFC00
000FFFFFF000
0007FFFFC000
0000FFFF0000
00000FE00000
ENDCHAR
STARTCHAR 00D5
ENCODING 213
SWIDTH 765 0
DWIDTH 51 0
BBX 48 62 2 -1
BITMAP
00000003C000
00007F03C000
0000FFFF8000
0001FFFF8000
0001FFFF0000
0003FFFF0000
0003C1FC0000
000380000000
000000000000
000000000000
000000000000
000000000000
000000000000
000000000000
00007FFE0000
0003FFFF8000
000FFFFFE000
001FFFFFF800
007FFFFFFC00
00FFFFFFFF00
01FFFFFFFF80
03FFFFFFFFC0
07FFFFFFFFC0
0FFFFFFFFFE0
0FFFFFFFFFF0
1FFFF81FFFF0
1FFFC003FFF8
3FFF8001FFFC
3FFE0000FFFC
7FFE00007FFC
7FFC00003FFE
7FF800003FFE
FFF800001FFE
FFF000001FFE
FFF000001FFE
FFF000000FFF
FFF000000FFF
FFF000000FFF
FFF000000FFF
FFF000000FFF
FFF000001FFF
FFF000001FFE
FFF800001FFE
7FF800003FFE
7FFC00003FFE
7FFC00007FFC
7FFE0000FFFC
3FFF0001FFFC
3FFFC003FFF8
1FFFF00FFFF8
1FFFFFFFFFF0
0FFFFFFFFFE0
07FFFFFFFFE0
03FFFFFFFFC0
01FFFFFFFF80
00FFFFFFFF00
007FFFFFFE00
003FFFFFFC00
000FFFFFF000
0007FFFFC000
0000FFFF0000
00000FE00000
ENDCHAR
STARTCHAR 00D6
ENCODING 214
SWIDTH 765 0
DWIDTH 51 0
BBX 48 62 2 -1
BITMAP
0000F01F0000
0001F83F8000
0003FC3F8000
0003FC7FC000
0003FC7FC000
0003FC7FC000
0001FC3F8000
0000F81F0000
000000000000
000000000000
000000000000
000000000000
000000000000
000000000000
00007FFE0000
0003FFFF8000
000FFFFFE000
001FFFFFF800
007FFFFFFC00
00FFFFFFFF00
01FFFFFFFF80
03FFFFFFFFC0
07FFFFFFFFC0
0FFFFFFFFFE0
0FFFFFFFFFF0
1FFFF81FFFF0
1FFFC003FFF8
3FFF8001FFFC
3FFE0000FFFC
7FFE00007FFC
7FFC00003FFE
7FF800003FFE
FFF800001FFE
FFF000001FFE
FFF000001FFE
FFF000000FFF
FFF000000FFF
FFF000000FFF
FFF000000FFF
FFF000000FFF
FFF000001FFF
FFF000001FFE
FFF800001FFE
7FF800003FFE
7FFC00003FFE
7FFC00007FFC
7FFE0000FFFC
3FFF0001FFFC
3FFFC003FFF8
1FFFF00FFFF8
1FFFFFFFFFF0
0FFFFFFFFFE0
07FFFFFFFFE0
03FFFFFFFFC0
01FFFFFFFF80
00FFFFFFFF00
007FFFFFFE00
003FFFFFFC00
000FFFFFF000
0007FFFFC000
0000FFFF0000
00000FE00000
ENDCHAR
STARTCHAR 00D7
ENCODING 215
SWIDTH 825 0
DWIDTH 55 0
BBX 39 39 9 1
BITMAP
0C00000060
1E000000F0
3F000001F8
7F800003FC
FFC00007FE
FFE0000FFC
7FF0001FF8
3FF8003FF0
1FFC007FE0
0FFE00FFC0
07FF01FF80
03FF83FF00
01FFC7FE00
00FFEFFC00
007FFFF800
003FFFF000
001FFFE000
000FFFC000
0007FF8000
0003FF8000
0007FFC000
000FFFE000
001FFFF000
003FFFF800
007FFFFC00
00FFCFFE00
01FF87FF00
03FF03FF80
07FE01FFC0
0FFC00FFE0
1FF8007FF0
3FF0003FF8
7FE0001FFC
FFC0000FFE
7F800007FC
3F000003F8
1E000001F0
0C000000E0
0000000040
ENDCHAR
STARTCHAR 00D8
ENCODING 216
SWIDTH 765 0
DWIDTH 51 0
BBX 48 52 2 -2
BITMAP
000000000070
000000000078
00007FFC00FC
0003FFFF81FE
000FFFFFE3FE
001FFFFFFFFC
007FFFFFFFF8
00FFFFFFFFF0
01FFFFFFFFE0
03FFFFFFFFC0
07FFFFFFFFC0
0FFFFFFFFFE0
0FFFFFFFFFF0
1FFFF00FFFF0
3FFF8007FFF8
3FFF000FFFF8
3FFE000FFFFC
7FFC001FFFFC
7FF8003FFFFE
7FF8007F9FFE
FFF000FF1FFE
FFF001FE1FFE
FFF003FC0FFE
FFF007FC0FFF
FFF00FF80FFF
FFE00FF00FFF
FFF01FE00FFF
FFF03FC00FFF
FFF07F800FFF
FFF0FF000FFE
FFF1FE001FFE
7FFBFC001FFE
7FFFFC003FFE
7FFFF8003FFC
7FFFF0007FFC
3FFFE000FFFC
3FFFC003FFF8
1FFFE007FFF8
1FFFFFFFFFF0
0FFFFFFFFFE0
07FFFFFFFFE0
07FFFFFFFFC0
0FFFFFFFFF80
1FFFFFFFFF00
1FFFFFFFFE00
3FFFFFFFFC00
7FCFFFFFF000
FF83FFFFC000
7F00FFFF0000
3E000FE00000
1C0000000000
080000000000
ENDCHAR
STARTCHAR 00D9
ENCODING 217
SWIDTH 615 0
DWIDTH 41 0
BBX 36 64 3 -1
BITMAP
007F800000
003FC00000
003FC00000
001FE00000
000FE00000
0007F00000
0003F00000
0001F80000
0000F80000
0000FC0000
00007C0000
00003E0000
0000000000
0000000000
0000000000
0000000000
FFF000FFF0
FFF000FFF0
FFF000FFF0
FFF000FFF0
FFF000FFF0
FFF000FFF0
FFF000FFF0
FFF000FFF0
FFF000FFF0
FFF000FFF0
FFF000FFF0
FFF000FFF0
FFF000FFF0
FFF000FFF0
FFF000FFF0
FFF000FFF0
FFF000FFF0
FFF000FFF0
FFF000FFF0
FFF000FFF0
FFF000FFF0
FFF000FFF0
FFF000FFF0
FFF000FFF0
FFF000FFF0
FFF000FFF0
FFF000FFF0
FFF000FFF0
FFF000FFF0
FFF000FFE0
FFF000FFE0
FFF000FFE0
FFF001FFE0
7FF801FFE0
7FF803FFE0
7FFC07FFE0
7FFFFFFFC0
3FFFFFFFC0
3FFFFFFF80
1FFFFFFF80
1FFFFFFF00
0FFFFFFE00
07FFFFFE00
03FFFFFC00
01FFFFF800
007FFFE000
001FFF8000
0003F80000
ENDCHAR
STARTCHAR 00DA
ENCODING 218
SWIDTH 615 0
DWIDTH 41 0
BBX 36 64 3 -1
BITMAP
00001FE000
00003FC000
00003F8000
00007F0000
00007F0000
0000FE0000
0000FC0000
0001F80000
0003F00000
0003E00000
0007E00000
0007C00000
0000000000
0000000000
0000000000
0000000000
FFF000FFF0
FFF000FFF0
FFF000FFF0
FFF000FFF0
FFF000FFF0
FFF000FFF0
FFF000FFF0
FFF000FFF0
FFF000FFF0
FFF000FFF0
FFF000FFF0
FFF000FFF0
FFF000FFF0
FFF000FFF0
FFF000FFF0
FFF000FFF0
FFF000FFF0
FFF000FFF0
FFF000FFF0
FFF000FFF0
FFF000FFF0
FFF000FFF0
FFF000FFF0
FFF000FFF0
FFF000FFF0
FFF000FFF0
FFF000FFF0
FFF000FFF0
FFF000FFF0
FFF000FFE0
FFF000FFE0
FFF000FFE0
FFF001FFE0
7FF801FFE0
7FF803FFE0
7FFC07FFE0
7FFFFFFFC0
3FFFFFFFC0
3FFFFFFF80
1FFFFFFF80
1FFFFFFF00
0FFFFFFE00
07FFFFFE00
03FFFFFC00
01FFFFF800
007FFFE000
001FFF8000
0003F80000
ENDCHAR
STARTCHAR 00DB
ENCODING 219
SWIDTH 615 0
DWIDTH 41 0
BBX 36 64 3 -1
BITMAP
0003FC0000
0007FE0000
0007FE0000
000FFF0000
000FFF0000
001FBF8000
001F9F8000
003F0FC000
007E07C000
007C07E000
00F803E000
00F801F000
0000000000
0000000000
0000000000
0000000000
FFF000FFF0
FFF000FFF0
FFF000FFF0
FFF000FFF0
FFF000FFF0
FFF000FFF0
FFF000FFF0
FFF000FFF0
FFF000FFF0
FFF000FFF0
FFF000FFF0
FFF000FFF0
FFF000FFF0
FFF000FFF0
FFF000FFF0
FFF000FFF0
FFF000FFF0
FFF000FFF0
FFF000FFF0
FFF000FFF0
FFF000FFF0
FFF000FFF0
FFF000FFF0
FFF000FFF0
FFF000FFF0
FFF000FFF0
FFF000FFF0
FFF000FFF0
FFF000FFF0
FFF000FFE0
FFF000FFE0
FFF000FFE0
FFF001FFE0
7FF801FFE0
7FF803FFE0
7FFC07FFE0
7FFFFFFFC0
3FFFFFFFC0
3FFFFFFF80
1FFFFFFF80
1FFFFFFF00
0FFFFFFE00
07FFFFFE00
03FFFFFC00
01FFFFF800
007FFFE000
001FFF8000
0003F80000
ENDCHAR
STARTCHAR 00DC
ENCODING 220
SWIDTH 615 0
DWIDTH 41 0
BBX 36 62 3 -1
BITMAP
003C07C000
007F0FE000
00FF0FF000
00FF1FF000
00FF1FF000
00FF0FF000
007F0FE000
003E07C000
0000000000
0000000000
0000000000
0000000000
0000000000
0000000000
FFF000FFF0
FFF000FFF0
FFF000FFF0
FFF000FFF0
FFF000FFF0
FFF000FFF0
FFF000FFF0
FFF000FFF0
FFF000FFF0
FFF000FFF0
FFF000FFF0
FFF000FFF0
FFF000FFF0
FFF000FFF0
FFF000FFF0
FFF000FFF0
FFF000FFF0
FFF000FFF0
FFF000FFF0
FFF000FFF0
FFF000FFF0
FFF000FFF0
FFF000FFF0
FFF000FFF0
FFF000FFF0
FFF000FFF0
FFF000FFF0
FFF000FFF0
FFF000FFF0
FFF000FFE0
FFF000FFE0
FFF000FFE0
FFF001FFE0
7FF801FFE0
7FF803FFE0
7FFC07FFE0
7FFFFFFFC0
3FFFFFFFC0
3FFFFFFF80
1FFFFFFF80
1FFFFFFF00
0FFFFFFE00
07FFFFFE00
03FFFFFC00
01FFFFF800
007FFFE000
001FFF8000
0003F80000
ENDCHAR
STARTCHAR 00DD
ENCODING 221
SWIDTH 555 0
DWIDTH 37 0
BBX 32 63 3 0
BITMAP
00007F80
0000FF00
0000FE00
0001FE00
0001FC00
0003F800
0003F000
0007E000
0007C000
000FC000
000F8000
001F0000
00000000
00000000
00000000
00000000
FFE007FF
FFE007FF
FFE007FF
FFE007FF
FFE007FF
FFE007FF
FFE007FF
FFE007FF
FFE007FF
FFE007FF
FFE007FF
FFE007FF
FFE007FF
FFE007FF
FFE007FF
FFE007FF
FFE007FF
FFF00FFF
FFF00FFF
FFF81FFF
7FFC3FFE
7FFFFFFE
7FFFFFFE
3FFFFFFC
3FFFFFFC
1FFFFFF8
0FFFFFF0
07FFFFE0
03FFFFC0
00FFFF00
007FFE00
003FFC00
003FFC00
003FFC00
003FFC00
003FFC00
003FFC00
003FFC00
003FFC00
003FFC00
003FFC00
003FFC00
003FFC00
003FFC00
003FFC00
003FFC00
003FFC00
ENDCHAR
STARTCHAR 00DE
ENCODING 222
SWIDTH 570 0
DWIDTH 38 0
BBX 34 47 3 0
BITMAP
FFF0000000
FFF0000000
FFF0000000
FFF0000000
FFF0000000
FFF0000000
FFFFFC0000
FFFFFF8000
FFFFFFC000
FFFFFFF000
FFFFFFF800
FFFFFFFC00
FFFFFFFE00
FFFFFFFE00
FFFFFFFF00
FFFFFFFF00
FFFFFFFF80
FFFC1FFF80
FFF807FF80
FFF007FFC0
FFF003FFC0
FFF003FFC0
FFF003FFC0
FFF003FFC0
FFF007FFC0
FFF007FF80
FFF01FFF80
FFF3FFFF80
FFF3FFFF80
FFF3FFFF00
FFF3FFFF00
FFF3FFFE00
FFF3FFFC00
FFF3FFF800
FFF3FFF000
FFF3FFC000
FFF3FF8000
FFF3FC0000
FFF0000000
FFF0000000
FFF0000000
FFF0000000
FFF0000000
FFF0000000
FFF0000000
FFF0000000
FFF0000000
ENDCHAR
STARTCHAR 00DF
ENCODING 223
SWIDTH 585 0
DWIDTH 39 0
BBX 38 47 0 0
BITMAP
000FFC0000
003FFF8000
00FFFFE000
01FFFFF000
03FFFFF800
03FFFFFC00
07FFFFFC00
07FFFFFE00
0FFFFFFE00
0FFF0FFE00
0FFE0FFE00
0FFC07FE00
0FFC07FE00
0FFC0FFE00
FFFC0FFC00
FFFC0FFC00
FFFC1FF800
FFFC3FF000
FFFC3FF000
FFFC7FF800
FFFC7FFE00
FFFC7FFF00
FFFC3FFF80
FFFC1FFFC0
0FFC07FFE0
0FFC03FFF0
0FFC01FFF0
0FFC00FFF8
0FFC007FF8
0FFC003FF8
0FFC001FFC
0FFC001FFC
0FFC001FFC
0FFC001FFC
0FFC001FFC
0FFC001FFC
0FFC003FFC
0FFCFFFFF8
0FFCFFFFF8
0FFCFFFFF8
0FFCFFFFF0
0FFCFFFFF0
0FFCFFFFE0
0FFCFFFFC0
0FFCFFFF00
0FFCFFFC00
0FFCFFE000
ENDCHAR
STARTCHAR 00E0
ENCODING 224
SWIDTH 555 0
DWIDTH 37 0
BBX 33 49 2 0
BITMAP
01FF000000
00FF000000
007F800000
003F800000
001FC00000
000FC00000
000FE00000
0007E00000
0003F00000
0001F00000
0000F80000
00007C0000
0000000000
0000000000
0000000000
0003C00000
003FFE0000
00FFFF8000
03FFFFC000
07FFFFE000
0FFFFFF000
1FFFFFF800
3FFFFFFC00
3FFFFFFE00
7FFFFFFE00
7FFFFFFF00
FFF81FFF00
FFF007FF00
FFE007FF00
FFE003FF80
FFC003FF80
FFC003FF80
FFC003FF80
FFC003FF80
FFC003FF80
FFE003FF80
FFE003FF80
FFF003FF80
FFFC1BFF80
7FFFFBFF80
7FFFFBFF80
3FFFFBFF80
3FFFFBFF80
1FFFFBFF80
0FFFFBFF80
07FFFBFF80
03FFFBFF80
00FFFBFF80
003FFBFF80
ENDCHAR
STARTCHAR 00E1
ENCODING 225
SWIDTH 555 0
DWIDTH 37 0
BBX 33 49 2 0
BITMAP
00003FC000
00007F8000
00007F0000
0000FF0000
0000FE0000
0001FC0000
0001F80000
0003F00000
0007E00000
0007C00000
000FC00000
000F800000
0000000000
0000000000
0000000000
0003C00000
003FFE0000
00FFFF8000
03FFFFC000
07FFFFE000
0FFFFFF000
1FFFFFF800
3FFFFFFC00
3FFFFFFE00
7FFFFFFE00
7FFFFFFF00
FFF81FFF00
FFF007FF00
FFE007FF00
FFE003FF80
FFC003FF80
FFC003FF80
FFC003FF80
FFC003FF80
FFC003FF80
FFE003FF80
FFE003FF80
FFF003FF80
FFFC1BFF80
7FFFFBFF80
7FFFFBFF80
3FFFFBFF80
3FFFFBFF80
1FFFFBFF80
0FFFFBFF80
07FFFBFF80
03FFFBFF80
00FFFBFF80
003FFBFF80
ENDCHAR
STARTCHAR 00E2
ENCODING 226
SWIDTH 555 0
DWIDTH 37 0
BBX 33 49 2 0
BITMAP
0007F80000
000FF80000
000FFC0000
001FFC0000
001FFE0000
003F7E0000
003F3F0000
007E1F0000
00FC1F8000
00F80F8000
01F007C000
01F003E000
0000000000
0000000000
0000000000
0003C00000
003FFE0000
00FFFF8000
03FFFFC000
07FFFFE000
0FFFFFF000
1FFFFFF800
3FFFFFFC00
3FFFFFFE00
7FFFFFFE00
7FFFFFFF00
FFF81FFF00
FFF007FF00
FFE007FF00
FFE003FF80
FFC003FF80
FFC003FF80
FFC003FF80
FFC003FF80
FFC003FF80
FFE003FF80
FFE003FF80
FFF003FF80
FFFC1BFF80
7FFFFBFF80
7FFFFBFF80
3FFFFBFF80
3FFFFBFF80
1FFFFBFF80
0FFFFBFF80
07FFFBFF80
03FFFBFF80
00FFFBFF80
003FFBFF80
ENDCHAR
STARTCHAR 00E3
ENCODING 227
SWIDTH 555 0
DWIDTH 37 0
BBX 33 47 2 0
BITMAP
000001E000
001F01E000
007FF7C000
00FFFFC000
00FFFF8000
01FFFF8000
01F1FF0000
01E03C0000
03C0000000
0000000000
0000000000
0000000000
0000000000
0003C00000
003FFE0000
00FFFF8000
03FFFFC000
07FFFFE000
0FFFFFF000
1FFFFFF800
3FFFFFFC00
3FFFFFFE00
7FFFFFFE00
7FFFFFFF00
FFF81FFF00
FFF007FF00
FFE007FF00
FFE003FF80
FFC003FF80
FFC003FF80
FFC003FF80
FFC003FF80
FFC003FF80
FFE003FF80
FFE003FF80
FFF003FF80
FFFC1BFF80
7FFFFBFF80
7FFFFBFF80
3FFFFBFF80
3FFFFBFF80
1FFFFBFF80
0FFFFBFF80
07FFFBFF80
03FFFBFF80
00FFFBFF80
003FFBFF80
ENDCHAR
STARTCHAR 00E4
ENCODING 228
SWIDTH 555 0
DWIDTH 37 0
BBX 33 47 2 0
BITMAP
0078070000
00FC1FC000
01FE1FC000
01FE3FE000
01FE3FE000
01FE3FE000
01FE1FC000
00FC0F8000
0010060000
0000000000
0000000000
0000000000
0000000000
0003C00000
003FFE0000
00FFFF8000
03FFFFC000
07FFFFE000
0FFFFFF000
1FFFFFF800
3FFFFFFC00
3FFFFFFE00
7FFFFFFE00
7FFFFFFF00
FFF81FFF00
FFF007FF00
FFE007FF00
FFE003FF80
FFC003FF80
FFC003FF80
FFC003FF80
FFC003FF80
FFC003FF80
FFE003FF80
FFE003FF80
FFF003FF80
FFFC1BFF80
7FFFFBFF80
7FFFFBFF80
3FFFFBFF80
3FFFFBFF80
1FFFFBFF80
0FFFFBFF80
07FFFBFF80
03FFFBFF80
00FFFBFF80
003FFBFF80
ENDCHAR
STARTCHAR 00E5
ENCODING 229
SWIDTH 555 0
DWIDTH 37 0
BBX 33 53 2 0
BITMAP
0003F80000
000FFE0000
001FFF0000
003FFF8000
003FFF8000
007E0FC000
007C07C000
007C07C000
007C07C000
007C07C000
007C07C000
007E0FC000
003FBF8000
003FFF8000
001FFF0000
000FFE0000
0003F80000
0000000000
0000000000
0003C00000
003FFE0000
00FFFF8000
03FFFFC000
07FFFFE000
0FFFFFF000
1FFFFFF800
3FFFFFFC00
3FFFFFFE00
7FFFFFFE00
7FFFFFFF00
FFF81FFF00
FFF007FF00
FFE007FF00
FFE003FF80
FFC003FF80
FFC003FF80
FFC003FF80
FFC003FF80
FFC003FF80
FFE003FF80
FFE003FF80
FFF003FF80
FFFC1BFF80
7FFFFBFF80
7FFFFBFF80
3FFFFBFF80
3FFFFBFF80
1FFFFBFF80
0FFFFBFF80
07FFFBFF80
03FFFBFF80
00FFFBFF80
003FFBFF80
ENDCHAR
STARTCHAR 00E6
ENCODING 230
SWIDTH 840 0
DWIDTH 56 0
BBX 54 35 1 -1
BITMAP
001F80001F0000
03FFF801FFF000
1FFFFE07FFFC00
3FFFFF0FFFFE00
3FFFFF9FFFFF00
3FFFFFFFFFFF80
1FFFFFFFFFFFC0
1FFFFFFFFFFFE0
0FF1FFFFFFFFF0
0F003FFFC07FF0
08001FFF803FF8
00001FFF00FFF8
0007FFFE03FFFC
003FFFFE0FFFFC
00FFFFFC3FFFF0
03FFFFFC3FFF80
0FFFFFFC3FFE00
1FFFFFFC1FF800
3FFF8FFC1FE000
7FFC0FFC1F8000
7FF00FFE0C0300
FFE00FFE0007C0
FFC00FFF000FE0
FFC01FFF801FF8
FFC03FFFC07FFC
FFC07FFFFFFFFC
FFFFFFFFFFFFF8
FFFFFFFFFFFFF0
FFFFFFFFFFFFE0
7FFFFF3FFFFFC0
3FFFFE1FFFFF80
1FFFFC0FFFFF00
0FFFF007FFFC00
03FFC000FFF000
000000000E0000
ENDCHAR
STARTCHAR 00E7
ENCODING 231
SWIDTH 390 0
DWIDTH 26 0
BBX 23 49 2 -16
BITMAP
0003FE
003FFE
00FFFE
03FFFE
07FFFE
0FFFFE
1FFFFE
3FFFFE
3FFFFE
7FFFFE
7FFE00
FFF800
FFF000
FFE000
FFE000
FFC000
FFC000
FFC000
FFE000
FFE000
FFF000
FFF800
7FFE00
7FFFFE
3FFFFE
3FFFFE
1FFFFE
0FFFFE
07FFFE
03FFFE
00FFFE
003FFE
000FFE
000E00
000E00
000E00
001FE0
001FF8
001FFC
001FFC
0000FC
00007E
00007E
06007E
07FBFC
07FFFC
07FFF8
03FFF0
001F00
ENDCHAR
STARTCHAR 00E8
ENCODING 232
SWIDTH 540 0
DWIDTH 36 0
BBX 34 50 2 -1
BITMAP
01FE000000
00FF000000
007F800000
003F800000
003FC00000
001FC00000
000FE00000
0007E00000
0003F00000
0001F00000
0000F80000
0000F80000
0000000000
0000000000
0000000000
0001C00000
003FFC0000
00FFFF8000
01FFFFC000
07FFFFE000
0FFFFFF000
0FFFFFF800
1FFFFFFC00
3FFFFFFE00
3FF80FFE00
7FF01FFF00
7FE03FFE00
FFE0FFF800
FFC1FFF000
FFC3FFC000
FFCFFF8000
FFC7FF0000
FFC7FC0000
FFC3F83000
FFC3E07C00
FFC1C07F00
FFE000FFC0
FFF001FFC0
7FF807FF80
7FFE3FFF80
3FFFFFFF00
3FFFFFFF00
1FFFFFFE00
0FFFFFFC00
0FFFFFF800
03FFFFF000
01FFFFE000
00FFFF8000
003FFE0000
0001C00000
ENDCHAR
STARTCHAR 00E9
ENCODING 233
SWIDTH 540 0
DWIDTH 36 0
BBX 34 50 2 -1
BITMAP
00007FC000
00007F8000
0000FF0000
0000FE0000
0001FC0000
0001FC0000
0003F80000
0003F00000
0007E00000
0007C00000
000F800000
000F800000
0000000000
0000000000
0000000000
0001C00000
003FFC0000
00FFFF8000
01FFFFC000
07FFFFE000
0FFFFFF000
0FFFFFF800
1FFFFFFC00
3FFFFFFE00
3FF80FFE00
7FF01FFF00
7FE03FFE00
FFE0FFF800
FFC1FFF000
FFC3FFC000
FFCFFF8000
FFC7FF0000
FFC7FC0000
FFC3F83000
FFC3E07C00
FFC1C07F00
FFE000FFC0
FFF001FFC0
7FF807FF80
7FFE3FFF80
3FFFFFFF00
3FFFFFFF00
1FFFFFFE00
0FFFFFFC00
0FFFFFF800
03FFFFF000
01FFFFE000
00FFFF8000
003FFE0000
0001C00000
ENDCHAR
STARTCHAR 00EA
ENCODING 234
SWIDTH 540 0
DWIDTH 36 0
BBX 34 50 2 -1
BITMAP
000FF00000
000FF80000
001FFC0000
001FFC0000
003FFE0000
003F7E0000
007E7F0000
007E3F0000
00FC1F8000
00F80F8000
01F007C000
01E007C000
0000000000
0000000000
0000000000
0001C00000
003FFC0000
00FFFF8000
01FFFFC000
07FFFFE000
0FFFFFF000
0FFFFFF800
1FFFFFFC00
3FFFFFFE00
3FF80FFE00
7FF01FFF00
7FE03FFE00
FFE0FFF800
FFC1FFF000
FFC3FFC000
FFCFFF8000
FFC7FF0000
FFC7FC0000
FFC3F83000
FFC3E07C00
FFC1C07F00
FFE000FFC0
FFF001FFC0
7FF807FF80
7FFE3FFF80
3FFFFFFF00
3FFFFFFF00
1FFFFFFE00
0FFFFFFC00
0FFFFFF800
03FFFFF000
01FFFFE000
00FFFF8000
003FFE0000
0001C00000
ENDCHAR
STARTCHAR 00EB
ENCODING 235
SWIDTH 540 0
DWIDTH 36 0
BBX 34 48 2 -1
BITMAP
00780F0000
00FC1F8000
01FE3FC000
01FE3FC000
01FE3FC000
01FE3FC000
01FC3FC000
00FC1F8000
0020020000
0000000000
0000000000
0000000000
0000000000
0001C00000
003FFC0000
00FFFF8000
01FFFFC000
07FFFFE000
0FFFFFF000
0FFFFFF800
1FFFFFFC00
3FFFFFFE00
3FF80FFE00
7FF01FFF00
7FE03FFE00
FFE0FFF800
FFC1FFF000
FFC3FFC000
FFCFFF8000
FFC7FF0000
FFC7FC0000
FFC3F83000
FFC3E07C00
FFC1C07F00
FFE000FFC0
FFF001FFC0
7FF807FF80
7FFE3FFF80
3FFFFFFF00
3FFFFFFF00
1FFFFFFE00
0FFFFFFC00
0FFFFFF800
03FFFFF000
01FFFFE000
00FFFF8000
003FFE0000
0001C00000
ENDCHAR
STARTCHAR 00EC
ENCODING 236
SWIDTH 240 0
DWIDTH 16 0
BBX 15 49 -1 0
BITMAP
FF00
7F80
3F80
1FC0
1FC0
0FE0
07F0
03F0
01F8
00F8
00FC
007C
0000
0000
0000
0000
0FFE
0FFE
0FFE
0FFE
0FFE
0FFE
0FFE
0FFE
0FFE
0FFE
0FFE
0FFE
0FFE
0FFE
0FFE
0FFE
0FFE
0FFE
0FFE
0FFE
0FFE
0FFE
0FFE
0FFE
0FFE
0FFE
0FFE
0FFE
0FFE
0FFE
0FFE
0FFE
0FFE
ENDCHAR
STARTCHAR 00ED
ENCODING 237
SWIDTH 240 0
DWIDTH 16 0
BBX 15 49 3 0
BITMAP
03FE
03FC
07F8
07F0
0FE0
0FC0
1FC0
1F80
3F00
3E00
7C00
7800
0000
0000
0000
0000
FFE0
FFE0
FFE0
FFE0
FFE0
FFE0
FFE0
FFE0
FFE0
FFE0
FFE0
FFE0
FFE0
FFE0
FFE0
FFE0
FFE0
FFE0
FFE0
FFE0
FFE0
FFE0
FFE0
FFE0
FFE0
FFE0
FFE0
FFE0
FFE0
FFE0
FFE0
FFE0
FFE0
ENDCHAR
STARTCHAR 00EE
ENCODING 238
SWIDTH 240 0
DWIDTH 16 0
BBX 19 49 -1 0
BITMAP
07F800
07FC00
0FFC00
0FFE00
1FFE00
1FBF00
3F3F80
3F1F80
7E0FC0
7C07C0
F803E0
F003E0
000000
000000
000000
000000
0FFE00
0FFE00
0FFE00
0FFE00
0FFE00
0FFE00
0FFE00
0FFE00
0FFE00
0FFE00
0FFE00
0FFE00
0FFE00
0FFE00
0FFE00
0FFE00
0FFE00
0FFE00
0FFE00
0FFE00
0FFE00
0FFE00
0FFE00
0FFE00
0FFE00
0FFE00
0FFE00
0FFE00
0FFE00
0FFE00
0FFE00
0FFE00
0FFE00
ENDCHAR
STARTCHAR 00EF
ENCODING 239
SWIDTH 240 0
DWIDTH 16 0
BBX 20 47 -2 0
BITMAP
1C03C0
3F07E0
7F0FF0
FF8FF0
FF8FF0
7F8FF0
7F0FF0
3F07E0
080080
000000
000000
000000
000000
000000
07FF00
07FF00
07FF00
07FF00
07FF00
07FF00
07FF00
07FF00
07FF00
07FF00
07FF00
07FF00
07FF00
07FF00
07FF00
07FF00
07FF00
07FF00
07FF00
07FF00
07FF00
07FF00
07FF00
07FF00
07FF00
07FF00
07FF00
07FF00
07FF00
07FF00
07FF00
07FF00
07FF00
ENDCHAR
STARTCHAR 00F0
ENCODING 240
SWIDTH 525 0
DWIDTH 35 0
BBX 32 48 2 -1
BITMAP
03FF0000
01FF8000
01FFC380
00FFDF80
007FFFC0
007FFFC0
003FFFC0
00FFFE00
07FFFC00
07FFFC00
07FFFE00
03F7FF00
0387FF00
0003FF80
0003FFC0
0001FFC0
007CFFE0
01FCFFF0
03FE7FF0
0FFE7FF8
1FFF3FF8
1FFF9FFC
3FFF9FFC
7FFFCFFE
7FFC0FFE
7FF807FE
FFF007FE
FFE007FF
FFC003FF
FFC003FF
FFC003FF
FFC003FF
FFC003FF
FFC003FF
FFE007FF
FFE00FFE
FFF81FFE
7FFFFFFE
7FFFFFFC
3FFFFFFC
3FFFFFF8
1FFFFFF0
0FFFFFF0
07FFFFE0
03FFFFC0
00FFFF00
003FFC00
0007C000
ENDCHAR
STARTCHAR 00F1
ENCODING 241
SWIDTH 525 0
DWIDTH 35 0
BBX 30 47 3 0
BITMAP
00000780
007C0780
01FFDF00
01FFFF00
03FFFF00
07FFFE00
07C7FC00
0780F000
07000000
00000000
00000000
00000000
00000000
000F8000
007FF800
01FFFE00
07FFFF00
0FFFFF80
1FFFFFC0
1FFFFFE0
3FFFFFF0
7FFFFFF0
7FFFFFF8
7FFDFFF8
FFF03FF8
FFE01FFC
FFC01FFC
FFC01FFC
FFC00FFC
FFC00FFC
FFC00FFC
FFC00FFC
FFC00FFC
FFC00FFC
FFC00FFC
FFC00FFC
FFC00FFC
FFC00FFC
FFC00FFC
FFC00FFC
FFC00FFC
FFC00FFC
FFC00FFC
FFC00FFC
FFC00FFC
FFC00FFC
FFC00FFC
ENDCHAR
STARTCHAR 00F2
ENCODING 242
SWIDTH 540 0
DWIDTH 36 0
BBX 33 50 2 -1
BITMAP
01FE000000
00FF000000
007F000000
003F800000
003FC00000
001FC00000
000FE00000
0007E00000
0003F00000
0001F00000
0001F80000
0000F80000
0000000000
0000000000
0000000000
0001E00000
003FFE0000
00FFFF8000
01FFFFC000
07FFFFE000
0FFFFFF000
0FFFFFF800
1FFFFFFC00
3FFFFFFE00
3FFFFFFE00
7FFFFFFF00
7FF81FFF00
FFF00FFF00
FFE007FF80
FFE003FF80
FFE003FF80
FFC003FF80
FFC003FF80
FFC003FF80
FFE003FF80
FFE003FF80
FFF007FF80
FFF00FFF00
7FFC1FFF00
7FFFFFFF00
3FFFFFFE00
3FFFFFFE00
1FFFFFFC00
0FFFFFF800
0FFFFFF000
03FFFFE000
01FFFFC000
00FFFF0000
003FFC0000
0001800000
ENDCHAR
STARTCHAR 00F3
ENCODING 243
SWIDTH 540 0
DWIDTH 36 0
BBX 33 50 2 -1
BITMAP
00007FC000
00007F8000
0000FF0000
0000FE0000
0001FC0000
0001FC0000
0003F80000
0003F00000
0007E00000
0007C00000
000F800000
000F000000
0000000000
0000000000
0000000000
0001E00000
003FFE0000
00FFFF8000
01FFFFC000
07FFFFE000
0FFFFFF000
0FFFFFF800
1FFFFFFC00
3FFFFFFE00
3FFFFFFE00
7FFFFFFF00
7FF81FFF00
FFF00FFF00
FFE007FF80
FFE003FF80
FFE003FF80
FFC003FF80
FFC003FF80
FFC003FF80
FFE003FF80
FFE003FF80
FFF007FF80
FFF00FFF00
7FFC1FFF00
7FFFFFFF00
3FFFFFFE00
3FFFFFFE00
1FFFFFFC00
0FFFFFF800
0FFFFFF000
03FFFFE000
01FFFFC000
00FFFF0000
003FFC0000
0001800000
ENDCHAR
STARTCHAR 00F4
ENCODING 244
SWIDTH 540 0
DWIDTH 36 0
BBX 33 50 2 -1
BITMAP
000FF00000
000FF80000
001FF80000
001FFC0000
003FFE0000
003F7E0000
007E7F0000
007E3F0000
00FC1F8000
00F80F8000
01F007C000
01E007C000
0000000000
0000000000
0000000000
0001E00000
003FFE0000
00FFFF8000
01FFFFC000
07FFFFE000
0FFFFFF000
0FFFFFF800
1FFFFFFC00
3FFFFFFE00
3FFFFFFE00
7FFFFFFF00
7FF81FFF00
FFF00FFF00
FFE007FF80
FFE003FF80
FFE003FF80
FFC003FF80
FFC003FF80
FFC003FF80
FFE003FF80
FFE003FF80
FFF007FF80
FFF00FFF00
7FFC1FFF00
7FFFFFFF00
3FFFFFFE00
3FFFFFFE00
1FFFFFFC00
0FFFFFF800
0FFFFFF000
03FFFFE000
01FFFFC000
00FFFF0000
003FFC0000
0001800000
ENDCHAR
STARTCHAR 00F5
ENCODING 245
SWIDTH 540 0
DWIDTH 36 0
BBX 33 48 2 -1
BITMAP
000001E000
003E03C000
007FF7C000
00FFFFC000
01FFFF8000
01FFFF0000
01E3FE0000
03C0380000
03C0000000
0000000000
0000000000
0000000000
0000000000
0001E00000
003FFE0000
00FFFF8000
01FFFFC000
07FFFFE000
0FFFFFF000
0FFFFFF800
1FFFFFFC00
3FFFFFFE00
3FFFFFFE00
7FFFFFFF00
7FF81FFF00
FFF00FFF00
FFE007FF80
FFE003FF80
FFE003FF80
FFC003FF80
FFC003FF80
FFC003FF80
FFE003FF80
FFE003FF80
FFF007FF80
FFF00FFF00
7FFC1FFF00
7FFFFFFF00
3FFFFFFE00
3FFFFFFE00
1FFFFFFC00
0FFFFFF800
0FFFFFF000
03FFFFE000
01FFFFC000
00FFFF0000
003FFC0000
0001800000
ENDCHAR
STARTCHAR 00F6
ENCODING 246
SWIDTH 540 0
DWIDTH 36 0
BBX 33 48 2 -1
BITMAP
00780F0000
00FC1F8000
01FE3FC000
01FE3FC000
03FE3FC000
01FE3FC000
01FC3FC000
00FC1F8000
0020020000
0000000000
0000000000
0000000000
0000000000
0001E00000
003FFE0000
00FFFF8000
01FFFFC000
07FFFFE000
0FFFFFF000
0FFFFFF800
1FFFFFFC00
3FFFFFFE00
3FFFFFFE00
7FFFFFFF00
7FF81FFF00
FFF00FFF00
FFE007FF80
FFE003FF80
FFE003FF80
FFC003FF80
FFC003FF80
FFC003FF80
FFE003FF80
FFE003FF80
FFF007FF80
FFF00FFF00
7FFC1FFF00
7FFFFFFF00
3FFFFFFE00
3FFFFFFE00
1FFFFFFC00
0FFFFFF800
0FFFFFF000
03FFFFE000
01FFFFC000
00FFFF0000
003FFC0000
0001800000
ENDCHAR
STARTCHAR 00F7
ENCODING 247
SWIDTH 825 0
DWIDTH 55 0
BBX 39 37 8 1
BITMAP
00007E0000
0000FF0000
0001FF8000
0001FF8000
0003FF8000
0003FF8000
0001FF8000
0001FF0000
0000FF0000
00007E0000
0000000000
0000000000
0000000000
0000000000
FFFFFFFFFE
FFFFFFFFFE
FFFFFFFFFE
FFFFFFFFFE
FFFFFFFFFE
FFFFFFFFFE
FFFFFFFFFE
FFFFFFFFFE
0000000000
0000000000
0000000000
0000000000
00007C0000
0000FF0000
0001FF0000
0001FF8000
0003FF8000
0003FF8000
0003FF8000
0001FF8000
0001FF0000
0000FE0000
0000180000
ENDCHAR
STARTCHAR 00F8
ENCODING 248
SWIDTH 540 0
DWIDTH 36 0
BBX 34 39 1 -3
BITMAP
0000000600
0000000F00
0000F01F80
001FFE3FC0
007FFFBFC0
00FFFFFF80
03FFFFFF00
07FFFFFE00
07FFFFFC00
0FFFFFFE00
1FFFFFFF00
1FFFFFFF00
3FFE1FFF80
3FF81FFF80
7FF03FFF80
7FF07FFFC0
7FE0FFFFC0
7FE1FCFFC0
7FE1F8FFC0
7FE3F8FFC0
7FE7F0FFC0
7FEFE0FFC0
7FFFC1FFC0
7FFF81FFC0
7FFF83FF80
3FFF07FF80
3FFF1FFF80
1FFFFFFF00
1FFFFFFF00
0FFFFFFE00
0FFFFFFC00
1FFFFFF800
3FFFFFF000
3FFFFFE000
7FFFFFC000
FF1FFE0000
7E00C00000
1C00000000
0C00000000
ENDCHAR
STARTCHAR 00F9
ENCODING 249
SWIDTH 525 0
DWIDTH 35 0
BBX 30 50 3 -1
BITMAP
03FC0000
03FC0000
01FE0000
00FE0000
007F0000
003F8000
001F8000
001FC000
000FC000
0007E000
0003E000
0001F000
00000000
00000000
00000000
00000000
FFC00FFC
FFC00FFC
FFC00FFC
FFC00FFC
FFC00FFC
FFC00FFC
FFC00FFC
FFC00FFC
FFC00FFC
FFC00FFC
FFC00FFC
FFC00FFC
FFC00FFC
FFC00FFC
FFC00FFC
FFC00FFC
FFC00FFC
FFC00FFC
FFC00FFC
FFC01FFC
FFC01FFC
FFE01FF8
FFF03FF8
7FFDFFF8
7FFFFFF8
7FFFFFF0
3FFFFFF0
1FFFFFE0
1FFFFFC0
0FFFFF80
07FFFF00
01FFFE00
007FF800
00070000
ENDCHAR
STARTCHAR 00FA
ENCODING 250
SWIDTH 525 0
DWIDTH 35 0
BBX 30 50 3 -1
BITMAP
0000FF00
0001FE00
0001FE00
0003FC00
0003F800
0007F000
0007E000
000FC000
000F8000
001F8000
001F0000
003E0000
00000000
00000000
00000000
00000000
FFC00FFC
FFC00FFC
FFC00FFC
FFC00FFC
FFC00FFC
FFC00FFC
FFC00FFC
FFC00FFC
FFC00FFC
FFC00FFC
FFC00FFC
FFC00FFC
FFC00FFC
FFC00FFC
FFC00FFC
FFC00FFC
FFC00FFC
FFC00FFC
FFC00FFC
FFC01FFC
FFC01FFC
FFE01FF8
FFF03FF8
7FFDFFF8
7FFFFFF8
7FFFFFF0
3FFFFFF0
1FFFFFE0
1FFFFFC0
0FFFFF80
07FFFF00
01FFFE00
007FF800
00070000
ENDCHAR
STARTCHAR 00FB
ENCODING 251
SWIDTH 525 0
DWIDTH 35 0
BBX 30 50 3 -1
BITMAP
001FE000
003FE000
003FF000
007FF000
007FF800
00FFFC00
00FCFC00
01F87E00
01F07E00
03E03F00
03E01F00
07C00F80
00000000
00000000
00000000
00000000
FFC00FFC
FFC00FFC
FFC00FFC
FFC00FFC
FFC00FFC
FFC00FFC
FFC00FFC
FFC00FFC
FFC00FFC
FFC00FFC
FFC00FFC
FFC00FFC
FFC00FFC
FFC00FFC
FFC00FFC
FFC00FFC
FFC00FFC
FFC00FFC
FFC00FFC
FFC01FFC
FFC01FFC
FFE01FF8
FFF03FF8
7FFDFFF8
7FFFFFF8
7FFFFFF0
3FFFFFF0
1FFFFFE0
1FFFFFC0
0FFFFF80
07FFFF00
01FFFE00
007FF800
00070000
ENDCHAR
STARTCHAR 00FC
ENCODING 252
SWIDTH 525 0
DWIDTH 35 0
BBX 30 48 3 -1
BITMAP
01E01C00
03F07F00
07F87F00
07F8FF80
07F8FF80
07F8FF80
07F87F00
03F03F00
00400800
00000000
00000000
00000000
00000000
00000000
FFC00FFC
FFC00FFC
FFC00FFC
FFC00FFC
FFC00FFC
FFC00FFC
FFC00FFC
FFC00FFC
FFC00FFC
FFC00FFC
FFC00FFC
FFC00FFC
FFC00FFC
FFC00FFC
FFC00FFC
FFC00FFC
FFC00FFC
FFC00FFC
FFC00FFC
FFC01FFC
FFC01FFC
FFE01FF8
FFF03FF8
7FFDFFF8
7FFFFFF8
7FFFFFF0
3FFFFFF0
1FFFFFE0
1FFFFFC0
0FFFFF80
07FFFF00
01FFFE00
007FF800
00070000
ENDCHAR
STARTCHAR 00FD
ENCODING 253
SWIDTH 525 0
DWIDTH 35 0
BBX 30 63 3 -14
BITMAP
0000FF00
0001FE00
0001FE00
0003FC00
0003F800
0007F000
0007E000
000FC000
000F8000
001F8000
001F0000
003E0000
00000000
00000000
00000000
00000000
FFC00FFC
FFC00FFC
FFC00FFC
FFC00FFC
FFC00FFC
FFC00FFC
FFC00FFC
FFC00FFC
FFC00FFC
FFC00FFC
FFC00FFC
FFC00FFC
FFC00FFC
FFC00FFC
FFC00FFC
FFC00FFC
FFC00FFC
FFC00FFC
FFC00FFC
FFC00FFC
FFC01FFC
FFE01FFC
FFE03FF8
FFF87FF8
7FFFFFF8
7FFFFFF0
3FFFFFF0
3FFFFFE0
1FFFFFC0
0FFFFFC0
07FFFF00
01FFFE00
00FFF800
003FF000
003FF000
003FF000
003FF000
003FF000
003FF000
003FF000
003FF000
003FF000
003FF000
003FF000
003FF000
003FF000
003FF000
ENDCHAR
STARTCHAR 00FE
ENCODING 254
SWIDTH 555 0
DWIDTH 37 0
BBX 33 61 3 -14
BITMAP
FFC0000000
FFC0000000
FFC0000000
FFC0000000
FFC0000000
FFC0000000
FFC0000000
FFC0000000
FFC0000000
FFC0000000
FFC0000000
FFC0000000
FFC0000000
FFC3C00000
FFFFFE0000
FFFFFF8000
FFFFFFC000
FFFFFFE000
FFFFFFF000
FFFFFFF800
FFFFFFFC00
FFFFFFFE00
FFFFFFFE00
FFFFFFFF00
FFF81FFF00
FFF00FFF00
FFE007FF00
FFE003FF80
FFC003FF80
FFC003FF80
FFC003FF80
FFC003FF80
FFC003FF80
FFC003FF80
FFC007FF00
FFC00FFF00
FFC81FFF00
FFCFFFFF00
FFCFFFFE00
FFCFFFFE00
FFCFFFFC00
FFCFFFF800
FFCFFFF000
FFCFFFE000
FFCFFFC000
FFCFFF0000
FFCFFC0000
FFC0000000
FFC0000000
FFC0000000
FFC0000000
FFC0000000
FFC0000000
FFC0000000
FFC0000000
FFC0000000
FFC0000000
FFC0000000
FFC0000000
FFC0000000
FFC0000000
ENDCHAR
STARTCHAR 00FF
ENCODING 255
SWIDTH 525 0
DWIDTH 35 0
BBX 30 61 3 -14
BITMAP
01E01C00
03F07F00
07F87F00
07F8FF80
07F8FF80
07F8FF80
07F87F00
03F03F00
00400800
00000000
00000000
00000000
00000000
00000000
FFC00FFC
FFC00FFC
FFC00FFC
FFC00FFC
FFC00FFC
FFC00FFC
FFC00FFC
FFC00FFC
FFC00FFC
FFC00FFC
FFC00FFC
FFC00FFC
FFC00FFC
FFC00FFC
FFC00FFC
FFC00FFC
FFC00FFC
FFC00FFC
FFC00FFC
FFC00FFC
FFC01FFC
FFE01FFC
FFE03FF8
FFF87FF8
7FFFFFF8
7FFFFFF0
3FFFFFF0
3FFFFFE0
1FFFFFC0
0FFFFFC0
07FFFF00
01FFFE00
00FFF800
003FF000
003FF000
003FF000
003FF000
003FF000
003FF000
003FF000
003FF000
003FF000
003FF000
003FF000
003FF000
003FF000
003FF000
ENDCHAR
STARTCHAR 0102
ENCODING 258
SWIDTH 615 0
DWIDTH 41 0
BBX 36 60 3 0
BITMAP
00F000F000
00F000F000
00F801F000
00FC03E000
007F9FE000
007FFFC000
003FFFC000
001FFF8000
000FFE0000
0001F00000
0000000000
0000000000
0000000000
000FFF0000
007FFFC000
00FFFFF000
03FFFFF800
07FFFFFC00
0FFFFFFE00
0FFFFFFF00
1FFFFFFF80
3FFFFFFF80
3FFFFFFFC0
3FFFFFFFC0
7FFE07FFC0
7FFC03FFE0
7FF801FFE0
FFF001FFE0
FFF000FFE0
FFF000FFE0
FFF000FFF0
FFF000FFF0
FFF3FFFFF0
FFF3FFFFF0
FFF3FFFFF0
FFF3FFFFF0
FFF3FFFFF0
FFF3FFFFF0
FFF3FFFFF0
FFF3FFFFF0
FFF3FFFFF0
FFF3FFFFF0
FFF3FFFFF0
FFF000FFF0
FFF000FFF0
FFF000FFF0
FFF000FFF0
FFF000FFF0
FFF000FFF0
FFF000FFF0
FFF000FFF0
FFF000FFF0
FFF000FFF0
FFF000FFF0
FFF000FFF0
FFF000FFF0
FFF000FFF0
FFF000FFF0
FFF000FFF0
FFF000FFF0
ENDCHAR
STARTCHAR 0103
ENCODING 259
SWIDTH 555 0
DWIDTH 37 0
BBX 33 48 2 0
BITMAP
01E001E000
01E001E000
01E003C000
01F003C000
00F80FC000
00FFFFC000
007FFF8000
007FFF0000
003FFE0000
000FF80000
0000000000
0000000000
0000000000
0000000000
0003C00000
003FFE0000
00FFFF8000
03FFFFC000
07FFFFE000
0FFFFFF000
1FFFFFF800
3FFFFFFC00
3FFFFFFE00
7FFFFFFE00
7FFFFFFF00
FFF81FFF00
FFF007FF00
FFE007FF00
FFE003FF80
FFC003FF80
FFC003FF80
FFC003FF80
FFC003FF80
FFC003FF80
FFE003FF80
FFE003FF80
FFF003FF80
FFFC1BFF80
7FFFFBFF80
7FFFFBFF80
3FFFFBFF80
3FFFFBFF80
1FFFFBFF80
0FFFFBFF80
07FFFBFF80
03FFFBFF80
00FFFBFF80
003FFBFF80
ENDCHAR
STARTCHAR 0106
ENCODING 262
SWIDTH 495 0
DWIDTH 33 0
BBX 30 63 2 0
BITMAP
000007F8
00000FF0
00000FE0
00001FE0
00001FC0
00003F80
00003F00
00007E00
00007C00
0000FC00
0000F800
0001F000
00000000
00000000
00000000
00000000
0000005C
00003FFC
0003FFFC
000FFFFC
003FFFFC
007FFFFC
00FFFFFC
03FFFFFC
07FFFFFC
07FFFFFC
0FFFFFFC
1FFFFF00
1FFFE000
3FFF8000
3FFF0000
7FFE0000
7FFC0000
7FF80000
FFF80000
FFF00000
FFF00000
FFF00000
FFF00000
FFF00000
FFF00000
FFF00000
FFF00000
FFF00000
FFF80000
FFF80000
7FFC0000
7FFC0000
7FFE0000
3FFF8000
3FFFC000
1FFFFC00
0FFFFFFC
0FFFFFFC
07FFFFFC
03FFFFFC
01FFFFFC
00FFFFFC
003FFFFC
001FFFFC
0007FFFC
0000FFFC
000007FC
ENDCHAR
STARTCHAR 0107
ENCODING 263
SWIDTH 390 0
DWIDTH 26 0
BBX 24 49 2 0
BITMAP
0000FF
0001FE
0001FC
0003FC
0003F8
0007F0
0007E0
000FC0
001F80
001F00
003F00
003E00
000000
000000
000000
000000
0003FE
003FFE
00FFFE
03FFFE
07FFFE
0FFFFE
1FFFFE
3FFFFE
3FFFFE
7FFFFE
7FFE00
FFF800
FFF000
FFE000
FFE000
FFC000
FFC000
FFC000
FFE000
FFE000
FFF000
FFF800
7FFE00
7FFFFE
3FFFFE
3FFFFE
1FFFFE
0FFFFE
07FFFE
03FFFE
00FFFE
003FFE
0007FE
ENDCHAR
STARTCHAR 010C
ENCODING 268
SWIDTH 495 0
DWIDTH 33 0
BBX 30 63 2 0
BITMAP
003E007C
001E00F8
001F00F8
000F81F0
000FC3F0
0007E7E0
0007FFE0
0003FFC0
0003FFC0
0001FF80
0001FF80
0000FF00
00000000
00000000
00000000
00000000
0000005C
00003FFC
0003FFFC
000FFFFC
003FFFFC
007FFFFC
00FFFFFC
03FFFFFC
07FFFFFC
07FFFFFC
0FFFFFFC
1FFFFF00
1FFFE000
3FFF8000
3FFF0000
7FFE0000
7FFC0000
7FF80000
FFF80000
FFF00000
FFF00000
FFF00000
FFF00000
FFF00000
FFF00000
FFF00000
FFF00000
FFF00000
FFF80000
FFF80000
7FFC0000
7FFC0000
7FFE0000
3FFF8000
3FFFC000
1FFFFC00
0FFFFFFC
0FFFFFFC
07FFFFFC
03FFFFFC
01FFFFFC
00FFFFFC
003FFFFC
001FFFFC
0007FFFC
0000FFFC
000007FC
ENDCHAR
STARTCHAR 010D
ENCODING 269
SWIDTH 390 0
DWIDTH 26 0
BBX 25 49 2 0
BITMAP
07800F80
07C01F00
03E01F00
03F03E00
01F07E00
01F8FC00
00FDFC00
00FFF800
007FF800
007FF000
003FF000
003FE000
00000000
00000000
00000000
00000000
0003FE00
003FFE00
00FFFE00
03FFFE00
07FFFE00
0FFFFE00
1FFFFE00
3FFFFE00
3FFFFE00
7FFFFE00
7FFE0000
FFF80000
FFF00000
FFE00000
FFE00000
FFC00000
FFC00000
FFC00000
FFE00000
FFE00000
FFF00000
FFF80000
7FFE0000
7FFFFE00
3FFFFE00
3FFFFE00
1FFFFE00
0FFFFE00
07FFFE00
03FFFE00
00FFFE00
003FFE00
0007FE00
ENDCHAR
STARTCHAR 0110
ENCODING 272
SWIDTH 645 0
DWIDTH 43 0
BBX 41 47 0 0
BITMAP
0FFF00000000
0FFFFF000000
0FFFFFE00000
0FFFFFF80000
0FFFFFFE0000
0FFFFFFF0000
0FFFFFFFC000
0FFFFFFFE000
0FFFFFFFE000
0FFFFFFFF000
0FFFFFFFF800
0FFE3FFFFC00
0FFE03FFFC00
0FFE00FFFE00
0FFE007FFE00
0FFE003FFF00
0FFE001FFF00
0FFE000FFF00
0FFE000FFF80
FFFFF807FF80
FFFFF807FF80
FFFFF807FF80
FFFFF807FF80
FFFFF807FF80
FFFFF807FF80
FFFFF807FF80
0FFE0007FF80
0FFE0007FF80
0FFE000FFF80
0FFE000FFF80
0FFE001FFF00
0FFE001FFF00
0FFE003FFF00
0FFE007FFE00
0FFE01FFFE00
0FFE0FFFFC00
0FFE7FFFF800
0FFE7FFFF800
0FFE7FFFF000
0FFE7FFFE000
0FFE7FFFC000
0FFE7FFF8000
0FFE7FFF0000
0FFE7FFC0000
0FFE7FF00000
0FFE7FC00000
0FFE7C000000
ENDCHAR
STARTCHAR 0111
ENCODING 273
SWIDTH 570 0
DWIDTH 38 0
BBX 36 48 2 -1
BITMAP
000003FF80
000003FF80
000003FF80
000003FF80
0001FFFFF0
0001FFFFF0
0001FFFFF0
0001FFFFF0
0001FFFFF0
0001FFFFF0
000003FF80
000003FF80
000003FF80
000183FF80
003FFBFF80
00FFFBFF80
03FFFBFF80
07FFFBFF80
0FFFFBFF80
1FFFFBFF80
3FFFFBFF80
3FFFFBFF80
7FFFFBFF80
7FFFFBFF80
FFFC0BFF80
FFF003FF80
FFE003FF80
FFE003FF80
FFC003FF80
FFC003FF80
FFC003FF80
FFC003FF80
FFC003FF80
FFE003FF00
FFE007FF00
FFF007FF00
FFF81FFF00
7FFFFFFE00
7FFFFFFE00
3FFFFFFC00
3FFFFFFC00
1FFFFFF800
0FFFFFF000
07FFFFE000
03FFFFC000
00FFFF8000
003FFE0000
0001800000
ENDCHAR
STARTCHAR 011E
ENCODING 286
SWIDTH 765 0
DWIDTH 51 0
BBX 48 63 2 -1
BITMAP
0003C003C000
0003C003C000
0003C0078000
0003E00F8000
0001F81F8000
0001FFFF0000
0000FFFF0000
00007FFE0000
00003FFC0000
00000FE00000
000000000000
000000000000
000000000000
000000000000
000000000000
00007FFE0000
0001FFFFC000
000FFFFFF000
001FFFFFFC00
007FFFFFFF00
00FFFFFFFF80
01FFFFFFFFC0
03FFFFFFFFC0
07FFFFFFFF80
0FFFFFFFFF00
0FFFFFFFFE00
1FFFF007FC00
1FFFC001F800
3FFF00007000
3FFE00002000
7FFE00000000
7FFC00000000
7FF800000000
FFF801FFFFFF
FFF001FFFFFF
FFF001FFFFFF
FFF001FFFFFF
FFF001FFFFFF
FFF001FFFFFE
FFF001FFFFFE
FFF001FFFFFE
FFF001FFFFFE
FFF001FFFFFE
FFF800001FFE
7FF800003FFE
7FFC00003FFC
7FFC00007FFC
7FFE0000FFFC
3FFF0001FFF8
3FFFC003FFF8
1FFFF00FFFF0
1FFFFFFFFFF0
0FFFFFFFFFE0
07FFFFFFFFE0
03FFFFFFFFC0
01FFFFFFFF80
00FFFFFFFF00
007FFFFFFE00
003FFFFFFC00
000FFFFFF000
0007FFFFC000
0000FFFF0000
000007F00000
ENDCHAR
STARTCHAR 011F
ENCODING 287
SWIDTH 555 0
DWIDTH 37 0
BBX 33 63 2 -15
BITMAP
01E001E000
01E003E000
01E003C000
01F007C000
01F80FC000
00FFFFC000
00FFFF8000
007FFF0000
003FFE0000
000FF80000
0000000000
0000000000
0000000000
0000000000
0001C00000
003FFE0000
00FFFF8000
03FFFFC000
07FFFFE000
0FFFFFF000
1FFFFFF800
3FFFFFFC00
3FFFFFFE00
7FFFFFFE00
7FFFFFFF00
FFF81FFF00
FFF007FF00
FFE007FF00
FFE003FF80
FFC003FF80
FFC003FF80
FFC003FF80
FFC003FF80
FFC003FF80
FFE003FF80
FFE003FF80
FFF003FF80
7FFC0BFF80
7FFFFBFF80
7FFFFBFF80
3FFFFBFF80
1FFFFBFF80
1FFFFBFF80
0FFFFBFF80
03FFFBFF80
01FFFBFF80
007FFBFF80
001FFBFF80
000003FF80
000003FF80
000007FF00
08000FFF00
0F801FFF00
0FFFFFFF00
0FFFFFFE00
0FFFFFFE00
0FFFFFFC00
0FFFFFF800
0FFFFFF000
0FFFFFE000
0FFFFFC000
07FFFE0000
001FF00000
ENDCHAR
STARTCHAR 0128
ENCODING 296
SWIDTH 270 0
DWIDTH 18 0
BBX 21 61 -1 0
BITMAP
000078
0FC0F0
1FFFF0
3FFFF0
7FFFE0
7FFFC0
783F80
F00000
000000
000000
000000
000000
000000
000000
07FF00
07FF00
07FF00
07FF00
07FF00
07FF00
07FF00
07FF00
07FF00
07FF00
07FF00
07FF00
07FF00
07FF00
07FF00
07FF00
07FF00
07FF00
07FF00
07FF00
07FF00
07FF00
07FF00
07FF00
07FF00
07FF00
07FF00
07FF00
07FF00
07FF00
07FF00
07FF00
07FF00
07FF00
07FF00
07FF00
07FF00
07FF00
07FF00
07FF00
07FF00
07FF00
07FF00
07FF00
07FF00
07FF00
07FF00
ENDCHAR
STARTCHAR 0129
ENCODING 297
SWIDTH 240 0
DWIDTH 16 0
BBX 21 47 -2 0
BITMAP
000078
07C078
1FFDF0
3FFFF0
3FFFE0
7FFFE0
7C7FC0
700F00
F00000
000000
000000
000000
000000
000000
07FF00
07FF00
07FF00
07FF00
07FF00
07FF00
07FF00
07FF00
07FF00
07FF00
07FF00
07FF00
07FF00
07FF00
07FF00
07FF00
07FF00
07FF00
07FF00
07FF00
07FF00
07FF00
07FF00
07FF00
07FF00
07FF00
07FF00
07FF00
07FF00
07FF00
07FF00
07FF00
07FF00
ENDCHAR
STARTCHAR 0130
ENCODING 304
SWIDTH 270 0
DWIDTH 18 0
BBX 11 62 4 0
BITMAP
0E00
3F00
3F80
7FC0
7FC0
7FC0
3F80
3F80
0E00
0000
0000
0000
0000
0000
0000
FFE0
FFE0
FFE0
FFE0
FFE0
FFE0
FFE0
FFE0
FFE0
FFE0
FFE0
FFE0
FFE0
FFE0
FFE0
FFE0
FFE0
FFE0
FFE0
FFE0
FFE0
FFE0
FFE0
FFE0
FFE0
FFE0
FFE0
FFE0
FFE0
FFE0
FFE0
FFE0
FFE0
FFE0
FFE0
FFE0
FFE0
FFE0
FFE0
FFE0
FFE0
FFE0
FFE0
FFE0
FFE0
FFE0
FFE0
ENDCHAR
STARTCHAR 0131
ENCODING 305
SWIDTH 240 0
DWIDTH 16 0
BBX 11 33 3 0
BITMAP
FFE0
FFE0
FFE0
FFE0
FFE0
FFE0
FFE0
FFE0
FFE0
FFE0
FFE0
FFE0
FFE0
FFE0
FFE0
FFE0
FFE0
FFE0
FFE0
FFE0
FFE0
FFE0
FFE0
FFE0
FFE0
FFE0
FFE0
FFE0
FFE0
FFE0
FFE0
FFE0
FFE0
ENDCHAR
STARTCHAR 0141
ENCODING 321
SWIDTH 435 0
DWIDTH 29 0
BBX 29 47 0 0
BITMAP
0FFE0000
0FFE0000
0FFE0000
0FFE0000
0FFE0000
0FFE0000
0FFE0000
0FFE0000
0FFE0000
0FFE0000
0FFE0000
0FFE0400
0FFE1C00
0FFE3C00
0FFE7C00
0FFFFC00
0FFFFC00
0FFFFC00
0FFFFC00
0FFFFC00
0FFFF000
0FFFE000
1FFF8000
7FFF0000
FFFE0000
FFFE0000
FFFE0000
FFFE0000
FFFE0000
FFFE0000
EFFE0000
CFFE0000
0FFE0000
0FFF0000
0FFF0000
0FFF8000
0FFFFFF8
0FFFFFF8
07FFFFF8
07FFFFF8
03FFFFF8
03FFFFF8
01FFFFF8
00FFFFF8
007FFFF8
001FFFF8
0001FFF8
ENDCHAR
STARTCHAR 0142
ENCODING 322
SWIDTH 270 0
DWIDTH 18 0
BBX 18 47 0 0
BITMAP
0FFC00
0FFC00
0FFC00
0FFC00
0FFC00
0FFC00
0FFC00
0FFC00
0FFC00
0FFC00
0FFC00
0FFC00
0FFC00
0FFC00
0FFC40
0FFCC0
0FFFC0
0FFFC0
0FFFC0
0FFFC0
0FFFC0
0FFF80
1FFF00
3FFC00
7FFC00
FFFC00
FFFC00
FFFC00
FFFC00
EFFC00
CFFC00
8FFC00
0FFC00
0FFC00
0FFC00
0FFC00
0FFC00
0FFC00
0FFC00
0FFC00
0FFC00
0FFC00
0FFC00
0FFC00
0FFC00
0FFC00
0FFC00
ENDCHAR
STARTCHAR 0152
ENCODING 338
SWIDTH 1035 0
DWIDTH 69 0
BBX 64 48 2 -1
BITMAP
00007FFC00000003
0003FFFF80000FFF
000FFFFFE0007FFF
001FFFFFF001FFFF
007FFFFFFC07FFFF
00FFFFFFFE0FFFFF
01FFFFFFFF1FFFFF
03FFFFFFFFFFFFFF
07FFFFFFFFFFFFFF
0FFFFFFFFFFFFFFF
0FFFFFFFFFFFFFFF
1FFFF81FFFFFFF00
3FFFC003FFFFF800
3FFF8001FFFFE000
3FFE0000FFFFC000
7FFE00007FFF8000
7FFC00003FFF0000
7FF800003FFE0000
FFF800001FFFFFFF
FFF000001FFFFFFF
FFF000001FFFFFFF
FFF000000FFFFFFF
FFF000000FFFFFFF
FFF000000FFFFFFF
FFF000000FFFFFFF
FFF000000FFFFFFF
FFF000001FFFFFFF
FFF000001FFFFFFF
FFF800001FFFFFFF
FFF800003FFE0000
7FFC00003FFE0000
7FFC00007FFF0000
7FFE0000FFFF8000
3FFF0001FFFFC000
3FFFC003FFFFF000
1FFFF00FFFFFFE00
1FFFFFFFFFFFFFFF
0FFFFFFFFFFFFFFF
07FFFFFFFFFFFFFF
03FFFFFFFFFFFFFF
01FFFFFFFF3FFFFF
00FFFFFFFE1FFFFF
007FFFFFFC07FFFF
003FFFFFF803FFFF
000FFFFFE000FFFF
0007FFFFC0001FFF
0000FFFE000000FF
00000FF000000000
ENDCHAR
STARTCHAR 0153
ENCODING 339
SWIDTH 885 0
DWIDTH 59 0
BBX 57 35 2 -1
BITMAP
0001E00007800000
003FFC007FF80000
00FFFF01FFFE0000
01FFFFC3FFFF8000
07FFFFE7FFFFC000
0FFFFFFFFFFFE000
0FFFFFFFFFFFF000
1FFFFFFFFFFFF800
3FFFFFFFFEFFF800
3FFFFFFFF01FFC00
7FFFFFFFE03FFE00
7FF81FFFC07FFC00
FFF00FFF81FFF000
FFE007FF83FFE000
FFE003FF0FFF8000
FFE003FF1FFF0000
FFC003FF1FFC0000
FFC003FF0FF80000
FFC003FF07E04000
FFE003FF87C0F000
FFE003FF8301FC00
FFF007FFC001FF00
FFF00FFFE003FF80
7FFC1FFFF00FFF00
7FFFFFFFFC7FFF00
3FFFFFFFFFFFFE00
3FFFFFFFFFFFFC00
1FFFFFFFFFFFFC00
0FFFFFFFFFFFF800
0FFFFFFFFFFFF000
07FFFFE7FFFFE000
01FFFFC3FFFF8000
00FFFF01FFFF0000
003FFC007FFC0000
0001800003800000
ENDCHAR
STARTCHAR 015E
ENCODING 350
SWIDTH 525 0
DWIDTH 35 0
BBX 32 63 2 -16
BITMAP
0007FFF8
00FFFFF8
03FFFFF8
0FFFFFF8
1FFFFFF8
1FFFFFF8
3FFFFFF8
7FFFFFF8
7FFFFFF8
7FFFFFF8
FFFFFFF8
FFF80000
FFF00000
FFF00000
FFF80000
FFFC0000
7FFE0000
7FFF8000
3FFFE000
3FFFF000
1FFFFC00
0FFFFF00
07FFFF80
03FFFFC0
01FFFFF0
007FFFF8
001FFFF8
000FFFFC
0003FFFC
0000FFFE
00007FFE
00003FFE
00001FFF
00001FFF
00001FFF
00003FFF
FFFFFFFE
FFFFFFFE
FFFFFFFE
FFFFFFFE
FFFFFFFC
FFFFFFF8
FFFFFFF8
FFFFFFF0
FFFFFFC0
FFFFFF00
FFFFF800
0001C000
0001C000
0001C000
0003FC00
0003FF00
0003FF80
0003FF80
00001FC0
00000FC0
00000FC0
00C00FC0
00FF7F80
00FFFF80
00FFFF00
007FFE00
0003E000
ENDCHAR
STARTCHAR 015F
ENCODING 351
SWIDTH 435 0
DWIDTH 29 0
BBX 25 49 2 -16
BITMAP
00FFFF00
07FFFF00
0FFFFF00
1FFFFF00
3FFFFF00
7FFFFF00
7FFFFF00
7FFFFF00
7FFFFF00
7FE00000
7FE00000
7FF00000
7FFC0000
3FFF8000
3FFFE000
1FFFF000
0FFFFC00
03FFFE00
00FFFF00
003FFF00
000FFF80
0003FF80
0003FF80
0007FF80
FFFFFF80
FFFFFF80
FFFFFF80
FFFFFF00
FFFFFF00
FFFFFE00
FFFFFC00
FFFFF800
FFFFC000
000E0000
000E0000
001E0000
001FC000
001FF000
001FF800
001FFC00
0000FC00
00007C00
00007C00
0600FC00
07FBFC00
07FFFC00
07FFF800
03FFF000
000E0000
ENDCHAR
STARTCHAR 0160
ENCODING 352
SWIDTH 525 0
DWIDTH 35 0
BBX 32 63 2 0
BITMAP
03E007C0
03E00F80
01F00F80
00F81F00
00FC3F00
007E7E00
007EFE00
003FFC00
003FFC00
001FF800
001FF800
000FF000
00000000
00000000
00000000
00000000
0007FFF8
00FFFFF8
03FFFFF8
0FFFFFF8
1FFFFFF8
1FFFFFF8
3FFFFFF8
7FFFFFF8
7FFFFFF8
7FFFFFF8
FFFFFFF8
FFF80000
FFF00000
FFF00000
FFF80000
FFFC0000
7FFE0000
7FFF8000
3FFFE000
3FFFF000
1FFFFC00
0FFFFF00
07FFFF80
03FFFFC0
01FFFFF0
007FFFF8
001FFFF8
000FFFFC
0003FFFC
0000FFFE
00007FFE
00003FFE
00001FFF
00001FFF
00001FFF
00003FFF
FFFFFFFE
FFFFFFFE
FFFFFFFE
FFFFFFFE
FFFFFFFC
FFFFFFF8
FFFFFFF8
FFFFFFF0
FFFFFFC0
FFFFFF00
FFFFF800
ENDCHAR
STARTCHAR 0161
ENCODING 353
SWIDTH 435 0
DWIDTH 29 0
BBX 25 49 2 0
BITMAP
3E003E00
1F007C00
0F80FC00
0FC0F800
07C1F800
07E3F000
03F7F000
03FFE000
01FFE000
01FFC000
00FF8000
00FF8000
00000000
00000000
00000000
00000000
00FFFF00
07FFFF00
0FFFFF00
1FFFFF00
3FFFFF00
7FFFFF00
7FFFFF00
7FFFFF00
7FFFFF00
7FE00000
7FE00000
7FF00000
7FFC0000
3FFF8000
3FFFE000
1FFFF000
0FFFFC00
03FFFE00
00FFFF00
003FFF00
000FFF80
0003FF80
0003FF80
0007FF80
FFFFFF80
FFFFFF80
FFFFFF80
FFFFFF00
FFFFFF00
FFFFFE00
FFFFFC00
FFFFF800
FFFFC000
ENDCHAR
STARTCHAR 0168
ENCODING 360
SWIDTH 615 0
DWIDTH 41 0
BBX 36 62 3 -1
BITMAP
000000F000
001FC1E000
003FFFE000
007FFFE000
007FFFC000
00FFFF8000
00F07F0000
01E0000000
0000000000
0000000000
0000000000
0000000000
0000000000
0000000000
FFF000FFF0
FFF000FFF0
FFF000FFF0
FFF000FFF0
FFF000FFF0
FFF000FFF0
FFF000FFF0
FFF000FFF0
FFF000FFF0
FFF000FFF0
FFF000FFF0
FFF000FFF0
FFF000FFF0
FFF000FFF0
FFF000FFF0
FFF000FFF0
FFF000FFF0
FFF000FFF0
FFF000FFF0
FFF000FFF0
FFF000FFF0
FFF000FFF0
FFF000FFF0
FFF000FFF0
FFF000FFF0
FFF000FFF0
FFF000FFF0
FFF000FFF0
FFF000FFF0
FFF000FFE0
FFF000FFE0
FFF000FFE0
FFF001FFE0
7FF801FFE0
7FF803FFE0
7FFC07FFE0
7FFFFFFFC0
3FFFFFFFC0
3FFFFFFF80
1FFFFFFF80
1FFFFFFF00
0FFFFFFE00
07FFFFFE00
03FFFFFC00
01FFFFF800
007FFFE000
001FFF8000
0003F80000
ENDCHAR
STARTCHAR 0169
ENCODING 361
SWIDTH 525 0
DWIDTH 35 0
BBX 30 48 3 -1
BITMAP
00000380
007C0780
00FFCF80
01FFFF00
03FFFF00
03FFFE00
07C7FC00
07807000
07000000
00000000
00000000
00000000
00000000
00000000
FFC00FFC
FFC00FFC
FFC00FFC
FFC00FFC
FFC00FFC
FFC00FFC
FFC00FFC
FFC00FFC
FFC00FFC
FFC00FFC
FFC00FFC
FFC00FFC
FFC00FFC
FFC00FFC
FFC00FFC
FFC00FFC
FFC00FFC
FFC00FFC
FFC00FFC
FFC01FFC
FFC01FFC
FFE01FF8
FFF03FF8
7FFDFFF8
7FFFFFF8
7FFFFFF0
3FFFFFF0
1FFFFFE0
1FFFFFC0
0FFFFF80
07FFFF00
01FFFE00
007FF800
00070000
ENDCHAR
STARTCHAR 0178
ENCODING 376
SWIDTH 555 0
DWIDTH 37 0
BBX 32 61 3 0
BITMAP
00F80F00
01FC3F80
03FC3FC0
03FE3FC0
03FE7FC0
03FC3FC0
01FC3F80
00F81F00
00000000
00000000
00000000
00000000
00000000
00000000
FFE007FF
FFE007FF
FFE007FF
FFE007FF
FFE007FF
FFE007FF
FFE007FF
FFE007FF
FFE007FF
FFE007FF
FFE007FF
FFE007FF
FFE007FF
FFE007FF
FFE007FF
FFE007FF
FFE007FF
FFF00FFF
FFF00FFF
FFF81FFF
7FFC3FFE
7FFFFFFE
7FFFFFFE
3FFFFFFC
3FFFFFFC
1FFFFFF8
0FFFFFF0
07FFFFE0
03FFFFC0
00FFFF00
007FFE00
003FFC00
003FFC00
003FFC00
003FFC00
003FFC00
003FFC00
003FFC00
003FFC00
003FFC00
003FFC00
003FFC00
003FFC00
003FFC00
003FFC00
003FFC00
003FFC00
ENDCHAR
STARTCHAR 017D
ENCODING 381
SWIDTH 525 0
DWIDTH 35 0
BBX 34 63 1 0
BITMAP
01E003E000
01F007C000
00F80FC000
00FC0F8000
007E1F8000
007E3F0000
003F7F0000
003FFE0000
001FFE0000
001FFC0000
000FF80000
0007F80000
0000000000
0000000000
0000000000
0000000000
3FFFFFE000
3FFFFFFC00
3FFFFFFF00
3FFFFFFF80
3FFFFFFF80
3FFFFFFF80
3FFFFFFFC0
3FFFFFFFC0
3FFFFFFFC0
3FFFFFFF80
3FFFFFFF80
00001FFF00
00003FFF00
00007FFE00
00007FFC00
0000FFFC00
0001FFF800
0003FFF000
0003FFE000
0007FFE000
000FFFC000
001FFF8000
001FFF8000
003FFF0000
007FFE0000
00FFFC0000
00FFFC0000
01FFF80000
03FFF00000
03FFE00000
07FFE00000
0FFFC00000
1FFF800000
1FFF800000
3FFF000000
7FFE000000
7FFFFFFFC0
FFFFFFFFC0
FFFFFFFFC0
FFFFFFFFC0
FFFFFFFFC0
FFFFFFFFC0
FFFFFFFFC0
7FFFFFFFC0
7FFFFFFFC0
3FFFFFFFC0
0FFFFFFFC0
ENDCHAR
STARTCHAR 017E
ENCODING 382
SWIDTH 450 0
DWIDTH 30 0
BBX 28 49 1 0
BITMAP
0F800F00
0F801F00
07C03E00
03E07E00
03F0FC00
01F8FC00
01F9F800
00FFF800
00FFF000
007FE000
007FE000
003FC000
00000000
00000000
00000000
00000000
3FFFFF00
3FFFFFC0
3FFFFFE0
3FFFFFE0
3FFFFFF0
3FFFFFF0
3FFFFFF0
3FFFFFF0
3FFFFFE0
0003FFE0
0007FFC0
000FFF80
001FFF00
003FFF00
007FFE00
00FFFC00
00FFF800
01FFF000
03FFE000
07FFC000
0FFF8000
1FFF0000
3FFE0000
7FFFFFF0
7FFFFFF0
FFFFFFF0
FFFFFFF0
FFFFFFF0
FFFFFFF0
FFFFFFF0
7FFFFFF0
3FFFFFF0
0FFFFFF0
ENDCHAR
STARTCHAR 0192
ENCODING 402
SWIDTH 555 0
DWIDTH 37 0
BBX 34 61 1 -14
BITMAP
0000007FC0
00000FFFC0
00001FFFC0
00007FFFC0
00007FFFC0
0000FFFFC0
0000FFFFC0
0001FFFFC0
0001FFFFC0
0001FFF800
0003FFC000
0003FF8000
0003FF8000
0003FF8000
0003FF8000
0007FF8000
0007FF0000
1FFFFFFF80
1FFFFFFF80
1FFFFFFF80
1FFFFFFF80
1FFFFFFF80
1FFFFFFF80
1FFFFFFF80
1FFFFFFF80
1FFFFFFF80
1FFFFFFF80
000FFE0000
000FFE0000
000FFE0000
000FFE0000
001FFC0000
001FFC0000
001FFC0000
001FFC0000
001FFC0000
001FFC0000
001FFC0000
003FFC0000
003FF80000
003FF80000
003FF80000
003FF80000
003FF80000
003FF80000
003FF80000
007FF00000
007FF00000
007FF00000
007FF00000
007FF00000
00FFF00000
FFFFF00000
FFFFE00000
FFFFE00000
FFFFC00000
FFFFC00000
FFFF800000
FFFF000000
FFFE000000
FFF0000000
ENDCHAR
STARTCHAR 01A0
ENCODING 416
SWIDTH 765 0
DWIDTH 51 0
BBX 49 51 2 -1
BITMAP
0000000000FF80
0000000001FF00
0000000001FF00
00007FFE01FE00
0003FFFF83FE00
000FFFFFE3FC00
001FFFFFFBFC00
007FFFFFFFF800
00FFFFFFFFF800
01FFFFFFFFF000
03FFFFFFFFF000
07FFFFFFFFE000
0FFFFFFFFFE000
0FFFFFFFFFF000
1FFFF81FFFF000
1FFFC003FFF800
3FFF8001FFFC00
3FFE0000FFFC00
7FFE00007FFC00
7FFC00003FFE00
7FF800003FFE00
FFF800001FFE00
FFF000001FFE00
FFF000001FFE00
FFF000000FFF00
FFF000000FFF00
FFF000000FFF00
FFF000000FFF00
FFF000000FFF00
FFF000001FFF00
FFF000001FFE00
FFF800001FFE00
7FF800003FFE00
7FFC00003FFE00
7FFC00007FFC00
7FFE0000FFFC00
3FFF0001FFFC00
3FFFC003FFF800
1FFFF00FFFF800
1FFFFFFFFFF000
0FFFFFFFFFE000
07FFFFFFFFE000
03FFFFFFFFC000
01FFFFFFFF8000
00FFFFFFFF0000
007FFFFFFE0000
003FFFFFFC0000
000FFFFFF00000
0007FFFFC00000
0000FFFF000000
00000FE0000000
ENDCHAR
STARTCHAR 01A1
ENCODING 417
SWIDTH 540 0
DWIDTH 36 0
BBX 36 39 2 -1
BITMAP
0000000FF0
0000001FF0
0000001FF0
0000001FE0
0001E03FE0
003FFE3FC0
00FFFFFFC0
01FFFFFF80
07FFFFFF80
0FFFFFFF00
0FFFFFFF00
1FFFFFFE00
3FFFFFFE00
3FFFFFFE00
7FFFFFFF00
7FF81FFF00
FFF00FFF00
FFE007FF80
FFE003FF80
FFE003FF80
FFC003FF80
FFC003FF80
FFC003FF80
FFE003FF80
FFE003FF80
FFF007FF80
FFF00FFF00
7FFC1FFF00
7FFFFFFF00
3FFFFFFE00
3FFFFFFE00
1FFFFFFC00
0FFFFFF800
0FFFFFF000
03FFFFE000
01FFFFC000
00FFFF0000
003FFC0000
0001800000
ENDCHAR
STARTCHAR 01AF
ENCODING 431
SWIDTH 660 0
DWIDTH 44 0
BBX 44 51 3 -1
BITMAP
000000001FF0
000000001FF0
000000001FE0
FFF000FFFFE0
FFF000FFFFC0
FFF000FFFFC0
FFF000FFFF80
FFF000FFFF80
FFF000FFFF00
FFF000FFFF00
FFF000FFFE00
FFF000FFFE00
FFF000FFFC00
FFF000FFFC00
FFF000FFF000
FFF000FFF000
FFF000FFF000
FFF000FFF000
FFF000FFF000
FFF000FFF000
FFF000FFF000
FFF000FFF000
FFF000FFF000
FFF000FFF000
FFF000FFF000
FFF000FFF000
FFF000FFF000
FFF000FFF000
FFF000FFF000
FFF000FFF000
FFF000FFF000
FFF000FFF000
FFF000FFE000
FFF000FFE000
FFF000FFE000
FFF001FFE000
7FF801FFE000
7FF803FFE000
7FFC07FFE000
7FFFFFFFC000
3FFFFFFFC000
3FFFFFFF8000
1FFFFFFF8000
1FFFFFFF0000
0FFFFFFE0000
07FFFFFE0000
03FFFFFC0000
01FFFFF80000
007FFFE00000
001FFF800000
0003F8000000
ENDCHAR
STARTCHAR 01B0
ENCODING 432
SWIDTH 570 0
DWIDTH 38 0
BBX 38 39 3 -1
BITMAP
00000007FC
00000007FC
0000000FF8
0000000FF8
0000000FF0
FFC00FFFF0
FFC00FFFE0
FFC00FFFE0
FFC00FFFC0
FFC00FFFC0
FFC00FFF80
FFC00FFF80
FFC00FFF00
FFC00FFF00
FFC00FFC00
FFC00FFC00
FFC00FFC00
FFC00FFC00
FFC00FFC00
FFC00FFC00
FFC00FFC00
FFC00FFC00
FFC00FFC00
FFC00FFC00
FFC01FFC00
FFC01FFC00
FFE01FF800
FFF03FF800
7FFDFFF800
7FFFFFF800
7FFFFFF000
3FFFFFF000
1FFFFFE000
1FFFFFC000
0FFFFF8000
07FFFF0000
01FFFE0000
007FF80000
0007000000
ENDCHAR
STARTCHAR 02C6
ENCODING 710
SWIDTH 495 0
DWIDTH 33 0
BBX 19 12 7 37
BITMAP
03FC00
07FC00
07FE00
0FFE00
0FFF00
1FBF00
3F9F80
3F1F80
7E0FC0
7C07C0
F803E0
F801E0
ENDCHAR
STARTCHAR 02C7
ENCODING 711
SWIDTH 495 0
DWIDTH 33 0
BBX 20 12 7 37
BITMAP
F001F0
F803E0
7C03E0
7E07C0
3E0FC0
3F1F80
1FBF80
1FFF00
0FFF00
0FFE00
07FE00
07FC00
ENDCHAR
STARTCHAR 02C9
ENCODING 713
SWIDTH 495 0
DWIDTH 33 0
BBX 19 5 7 40
BITMAP
FFFFE0
FFFFE0
FFFFE0
FFFFE0
FFFFE0
ENDCHAR
STARTCHAR 02D8
ENCODING 728
SWIDTH 495 0
DWIDTH 33 0
BBX 20 10 7 38
BITMAP
F000F0
F001F0
F001E0
F803E0
FC07E0
7FFFC0
7FFFC0
3FFF80
1FFF00
07FC00
ENDCHAR
STARTCHAR 02D9
ENCODING 729
SWIDTH 495 0
DWIDTH 33 0
BBX 9 8 12 39
BITMAP
3E00
7F00
7F80
FF80
FF80
7F80
7F00
3E00
ENDCHAR
STARTCHAR 02DA
ENCODING 730
SWIDTH 495 0
DWIDTH 33 0
BBX 17 17 8 37
BITMAP
03F000
0FFC00
1FFE00
3FFF00
7FFF00
7C1F80
F80F80
F80F80
F80780
F80780
F80F80
FC0F80
7F3F00
7FFF00
3FFE00
1FFC00
07F800
ENDCHAR
STARTCHAR 02DB
ENCODING 731
SWIDTH 495 0
DWIDTH 33 0
BBX 11 15 11 -15
BITMAP
0380
0F00
1E00
3C00
3C00
7800
7800
F800
FC00
FFE0
FFE0
7FE0
7FE0
3FE0
0FE0
ENDCHAR
STARTCHAR 02DC
ENCODING 732
SWIDTH 495 0
DWIDTH 33 0
BBX 21 9 6 38
BITMAP
000078
07C078
1FFDF0
3FFFF0
3FFFE0
7FFFE0
7C7FC0
700F00
F00000
ENDCHAR
STARTCHAR 02DD
ENCODING 733
SWIDTH 495 0
DWIDTH 33 0
BBX 20 12 10 37
BITMAP
1FC7F0
1F87E0
3F8FE0
3F0FC0
3F1F80
3E1F80
7C3F00
7C3E00
783C00
F07C00
F07800
E0F000
ENDCHAR
STARTCHAR 0394
ENCODING 916
SWIDTH 705 0
DWIDTH 47 0
BBX 48 48 0 0
BITMAP
00007FFE0000
00007FFE0000
00007FFE0000
0000FFFF0000
0000FFFF0000
0001FFFF0000
0001FFFF8000
0001FFFF8000
0003FFFF8000
0003FFFFC000
0003FFFFC000
0007FFFFE000
0007FFFFE000
0007FFFFE000
000FFFFFF000
000FFE7FF000
001FFE7FF000
001FFE7FF800
001FFC3FF800
003FFC3FF800
003FFC3FFC00
003FF81FFC00
007FF81FFE00
007FF01FFE00
007FF00FFE00
00FFF00FFF00
00FFE00FFF00
01FFE007FF00
01FFE007FF80
01FFC007FF80
03FFC003FFC0
03FFC003FFC0
03FF8003FFC0
07FF8001FFE0
07FF8001FFE0
07FF0001FFE0
0FFF0000FFF0
0FFF0000FFF0
1FFE0000FFF0
1FFFFFFFFFF8
1FFFFFFFFFF8
3FFFFFFFFFFC
3FFFFFFFFFFC
3FFFFFFFFFFC
7FFFFFFFFFFE
7FFFFFFFFFFE
FFFFFFFFFFFE
FFFFFFFFFFFF
ENDCHAR
STARTCHAR 03A9
ENCODING 937
SWIDTH 795 0
DWIDTH 53 0
BBX 51 49 1 0
BITMAP
00001FFF000000
0000FFFFF00000
0003FFFFFC0000
000FFFFFFF0000
003FFFFFFF8000
007FFFFFFFC000
00FFFFFFFFE000
01FFFFFFFFF000
01FFFFFFFFF800
03FFFFFFFFFC00
07FFFE0FFFFC00
07FFF001FFFE00
0FFFE000FFFE00
0FFFC0007FFF00
0FFF80003FFF00
1FFF80001FFF00
1FFF00001FFF00
1FFF00000FFF80
1FFE00000FFF80
1FFE00000FFF80
1FFE00000FFF80
1FFE000007FF80
1FFE000007FF80
1FFE000007FF80
1FFE000007FF80
1FFE00000FFF80
1FFE00000FFF00
1FFE00000FFF00
1FFE00000FFF00
0FFF00000FFF00
0FFF00001FFE00
07FF80001FFE00
07FF80003FFC00
03FFC0003FFC00
01FFC0007FF800
01FFE000FFF000
00FFF001FFE000
007FF803FFC000
001FF803FF8000
FFFFF803FFFFE0
FFFFF803FFFFE0
FFFFF803FFFFE0
FFFFF803FFFFE0
FFFFF803FFFFE0
FFFFF803FFFFE0
FFFFF803FFFFE0
FFFFF803FFFFE0
FFFFF803FFFFE0
FFFFF803FFFFE0
ENDCHAR
STARTCHAR 03BC
ENCODING 956
SWIDTH 630 0
DWIDTH 42 0
BBX 42 49 -1 -14
BITMAP
01FFE003FFC0
01FFE003FFC0
01FFC003FFC0
01FFC003FF80
03FFC003FF80
03FFC007FF80
03FFC007FF80
03FFC007FF80
03FFC007FF80
03FF8007FF00
03FF8007FF00
07FF800FFF00
07FF800FFF00
07FF800FFF00
07FF800FFF00
07FF800FFE00
07FF000FFE00
0FFF000FFE00
0FFF001FFE00
0FFF001FFE00
0FFF001FFE00
0FFF001FFE00
0FFF003FFC00
1FFF003FFC00
1FFF007FFC00
1FFF80FFFC00
1FFFC1FFFC00
1FFFFFFFFC00
1FFFFFFFF800
1FFFFFFFF800
3FFFFFFFF800
3FFFFFFFF800
3FFFFFBFF800
3FF9FFBFF800
3FF8FE3FF000
3FF800000000
7FF800000000
7FF800000000
7FF800000000
7FF000000000
7FF000000000
7FF000000000
7FF000000000
FFF000000000
FFF000000000
FFF000000000
FFE000000000
FFE000000000
FFE000000000
ENDCHAR
STARTCHAR 03C0
ENCODING 960
SWIDTH 735 0
DWIDTH 49 0
BBX 50 35 0 0
BITMAP
01FFFFFFFFFFC0
07FFFFFFFFFFC0
0FFFFFFFFFFFC0
1FFFFFFFFFFF80
3FFFFFFFFFFF80
3FFFFFFFFFFF80
7FFFFFFFFFFF80
7FCFFF01FFE000
7F8FFF01FFE000
7F0FFE01FFE000
FF0FFE01FFC000
000FFE01FFC000
001FFE03FFC000
001FFE03FFC000
001FFE03FFC000
001FFC03FFC000
001FFC03FFC000
001FFC03FF8000
003FFC03FF8000
003FFC07FF8000
003FFC07FF8000
003FFC07FF8000
003FF807FF8000
003FF807FF0000
007FF807FF0000
007FF80FFF0000
007FF80FFF0000
007FF80FFF0000
007FF00FFF0000
007FF00FFE0000
007FF00FFE0000
00FFF00FFE0000
00FFF01FFE0000
00FFF01FFE0000
00FFF01FFE0000
ENDCHAR
STARTCHAR 1EA0
ENCODING 7840
SWIDTH 615 0
DWIDTH 41 0
BBX 36 65 3 -18
BITMAP
000FFF0000
007FFFC000
00FFFFF000
03FFFFF800
07FFFFFC00
0FFFFFFE00
0FFFFFFF00
1FFFFFFF80
3FFFFFFF80
3FFFFFFFC0
3FFFFFFFC0
7FFE07FFC0
7FFC03FFE0
7FF801FFE0
FFF001FFE0
FFF000FFE0
FFF000FFE0
FFF000FFF0
FFF000FFF0
FFF3FFFFF0
FFF3FFFFF0
FFF3FFFFF0
FFF3FFFFF0
FFF3FFFFF0
FFF3FFFFF0
FFF3FFFFF0
FFF3FFFFF0
FFF3FFFFF0
FFF3FFFFF0
FFF3FFFFF0
FFF000FFF0
FFF000FFF0
FFF000FFF0
FFF000FFF0
FFF000FFF0
FFF000FFF0
FFF000FFF0
FFF000FFF0
FFF000FFF0
FFF000FFF0
FFF000FFF0
FFF000FFF0
FFF000FFF0
FFF000FFF0
FFF000FFF0
FFF000FFF0
FFF000FFF0
0000000000
0000000000
0000000000
0000000000
0000700000
0003FC0000
0007FE0000
000FFF0000
000FFF0000
001FFF0000
001FFF0000
001FFF0000
001FFF0000
000FFF0000
000FFF0000
0007FE0000
0003FC0000
0000400000
ENDCHAR
STARTCHAR 1EA1
ENCODING 7841
SWIDTH 555 0
DWIDTH 37 0
BBX 33 52 2 -18
BITMAP
0003C00000
003FFE0000
00FFFF8000
03FFFFC000
07FFFFE000
0FFFFFF000
1FFFFFF800
3FFFFFFC00
3FFFFFFE00
7FFFFFFE00
7FFFFFFF00
FFF81FFF00
FFF007FF00
FFE007FF00
FFE003FF80
FFC003FF80
FFC003FF80
FFC003FF80
FFC003FF80
FFC003FF80
FFE003FF80
FFE003FF80
FFF003FF80
FFFC1BFF80
7FFFFBFF80
7FFFFBFF80
3FFFFBFF80
3FFFFBFF80
1FFFFBFF80
0FFFFBFF80
07FFFBFF80
03FFFBFF80
00FFFBFF80
003FFBFF80
0000000000
0000000000
0000000000
0000000000
0000C00000
0007F80000
000FFC0000
001FFC0000
003FFE0000
003FFE0000
003FFE0000
003FFE0000
003FFE0000
003FFE0000
001FFC0000
000FFC0000
0007F00000
0001800000
ENDCHAR
STARTCHAR 1EA2
ENCODING 7842
SWIDTH 615 0
DWIDTH 41 0
BBX 36 64 3 0
BITMAP
0000F80000
0003FE0000
0007FF0000
000FFF0000
000F8F8000
000F078000
0007078000
00000F8000
00001F8000
0000FF0000
0000FE0000
0000FC0000
0000F00000
0000F00000
0000F00000
0000000000
0000000000
000FFF0000
007FFFC000
00FFFFF000
03FFFFF800
07FFFFFC00
0FFFFFFE00
0FFFFFFF00
1FFFFFFF80
3FFFFFFF80
3FFFFFFFC0
3FFFFFFFC0
7FFE07FFC0
7FFC03FFE0
7FF801FFE0
FFF001FFE0
FFF000FFE0
FFF000FFE0
FFF000FFF0
FFF000FFF0
FFF3FFFFF0
FFF3FFFFF0
FFF3FFFFF0
FFF3FFFFF0
FFF3FFFFF0
FFF3FFFFF0
FFF3FFFFF0
FFF3FFFFF0
FFF3FFFFF0
FFF3FFFFF0
FFF3FFFFF0
FFF000FFF0
FFF000FFF0
FFF000FFF0
FFF000FFF0
FFF000FFF0
FFF000FFF0
FFF000FFF0
FFF000FFF0
FFF000FFF0
FFF000FFF0
FFF000FFF0
FFF000FFF0
FFF000FFF0
FFF000FFF0
FFF000FFF0
FFF000FFF0
FFF000FFF0
ENDCHAR
STARTCHAR 1EA3
ENCODING 7843
SWIDTH 555 0
DWIDTH 37 0
BBX 33 51 2 0
BITMAP
0003F00000
0007F80000
000FFC0000
001FFE0000
001E1E0000
003E1F0000
00041F0000
00001F0000
00007E0000
0001FE0000
0001FC0000
0001F00000
0001C00000
0001C00000
0001C00000
0000000000
0000000000
0003C00000
003FFE0000
00FFFF8000
03FFFFC000
07FFFFE000
0FFFFFF000
1FFFFFF800
3FFFFFFC00
3FFFFFFE00
7FFFFFFE00
7FFFFFFF00
FFF81FFF00
FFF007FF00
FFE007FF00
FFE003FF80
FFC003FF80
FFC003FF80
FFC003FF80
FFC003FF80
FFC003FF80
FFE003FF80
FFE003FF80
FFF003FF80
FFFC1BFF80
7FFFFBFF80
7FFFFBFF80
3FFFFBFF80
3FFFFBFF80
1FFFFBFF80
0FFFFBFF80
07FFFBFF80
03FFFBFF80
00FFFBFF80
003FFBFF80
ENDCHAR
STARTCHAR 1EA4
ENCODING 7844
SWIDTH 615 0
DWIDTH 41 0
BBX 36 75 3 0
BITMAP
0000FF0000
0001FE0000
0001FC0000
0003FC0000
0003F80000
0007F00000
0007E00000
000FC00000
001F800000
001F000000
003F000000
003E000000
0000000000
0000000000
0003FC0000
0007FE0000
000FFE0000
000FFF0000
001FFF0000
001F9F8000
003F1F8000
003F0FC000
007E07C000
007C03E000
00F801E000
00F001F000
0000000000
0000000000
000FFF0000
007FFFC000
00FFFFF000
03FFFFF800
07FFFFFC00
0FFFFFFE00
0FFFFFFF00
1FFFFFFF80
3FFFFFFF80
3FFFFFFFC0
3FFFFFFFC0
7FFE07FFC0
7FFC03FFE0
7FF801FFE0
FFF001FFE0
FFF000FFE0
FFF000FFE0
FFF000FFF0
FFF000FFF0
FFF3FFFFF0
FFF3FFFFF0
FFF3FFFFF0
FFF3FFFFF0
FFF3FFFFF0
FFF3FFFFF0
FFF3FFFFF0
FFF3FFFFF0
FFF3FFFFF0
FFF3FFFFF0
FFF3FFFFF0
FFF000FFF0
FFF000FFF0
FFF000FFF0
FFF000FFF0
FFF000FFF0
FFF000FFF0
FFF000FFF0
FFF000FFF0
FFF000FFF0
FFF000FFF0
FFF000FFF0
FFF000FFF0
FFF000FFF0
FFF000FFF0
FFF000FFF0
FFF000FFF0
FFF000FFF0
ENDCHAR
STARTCHAR 1EA5
ENCODING 7845
SWIDTH 555 0
DWIDTH 37 0
BBX 33 62 2 0
BITMAP
0003FE0000
0003FC0000
0007F80000
0007F00000
000FE00000
000FC00000
001FC00000
001F800000
003F000000
003E000000
007C000000
0078000000
0000000000
0007F80000
000FF80000
000FFC0000
001FFC0000
001FFE0000
003F7E0000
003F3F0000
007E1F0000
00FC1F8000
00F80F8000
01F007C000
01F003E000
0000000000
0000000000
0000000000
0003C00000
003FFE0000
00FFFF8000
03FFFFC000
07FFFFE000
0FFFFFF000
1FFFFFF800
3FFFFFFC00
3FFFFFFE00
7FFFFFFE00
7FFFFFFF00
FFF81FFF00
FFF007FF00
FFE007FF00
FFE003FF80
FFC003FF80
FFC003FF80
FFC003FF80
FFC003FF80
FFC003FF80
FFE003FF80
FFE003FF80
FFF003FF80
FFFC1BFF80
7FFFFBFF80
7FFFFBFF80
3FFFFBFF80
3FFFFBFF80
1FFFFBFF80
0FFFFBFF80
07FFFBFF80
03FFFBFF80
00FFFBFF80
003FFBFF80
ENDCHAR
STARTCHAR 1EA6
ENCODING 7846
SWIDTH 615 0
DWIDTH 41 0
BBX 36 75 3 0
BITMAP
000FF00000
0007F80000
0007F80000
0003FC0000
0001FC0000
0000FE0000
00007E0000
00003F0000
00003F0000
00001F8000
00000F8000
000007C000
0000000000
0000000000
0003FC0000
0007FE0000
000FFE0000
000FFF0000
001FFF0000
001F9F8000
003F1F8000
003F0FC000
007E07C000
007C03E000
00F801E000
00F001F000
0000000000
0000000000
000FFF0000
007FFFC000
00FFFFF000
03FFFFF800
07FFFFFC00
0FFFFFFE00
0FFFFFFF00
1FFFFFFF80
3FFFFFFF80
3FFFFFFFC0
3FFFFFFFC0
7FFE07FFC0
7FFC03FFE0
7FF801FFE0
FFF001FFE0
FFF000FFE0
FFF000FFE0
FFF000FFF0
FFF000FFF0
FFF3FFFFF0
FFF3FFFFF0
FFF3FFFFF0
FFF3FFFFF0
FFF3FFFFF0
FFF3FFFFF0
FFF3FFFFF0
FFF3FFFFF0
FFF3FFFFF0
FFF3FFFFF0
FFF3FFFFF0
FFF000FFF0
FFF000FFF0
FFF000FFF0
FFF000FFF0
FFF000FFF0
FFF000FFF0
FFF000FFF0
FFF000FFF0
FFF000FFF0
FFF000FFF0
FFF000FFF0
FFF000FFF0
FFF000FFF0
FFF000FFF0
FFF000FFF0
FFF000FFF0
FFF000FFF0
ENDCHAR
STARTCHAR 1EA7
ENCODING 7847
SWIDTH 555 0
DWIDTH 37 0
BBX 33 62 2 0
BITMAP
001FE00000
000FF00000
0007F00000
0007F80000
0003F80000
0001FC0000
0000FC0000
00007E0000
00003E0000
00003F0000
00001F0000
00000F8000
0000000000
0007F80000
000FF80000
000FFC0000
001FFC0000
001FFE0000
003F7E0000
003F3F0000
007E1F0000
00FC1F8000
00F80F8000
01F007C000
01F003E000
0000000000
0000000000
0000000000
0003C00000
003FFE0000
00FFFF8000
03FFFFC000
07FFFFE000
0FFFFFF000
1FFFFFF800
3FFFFFFC00
3FFFFFFE00
7FFFFFFE00
7FFFFFFF00
FFF81FFF00
FFF007FF00
FFE007FF00
FFE003FF80
FFC003FF80
FFC003FF80
FFC003FF80
FFC003FF80
FFC003FF80
FFE003FF80
FFE003FF80
FFF003FF80
FFFC1BFF80
7FFFFBFF80
7FFFFBFF80
3FFFFBFF80
3FFFFBFF80
1FFFFBFF80
0FFFFBFF80
07FFFBFF80
03FFFBFF80
00FFFBFF80
003FFBFF80
ENDCHAR
STARTCHAR 1EA8
ENCODING 7848
SWIDTH 615 0
DWIDTH 41 0
BBX 36 75 3 0
BITMAP
000000F800
000001FE00
000003FF00
000007FF80
00000F8F80
00000F0780
0000070780
0000000780
0000000F80
0000007F80
0000007F00
0000007E00
0000007000
0000007000
0003FC7000
0007FE0000
000FFE0000
000FFF0000
001FFF0000
001F9F8000
003F1F8000
003F0FC000
007E07C000
007C03E000
00F801E000
00F001F000
0000000000
0000000000
000FFF0000
007FFFC000
00FFFFF000
03FFFFF800
07FFFFFC00
0FFFFFFE00
0FFFFFFF00
1FFFFFFF80
3FFFFFFF80
3FFFFFFFC0
3FFFFFFFC0
7FFE07FFC0
7FFC03FFE0
7FF801FFE0
FFF001FFE0
FFF000FFE0
FFF000FFE0
FFF000FFF0
FFF000FFF0
FFF3FFFFF0
FFF3FFFFF0
FFF3FFFFF0
FFF3FFFFF0
FFF3FFFFF0
FFF3FFFFF0
FFF3FFFFF0
FFF3FFFFF0
FFF3FFFFF0
FFF3FFFFF0
FFF3FFFFF0
FFF000FFF0
FFF000FFF0
FFF000FFF0
FFF000FFF0
FFF000FFF0
FFF000FFF0
FFF000FFF0
FFF000FFF0
FFF000FFF0
FFF000FFF0
FFF000FFF0
FFF000FFF0
FFF000FFF0
FFF000FFF0
FFF000FFF0
FFF000FFF0
FFF000FFF0
ENDCHAR
STARTCHAR 1EA9
ENCODING 7849
SWIDTH 555 0
DWIDTH 37 0
BBX 33 62 2 0
BITMAP
000003F800
000007FC00
00000FFE00
00000FFF00
00001F0F00
00001E0F00
0000020F00
0000000F00
0000003F00
000000FE00
000000FC00
000000F800
000000E000
0007F8E000
000FF80000
000FFC0000
001FFC0000
001FFE0000
003F7E0000
003F3F0000
007E1F0000
00FC1F8000
00F80F8000
01F007C000
01F003E000
0000000000
0000000000
0000000000
0003C00000
003FFE0000
00FFFF8000
03FFFFC000
07FFFFE000
0FFFFFF000
1FFFFFF800
3FFFFFFC00
3FFFFFFE00
7FFFFFFE00
7FFFFFFF00
FFF81FFF00
FFF007FF00
FFE007FF00
FFE003FF80
FFC003FF80
FFC003FF80
FFC003FF80
FFC003FF80
FFC003FF80
FFE003FF80
FFE003FF80
FFF003FF80
FFFC1BFF80
7FFFFBFF80
7FFFFBFF80
3FFFFBFF80
3FFFFBFF80
1FFFFBFF80
0FFFFBFF80
07FFFBFF80
03FFFBFF80
00FFFBFF80
003FFBFF80
ENDCHAR
STARTCHAR 1EAA
ENCODING 7850
SWIDTH 615 0
DWIDTH 41 0
BBX 36 72 3 0
BITMAP
0000003C00
0003E03C00
000FFFF800
001FFFF800
001FFFF000
003FFFF000
003C3FE000
003C030000
0078000000
0000000000
0000000000
0003FC0000
0007FE0000
000FFE0000
000FFF0000
001FFF0000
001F9F8000
003F1F8000
003F0FC000
007E07C000
007C03E000
00F801E000
00F001F000
0000000000
0000000000
000FFF0000
007FFFC000
00FFFFF000
03FFFFF800
07FFFFFC00
0FFFFFFE00
0FFFFFFF00
1FFFFFFF80
3FFFFFFF80
3FFFFFFFC0
3FFFFFFFC0
7FFE07FFC0
7FFC03FFE0
7FF801FFE0
FFF001FFE0
FFF000FFE0
FFF000FFE0
FFF000FFF0
FFF000FFF0
FFF3FFFFF0
FFF3FFFFF0
FFF3FFFFF0
FFF3FFFFF0
FFF3FFFFF0
FFF3FFFFF0
FFF3FFFFF0
FFF3FFFFF0
FFF3FFFFF0
FFF3FFFFF0
FFF3FFFFF0
FFF000FFF0
FFF000FFF0
FFF000FFF0
FFF000FFF0
FFF000FFF0
FFF000FFF0
FFF000FFF0
FFF000FFF0
FFF000FFF0
FFF000FFF0
FFF000FFF0
FFF000FFF0
FFF000FFF0
FFF000FFF0
FFF000FFF0
FFF000FFF0
FFF000FFF0
ENDCHAR
STARTCHAR 1EAB
ENCODING 7851
SWIDTH 555 0
DWIDTH 37 0
BBX 33 60 2 0
BITMAP
0000007800
0000007800
000FE0F000
001FFFF000
003FFFF000
007FFFE000
007FFFC000
00781F8000
00F0000000
0000000000
0000000000
0007F80000
000FF80000
000FFC0000
001FFC0000
001FFE0000
003F7E0000
003F3F0000
007E1F0000
00FC1F8000
00F80F8000
01F007C000
01F003E000
0000000000
0000000000
0000000000
0003C00000
003FFE0000
00FFFF8000
03FFFFC000
07FFFFE000
0FFFFFF000
1FFFFFF800
3FFFFFFC00
3FFFFFFE00
7FFFFFFE00
7FFFFFFF00
FFF81FFF00
FFF007FF00
FFE007FF00
FFE003FF80
FFC003FF80
FFC003FF80
FFC003FF80
FFC003FF80
FFC003FF80
FFE003FF80
FFE003FF80
FFF003FF80
FFFC1BFF80
7FFFFBFF80
7FFFFBFF80
3FFFFBFF80
3FFFFBFF80
1FFFFBFF80
0FFFFBFF80
07FFFBFF80
03FFFBFF80
00FFFBFF80
003FFBFF80
ENDCHAR
STARTCHAR 1EAC
ENCODING 7852
SWIDTH 615 0
DWIDTH 41 0
BBX 36 79 3 -18
BITMAP
0003FC0000
0007FE0000
000FFE0000
000FFF0000
001FFF0000
001F9F8000
003F1F8000
003F0FC000
007E07C000
007C03E000
00F801E000
00F001F000
0000000000
0000000000
000FFF0000
007FFFC000
00FFFFF000
03FFFFF800
07FFFFFC00
0FFFFFFE00
0FFFFFFF00
1FFFFFFF80
3FFFFFFF80
3FFFFFFFC0
3FFFFFFFC0
7FFE07FFC0
7FFC03FFE0
7FF801FFE0
FFF001FFE0
FFF000FFE0
FFF000FFE0
FFF000FFF0
FFF000FFF0
FFF3FFFFF0
FFF3FFFFF0
FFF3FFFFF0
FFF3FFFFF0
FFF3FFFFF0
FFF3FFFFF0
FFF3FFFFF0
FFF3FFFFF0
FFF3FFFFF0
FFF3FFFFF0
FFF3FFFFF0
FFF000FFF0
FFF000FFF0
FFF000FFF0
FFF000FFF0
FFF000FFF0
FFF000FFF0
FFF000FFF0
FFF000FFF0
FFF000FFF0
FFF000FFF0
FFF000FFF0
FFF000FFF0
FFF000FFF0
FFF000FFF0
FFF000FFF0
FFF000FFF0
FFF000FFF0
0000000000
0000000000
0000000000
0000000000
0000700000
0003FC0000
0007FE0000
000FFF0000
000FFF0000
001FFF0000
001FFF0000
001FFF0000
001FFF0000
000FFF0000
000FFF0000
0007FE0000
0003FC0000
0000400000
ENDCHAR
STARTCHAR 1EAD
ENCODING 7853
SWIDTH 555 0
DWIDTH 37 0
BBX 33 67 2 -18
BITMAP
0007F80000
000FF80000
000FFC0000
001FFC0000
001FFE0000
003F7E0000
003F3F0000
007E1F0000
00FC1F8000
00F80F8000
01F007C000
01F003E000
0000000000
0000000000
0000000000
0003C00000
003FFE0000
00FFFF8000
03FFFFC000
07FFFFE000
0FFFFFF000
1FFFFFF800
3FFFFFFC00
3FFFFFFE00
7FFFFFFE00
7FFFFFFF00
FFF81FFF00
FFF007FF00
FFE007FF00
FFE003FF80
FFC003FF80
FFC003FF80
FFC003FF80
FFC003FF80
FFC003FF80
FFE003FF80
FFE003FF80
FFF003FF80
FFFC1BFF80
7FFFFBFF80
7FFFFBFF80
3FFFFBFF80
3FFFFBFF80
1FFFFBFF80
0FFFFBFF80
07FFFBFF80
03FFFBFF80
00FFFBFF80
003FFBFF80
0000000000
0000000000
0000000000
0000000000
0000C00000
0007F80000
000FFC0000
001FFC0000
003FFE0000
003FFE0000
003FFE0000
003FFE0000
003FFE0000
003FFE0000
001FFC0000
000FFC0000
0007F00000
0001800000
ENDCHAR
STARTCHAR 1EAE
ENCODING 7854
SWIDTH 615 0
DWIDTH 41 0
BBX 36 75 3 0
BITMAP
00001FE000
00003FE000
00003FC000
00007F8000
00007F0000
0000FE0000
0000FC0000
0001F80000
0001F80000
0003F00000
0003E00000
0007C00000
0000000000
0000000000
0000000000
00F000F000
00F000F000
00F801F000
00FC03E000
007F9FE000
007FFFC000
003FFFC000
001FFF8000
000FFE0000
0001F00000
0000000000
0000000000
0000000000
000FFF0000
007FFFC000
00FFFFF000
03FFFFF800
07FFFFFC00
0FFFFFFE00
0FFFFFFF00
1FFFFFFF80
3FFFFFFF80
3FFFFFFFC0
3FFFFFFFC0
7FFE07FFC0
7FFC03FFE0
7FF801FFE0
FFF001FFE0
FFF000FFE0
FFF000FFE0
FFF000FFF0
FFF000FFF0
FFF3FFFFF0
FFF3FFFFF0
FFF3FFFFF0
FFF3FFFFF0
FFF3FFFFF0
FFF3FFFFF0
FFF3FFFFF0
FFF3FFFFF0
FFF3FFFFF0
FFF3FFFFF0
FFF3FFFFF0
FFF000FFF0
FFF000FFF0
FFF000FFF0
FFF000FFF0
FFF000FFF0
FFF000FFF0
FFF000FFF0
FFF000FFF0
FFF000FFF0
FFF000FFF0
FFF000FFF0
FFF000FFF0
FFF000FFF0
FFF000FFF0
FFF000FFF0
FFF000FFF0
FFF000FFF0
ENDCHAR
STARTCHAR 1EAF
ENCODING 7855
SWIDTH 555 0
DWIDTH 37 0
BBX 33 62 2 0
BITMAP
00003FC000
00007F8000
00007F0000
0000FE0000
0001FC0000
0001FC0000
0003F80000
0003F00000
0007E00000
0007C00000
000F800000
000F800000
0000000000
0000000000
01E001E000
01E001E000
01E003C000
01F003C000
00F80FC000
00FFFFC000
007FFF8000
007FFF0000
003FFE0000
000FF80000
0000000000
0000000000
0000000000
0000000000
0003C00000
003FFE0000
00FFFF8000
03FFFFC000
07FFFFE000
0FFFFFF000
1FFFFFF800
3FFFFFFC00
3FFFFFFE00
7FFFFFFE00
7FFFFFFF00
FFF81FFF00
FFF007FF00
FFE007FF00
FFE003FF80
FFC003FF80
FFC003FF80
FFC003FF80
FFC003FF80
FFC003FF80
FFE003FF80
FFE003FF80
FFF003FF80
FFFC1BFF80
7FFFFBFF80
7FFFFBFF80
3FFFFBFF80
3FFFFBFF80
1FFFFBFF80
0FFFFBFF80
07FFFBFF80
03FFFBFF80
00FFFBFF80
003FFBFF80
ENDCHAR
STARTCHAR 1EB0
ENCODING 7856
SWIDTH 615 0
DWIDTH 41 0
BBX 36 75 3 0
BITMAP
00FF800000
007F800000
003FC00000
001FC00000
000FE00000
0007E00000
0007F00000
0003F00000
0001F80000
0000FC0000
00007C0000
00003E0000
0000000000
0000000000
0000000000
00F000F000
00F000F000
00F801F000
00FC03E000
007F9FE000
007FFFC000
003FFFC000
001FFF8000
000FFE0000
0001F00000
0000000000
0000000000
0000000000
000FFF0000
007FFFC000
00FFFFF000
03FFFFF800
07FFFFFC00
0FFFFFFE00
0FFFFFFF00
1FFFFFFF80
3FFFFFFF80
3FFFFFFFC0
3FFFFFFFC0
7FFE07FFC0
7FFC03FFE0
7FF801FFE0
FFF001FFE0
FFF000FFE0
FFF000FFE0
FFF000FFF0
FFF000FFF0
FFF3FFFFF0
FFF3FFFFF0
FFF3FFFFF0
FFF3FFFFF0
FFF3FFFFF0
FFF3FFFFF0
FFF3FFFFF0
FFF3FFFFF0
FFF3FFFFF0
FFF3FFFFF0
FFF3FFFFF0
FFF000FFF0
FFF000FFF0
FFF000FFF0
FFF000FFF0
FFF000FFF0
FFF000FFF0
FFF000FFF0
FFF000FFF0
FFF000FFF0
FFF000FFF0
FFF000FFF0
FFF000FFF0
FFF000FFF0
FFF000FFF0
FFF000FFF0
FFF000FFF0
FFF000FFF0
ENDCHAR
STARTCHAR 1EB1
ENCODING 7857
SWIDTH 555 0
DWIDTH 37 0
BBX 33 62 2 0
BITMAP
00FF000000
00FF000000
007F800000
003F800000
001FC00000
000FE00000
0007E00000
0003F00000
0003F00000
0001F80000
0000F80000
00007C0000
0000000000
0000000000
01E001E000
01E001E000
01E003C000
01F003C000
00F80FC000
00FFFFC000
007FFF8000
007FFF0000
003FFE0000
000FF80000
0000000000
0000000000
0000000000
0000000000
0003C00000
003FFE0000
00FFFF8000
03FFFFC000
07FFFFE000
0FFFFFF000
1FFFFFF800
3FFFFFFC00
3FFFFFFE00
7FFFFFFE00
7FFFFFFF00
FFF81FFF00
FFF007FF00
FFE007FF00
FFE003FF80
FFC003FF80
FFC003FF80
FFC003FF80
FFC003FF80
FFC003FF80
FFE003FF80
FFE003FF80
FFF003FF80
FFFC1BFF80
7FFFFBFF80
7FFFFBFF80
3FFFFBFF80
3FFFFBFF80
1FFFFBFF80
0FFFFBFF80
07FFFBFF80
03FFFBFF80
00FFFBFF80
003FFBFF80
ENDCHAR
STARTCHAR 1EB2
ENCODING 7858
SWIDTH 615 0
DWIDTH 41 0
BBX 36 75 3 0
BITMAP
0000F00000
0003FC0000
0007FE0000
000FFF0000
000F9F0000
001F0F8000
000E0F8000
00000F8000
00001F0000
0000FF0000
0000FE0000
0000FC0000
0000F00000
0000E00000
0000E00000
00F000F000
00F000F000
00F801F000
00FC03E000
007F9FE000
007FFFC000
003FFFC000
001FFF8000
000FFE0000
0001F00000
0000000000
0000000000
0000000000
000FFF0000
007FFFC000
00FFFFF000
03FFFFF800
07FFFFFC00
0FFFFFFE00
0FFFFFFF00
1FFFFFFF80
3FFFFFFF80
3FFFFFFFC0
3FFFFFFFC0
7FFE07FFC0
7FFC03FFE0
7FF801FFE0
FFF001FFE0
FFF000FFE0
FFF000FFE0
FFF000FFF0
FFF000FFF0
FFF3FFFFF0
FFF3FFFFF0
FFF3FFFFF0
FFF3FFFFF0
FFF3FFFFF0
FFF3FFFFF0
FFF3FFFFF0
FFF3FFFFF0
FFF3FFFFF0
FFF3FFFFF0
FFF3FFFFF0
FFF000FFF0
FFF000FFF0
FFF000FFF0
FFF000FFF0
FFF000FFF0
FFF000FFF0
FFF000FFF0
FFF000FFF0
FFF000FFF0
FFF000FFF0
FFF000FFF0
FFF000FFF0
FFF000FFF0
FFF000FFF0
FFF000FFF0
FFF000FFF0
FFF000FFF0
ENDCHAR
STARTCHAR 1EB3
ENCODING 7859
SWIDTH 555 0
DWIDTH 37 0
BBX 33 62 2 0
BITMAP
0003F00000
000FF80000
001FFC0000
001FFE0000
003E1E0000
003C1F0000
00041F0000
00001E0000
00007E0000
0001FE0000
0001FC0000
0001F00000
0001C00000
0001C00000
01E001E000
01E001E000
01E003C000
01F003C000
00F80FC000
00FFFFC000
007FFF8000
007FFF0000
003FFE0000
000FF80000
0000000000
0000000000
0000000000
0000000000
0003C00000
003FFE0000
00FFFF8000
03FFFFC000
07FFFFE000
0FFFFFF000
1FFFFFF800
3FFFFFFC00
3FFFFFFE00
7FFFFFFE00
7FFFFFFF00
FFF81FFF00
FFF007FF00
FFE007FF00
FFE003FF80
FFC003FF80
FFC003FF80
FFC003FF80
FFC003FF80
FFC003FF80
FFE003FF80
FFE003FF80
FFF003FF80
FFFC1BFF80
7FFFFBFF80
7FFFFBFF80
3FFFFBFF80
3FFFFBFF80
1FFFFBFF80
0FFFFBFF80
07FFFBFF80
03FFFBFF80
00FFFBFF80
003FFBFF80
ENDCHAR
STARTCHAR 1EB4
ENCODING 7860
SWIDTH 615 0
DWIDTH 41 0
BBX 36 72 3 0
BITMAP
0000007000
000FC0F000
001FFFF000
003FFFE000
007FFFE000
007FFFC000
00787F8000
00F00E0000
00F0000000
0000000000
0000000000
0000000000
00F000F000
00F000F000
00F801F000
00FC03E000
007F9FE000
007FFFC000
003FFFC000
001FFF8000
000FFE0000
0001F00000
0000000000
0000000000
0000000000
000FFF0000
007FFFC000
00FFFFF000
03FFFFF800
07FFFFFC00
0FFFFFFE00
0FFFFFFF00
1FFFFFFF80
3FFFFFFF80
3FFFFFFFC0
3FFFFFFFC0
7FFE07FFC0
7FFC03FFE0
7FF801FFE0
FFF001FFE0
FFF000FFE0
FFF000FFE0
FFF000FFF0
FFF000FFF0
FFF3FFFFF0
FFF3FFFFF0
FFF3FFFFF0
FFF3FFFFF0
FFF3FFFFF0
FFF3FFFFF0
FFF3FFFFF0
FFF3FFFFF0
FFF3FFFFF0
FFF3FFFFF0
FFF3FFFFF0
FFF000FFF0
FFF000FFF0
FFF000FFF0
FFF000FFF0
FFF000FFF0
FFF000FFF0
FFF000FFF0
FFF000FFF0
FFF000FFF0
FFF000FFF0
FFF000FFF0
FFF000FFF0
FFF000FFF0
FFF000FFF0
FFF000FFF0
FFF000FFF0
FFF000FFF0
ENDCHAR
STARTCHAR 1EB5
ENCODING 7861
SWIDTH 555 0
DWIDTH 37 0
BBX 33 60 2 0
BITMAP
000000F000
000001E000
003FC1E000
007FFFE000
007FFFC000
00FFFFC000
00FFFF8000
01E07E0000
01E0000000
0000000000
0000000000
0000000000
01E001E000
01E001E000
01E003C000
01F003C000
00F80FC000
00FFFFC000
007FFF8000
007FFF0000
003FFE0000
000FF80000
0000000000
0000000000
0000000000
0000000000
0003C00000
003FFE0000
00FFFF8000
03FFFFC000
07FFFFE000
0FFFFFF000
1FFFFFF800
3FFFFFFC00
3FFFFFFE00
7FFFFFFE00
7FFFFFFF00
FFF81FFF00
FFF007FF00
FFE007FF00
FFE003FF80
FFC003FF80
FFC003FF80
FFC003FF80
FFC003FF80
FFC003FF80
FFE003FF80
FFE003FF80
FFF003FF80
FFFC1BFF80
7FFFFBFF80
7FFFFBFF80
3FFFFBFF80
3FFFFBFF80
1FFFFBFF80
0FFFFBFF80
07FFFBFF80
03FFFBFF80
00FFFBFF80
003FFBFF80
ENDCHAR
STARTCHAR 1EB6
ENCODING 7862
SWIDTH 615 0
DWIDTH 41 0
BBX 36 78 3 -18
BITMAP
00F000F000
00F000F000
00F801F000
00FC03E000
007F9FE000
007FFFC000
003FFFC000
001FFF8000
000FFE0000
0001F00000
0000000000
0000000000
0000000000
000FFF0000
007FFFC000
00FFFFF000
03FFFFF800
07FFFFFC00
0FFFFFFE00
0FFFFFFF00
1FFFFFFF80
3FFFFFFF80
3FFFFFFFC0
3FFFFFFFC0
7FFE07FFC0
7FFC03FFE0
7FF801FFE0
FFF001FFE0
FFF000FFE0
FFF000FFE0
FFF000FFF0
FFF000FFF0
FFF3FFFFF0
FFF3FFFFF0
FFF3FFFFF0
FFF3FFFFF0
FFF3FFFFF0
FFF3FFFFF0
FFF3FFFFF0
FFF3FFFFF0
FFF3FFFFF0
FFF3FFFFF0
FFF3FFFFF0
FFF000FFF0
FFF000FFF0
FFF000FFF0
FFF000FFF0
FFF000FFF0
FFF000FFF0
FFF000FFF0
FFF000FFF0
FFF000FFF0
FFF000FFF0
FFF000FFF0
FFF000FFF0
FFF000FFF0
FFF000FFF0
FFF000FFF0
FFF000FFF0
FFF000FFF0
0000000000
0000000000
0000000000
0000000000
0000700000
0003FC0000
0007FE0000
000FFF0000
000FFF0000
001FFF0000
001FFF0000
001FFF0000
001FFF0000
000FFF0000
000FFF0000
0007FE0000
0003FC0000
0000400000
ENDCHAR
STARTCHAR 1EB7
ENCODING 7863
SWIDTH 555 0
DWIDTH 37 0
BBX 33 66 2 -18
BITMAP
01E001E000
01E001E000
01E003C000
01F003C000
00F80FC000
00FFFFC000
007FFF8000
007FFF0000
003FFE0000
000FF80000
0000000000
0000000000
0000000000
0000000000
0003C00000
003FFE0000
00FFFF8000
03FFFFC000
07FFFFE000
0FFFFFF000
1FFFFFF800
3FFFFFFC00
3FFFFFFE00
7FFFFFFE00
7FFFFFFF00
FFF81FFF00
FFF007FF00
FFE007FF00
FFE003FF80
FFC003FF80
FFC003FF80
FFC003FF80
FFC003FF80
FFC003FF80
FFE003FF80
FFE003FF80
FFF003FF80
FFFC1BFF80
7FFFFBFF80
7FFFFBFF80
3FFFFBFF80
3FFFFBFF80
1FFFFBFF80
0FFFFBFF80
07FFFBFF80
03FFFBFF80
00FFFBFF80
003FFBFF80
0000000000
0000000000
0000000000
0000000000
0000C00000
0007F80000
000FFC0000
001FFC0000
003FFE0000
003FFE0000
003FFE0000
003FFE0000
003FFE0000
003FFE0000
001FFC0000
000FFC0000
0007F00000
0001800000
ENDCHAR
STARTCHAR 1EB8
ENCODING 7864
SWIDTH 510 0
DWIDTH 34 0
BBX 30 64 2 -18
BITMAP
0000005C
00003FFC
0003FFFC
000FFFFC
003FFFFC
007FFFFC
00FFFFFC
03FFFFFC
07FFFFFC
07FFFFFC
0FFFFFFC
1FFFFC00
1FFFE000
3FFF8000
3FFE0000
7FFC0000
7FFC0000
7FF80000
FFFFFFFC
FFFFFFFC
FFFFFFFC
FFFFFFFC
FFFFFFFC
FFFFFFFC
FFFFFFFC
FFFFFFFC
FFFFFFFC
FFFFFFFC
FFFFFFFC
FFF80000
7FF80000
7FFC0000
7FFE0000
3FFF0000
3FFFC000
1FFFF000
0FFFFFFC
0FFFFFFC
07FFFFFC
03FFFFFC
01FFFFFC
00FFFFFC
003FFFFC
001FFFFC
0007FFFC
0000FFFC
000007FC
00000000
00000000
00000000
00000000
00001800
0000FF00
0001FF80
0003FFC0
0003FFC0
0007FFC0
0007FFE0
0007FFE0
0007FFC0
0003FFC0
0003FFC0
0001FF80
0000FF00
ENDCHAR
STARTCHAR 1EB9
ENCODING 7865
SWIDTH 540 0
DWIDTH 36 0
BBX 34 52 2 -18
BITMAP
0001C00000
003FFC0000
00FFFF8000
01FFFFC000
07FFFFE000
0FFFFFF000
0FFFFFF800
1FFFFFFC00
3FFFFFFE00
3FF80FFE00
7FF01FFF00
7FE03FFE00
FFE0FFF800
FFC1FFF000
FFC3FFC000
FFCFFF8000
FFC7FF0000
FFC7FC0000
FFC3F83000
FFC3E07C00
FFC1C07F00
FFE000FFC0
FFF001FFC0
7FF807FF80
7FFE3FFF80
3FFFFFFF00
3FFFFFFF00
1FFFFFFE00
0FFFFFFC00
0FFFFFF800
03FFFFF000
01FFFFE000
00FFFF8000
003FFE0000
0001C00000
0000000000
0000000000
0000000000
0001800000
000FF00000
001FF80000
001FFC0000
003FFE0000
003FFE0000
003FFE0000
003FFE0000
003FFE0000
003FFE0000
001FFC0000
001FF80000
0007F00000
0000C00000
ENDCHAR
STARTCHAR 1EBA
ENCODING 7866
SWIDTH 510 0
DWIDTH 34 0
BBX 30 64 2 0
BITMAP
000007C0
00001FF0
00003FF8
00003FF8
00007C7C
0000783C
0000383C
0000003C
000000FC
000007F8
000007F0
000007E0
00000780
00000780
00000780
00000000
00000000
0000005C
00003FFC
0003FFFC
000FFFFC
003FFFFC
007FFFFC
00FFFFFC
03FFFFFC
07FFFFFC
07FFFFFC
0FFFFFFC
1FFFFC00
1FFFE000
3FFF8000
3FFE0000
7FFC0000
7FFC0000
7FF80000
FFFFFFFC
FFFFFFFC
FFFFFFFC
FFFFFFFC
FFFFFFFC
FFFFFFFC
FFFFFFFC
FFFFFFFC
FFFFFFFC
FFFFFFFC
FFFFFFFC
FFF80000
7FF80000
7FFC0000
7FFE0000
3FFF0000
3FFFC000
1FFFF000
0FFFFFFC
0FFFFFFC
07FFFFFC
03FFFFFC
01FFFFFC
00FFFFFC
003FFFFC
001FFFFC
0007FFFC
0000FFFC
000007FC
ENDCHAR
STARTCHAR 1EBB
ENCODING 7867
SWIDTH 540 0
DWIDTH 36 0
BBX 34 52 2 -1
BITMAP
0003F00000
0007F80000
000FFC0000
001FFE0000
001E1E0000
003E1F0000
00041F0000
00001F0000
00007E0000
0001FE0000
0001FC0000
0001F00000
0001C00000
0001C00000
0001C00000
0000000000
0000000000
0001C00000
003FFC0000
00FFFF8000
01FFFFC000
07FFFFE000
0FFFFFF000
0FFFFFF800
1FFFFFFC00
3FFFFFFE00
3FF80FFE00
7FF01FFF00
7FE03FFE00
FFE0FFF800
FFC1FFF000
FFC3FFC000
FFCFFF8000
FFC7FF0000
FFC7FC0000
FFC3F83000
FFC3E07C00
FFC1C07F00
FFE000FFC0
FFF001FFC0
7FF807FF80
7FFE3FFF80
3FFFFFFF00
3FFFFFFF00
1FFFFFFE00
0FFFFFFC00
0FFFFFF800
03FFFFF000
01FFFFE000
00FFFF8000
003FFE0000
0001C00000
ENDCHAR
STARTCHAR 1EBC
ENCODING 7868
SWIDTH 510 0
DWIDTH 34 0
BBX 30 61 2 0
BITMAP
0000001C
0003F03C
0007FFFC
000FFFF8
001FFFF8
001FFFF0
003E1FE0
003C0000
00000000
00000000
00000000
00000000
00000000
00000000
0000005C
00003FFC
0003FFFC
000FFFFC
003FFFFC
007FFFFC
00FFFFFC
03FFFFFC
07FFFFFC
07FFFFFC
0FFFFFFC
1FFFFC00
1FFFE000
3FFF8000
3FFE0000
7FFC0000
7FFC0000
7FF80000
FFFFFFFC
FFFFFFFC
FFFFFFFC
FFFFFFFC
FFFFFFFC
FFFFFFFC
FFFFFFFC
FFFFFFFC
FFFFFFFC
FFFFFFFC
FFFFFFFC
FFF80000
7FF80000
7FFC0000
7FFE0000
3FFF0000
3FFFC000
1FFFF000
0FFFFFFC
0FFFFFFC
07FFFFFC
03FFFFFC
01FFFFFC
00FFFFFC
003FFFFC
001FFFFC
0007FFFC
0000FFFC
000007FC
ENDCHAR
STARTCHAR 1EBD
ENCODING 7869
SWIDTH 540 0
DWIDTH 36 0
BBX 34 48 2 -1
BITMAP
000001C000
003E03C000
007FE7C000
00FFFF8000
01FFFF8000
01FFFF0000
03E3FE0000
03C0380000
0380000000
0000000000
0000000000
0000000000
0000000000
0001C00000
003FFC0000
00FFFF8000
01FFFFC000
07FFFFE000
0FFFFFF000
0FFFFFF800
1FFFFFFC00
3FFFFFFE00
3FF80FFE00
7FF01FFF00
7FE03FFE00
FFE0FFF800
FFC1FFF000
FFC3FFC000
FFCFFF8000
FFC7FF0000
FFC7FC0000
FFC3F83000
FFC3E07C00
FFC1C07F00
FFE000FFC0
FFF001FFC0
7FF807FF80
7FFE3FFF80
3FFFFFFF00
3FFFFFFF00
1FFFFFFE00
0FFFFFFC00
0FFFFFF800
03FFFFF000
01FFFFE000
00FFFF8000
003FFE0000
0001C00000
ENDCHAR
STARTCHAR 1EBE
ENCODING 7870
SWIDTH 510 0
DWIDTH 34 0
BBX 30 75 2 0
BITMAP
00003FC0
00007F80
00007F00
0000FF00
0000FE00
0001FC00
0001F800
0003F000
0007E000
0007C000
000FC000
000F8000
00000000
00000000
0001FF00
0001FF80
0003FF80
0003FFC0
0007FFC0
0007E7E0
000FC7E0
000FC3F0
001F81F0
001F00F8
003E0078
003C007C
00000000
00000000
0000005C
00003FFC
0003FFFC
000FFFFC
003FFFFC
007FFFFC
00FFFFFC
03FFFFFC
07FFFFFC
07FFFFFC
0FFFFFFC
1FFFFC00
1FFFE000
3FFF8000
3FFE0000
7FFC0000
7FFC0000
7FF80000
FFFFFFFC
FFFFFFFC
FFFFFFFC
FFFFFFFC
FFFFFFFC
FFFFFFFC
FFFFFFFC
FFFFFFFC
FFFFFFFC
FFFFFFFC
FFFFFFFC
FFF80000
7FF80000
7FFC0000
7FFE0000
3FFF0000
3FFFC000
1FFFF000
0FFFFFFC
0FFFFFFC
07FFFFFC
03FFFFFC
01FFFFFC
00FFFFFC
003FFFFC
001FFFFC
0007FFFC
0000FFFC
000007FC
ENDCHAR
STARTCHAR 1EBF
ENCODING 7871
SWIDTH 540 0
DWIDTH 36 0
BBX 34 63 2 -1
BITMAP
0003FC0000
0003F80000
0007F80000
000FF00000
000FE00000
001FC00000
001F800000
003F000000
003F000000
007E000000
007C000000
00F8000000
0000000000
000FF00000
000FF80000
001FFC0000
001FFC0000
003FFE0000
003F7E0000
007E7F0000
007E3F0000
00FC1F8000
00F80F8000
01F007C000
01E007C000
0000000000
0000000000
0000000000
0001C00000
003FFC0000
00FFFF8000
01FFFFC000
07FFFFE000
0FFFFFF000
0FFFFFF800
1FFFFFFC00
3FFFFFFE00
3FF80FFE00
7FF01FFF00
7FE03FFE00
FFE0FFF800
FFC1FFF000
FFC3FFC000
FFCFFF8000
FFC7FF0000
FFC7FC0000
FFC3F83000
FFC3E07C00
FFC1C07F00
FFE000FFC0
FFF001FFC0
7FF807FF80
7FFE3FFF80
3FFFFFFF00
3FFFFFFF00
1FFFFFFE00
0FFFFFFC00
0FFFFFF800
03FFFFF000
01FFFFE000
00FFFF8000
003FFE0000
0001C00000
ENDCHAR
STARTCHAR 1EC0
ENCODING 7872
SWIDTH 510 0
DWIDTH 34 0
BBX 30 75 2 0
BITMAP
0003FC00
0001FE00
0001FE00
0000FF00
00007F00
00003F80
00001F80
00000FC0
00000FC0
000007E0
000003E0
000001F0
00000000
00000000
0001FF00
0001FF80
0003FF80
0003FFC0
0007FFC0
0007E7E0
000FC7E0
000FC3F0
001F81F0
001F00F8
003E0078
003C007C
00000000
00000000
0000005C
00003FFC
0003FFFC
000FFFFC
003FFFFC
007FFFFC
00FFFFFC
03FFFFFC
07FFFFFC
07FFFFFC
0FFFFFFC
1FFFFC00
1FFFE000
3FFF8000
3FFE0000
7FFC0000
7FFC0000
7FF80000
FFFFFFFC
FFFFFFFC
FFFFFFFC
FFFFFFFC
FFFFFFFC
FFFFFFFC
FFFFFFFC
FFFFFFFC
FFFFFFFC
FFFFFFFC
FFFFFFFC
FFF80000
7FF80000
7FFC0000
7FFE0000
3FFF0000
3FFFC000
1FFFF000
0FFFFFFC
0FFFFFFC
07FFFFFC
03FFFFFC
01FFFFFC
00FFFFFC
003FFFFC
001FFFFC
0007FFFC
0000FFFC
000007FC
ENDCHAR
STARTCHAR 1EC1
ENCODING 7873
SWIDTH 540 0
DWIDTH 36 0
BBX 34 63 2 -1
BITMAP
001FE00000
001FE00000
000FF00000
0007F00000
0003F80000
0001FC0000
0000FC0000
00007E0000
00007E0000
00003F0000
00001F0000
00000F8000
0000000000
000FF00000
000FF80000
001FFC0000
001FFC0000
003FFE0000
003F7E0000
007E7F0000
007E3F0000
00FC1F8000
00F80F8000
01F007C000
01E007C000
0000000000
0000000000
0000000000
0001C00000
003FFC0000
00FFFF8000
01FFFFC000
07FFFFE000
0FFFFFF000
0FFFFFF800
1FFFFFFC00
3FFFFFFE00
3FF80FFE00
7FF01FFF00
7FE03FFE00
FFE0FFF800
FFC1FFF000
FFC3FFC000
FFCFFF8000
FFC7FF0000
FFC7FC0000
FFC3F83000
FFC3E07C00
FFC1C07F00
FFE000FFC0
FFF001FFC0
7FF807FF80
7FFE3FFF80
3FFFFFFF00
3FFFFFFF00
1FFFFFFE00
0FFFFFFC00
0FFFFFF800
03FFFFF000
01FFFFE000
00FFFF8000
003FFE0000
0001C00000
ENDCHAR
STARTCHAR 1EC2
ENCODING 7874
SWIDTH 510 0
DWIDTH 34 0
BBX 35 75 2 0
BITMAP
0000003E00
0000007F80
000000FFC0
000001FFE0
000003E3E0
000003C1E0
000001C1E0
00000001E0
00000003E0
0000001FE0
0000001FC0
0000001F80
0000001C00
0000001C00
0001FF1C00
0001FF8000
0003FF8000
0003FFC000
0007FFC000
0007E7E000
000FC7E000
000FC3F000
001F81F000
001F00F800
003E007800
003C007C00
0000000000
0000000000
0000005C00
00003FFC00
0003FFFC00
000FFFFC00
003FFFFC00
007FFFFC00
00FFFFFC00
03FFFFFC00
07FFFFFC00
07FFFFFC00
0FFFFFFC00
1FFFFC0000
1FFFE00000
3FFF800000
3FFE000000
7FFC000000
7FFC000000
7FF8000000
FFFFFFFC00
FFFFFFFC00
FFFFFFFC00
FFFFFFFC00
FFFFFFFC00
FFFFFFFC00
FFFFFFFC00
FFFFFFFC00
FFFFFFFC00
FFFFFFFC00
FFFFFFFC00
FFF8000000
7FF8000000
7FFC000000
7FFE000000
3FFF000000
3FFFC00000
1FFFF00000
0FFFFFFC00
0FFFFFFC00
07FFFFFC00
03FFFFFC00
01FFFFFC00
00FFFFFC00
003FFFFC00
001FFFFC00
0007FFFC00
0000FFFC00
000007FC00
ENDCHAR
STARTCHAR 1EC3
ENCODING 7875
SWIDTH 540 0
DWIDTH 36 0
BBX 34 63 2 -1
BITMAP
000003F800
000007FC00
00000FFE00
00001FFE00
00001E1F00
00001E0F00
0000020F00
0000001F00
0000003F00
000001FE00
000001FC00
000001F800
000001E000
000FF1E000
000FF80000
001FFC0000
001FFC0000
003FFE0000
003F7E0000
007E7F0000
007E3F0000
00FC1F8000
00F80F8000
01F007C000
01E007C000
0000000000
0000000000
0000000000
0001C00000
003FFC0000
00FFFF8000
01FFFFC000
07FFFFE000
0FFFFFF000
0FFFFFF800
1FFFFFFC00
3FFFFFFE00
3FF80FFE00
7FF01FFF00
7FE03FFE00
FFE0FFF800
FFC1FFF000
FFC3FFC000
FFCFFF8000
FFC7FF0000
FFC7FC0000
FFC3F83000
FFC3E07C00
FFC1C07F00
FFE000FFC0
FFF001FFC0
7FF807FF80
7FFE3FFF80
3FFFFFFF00
3FFFFFFF00
1FFFFFFE00
0FFFFFFC00
0FFFFFF800
03FFFFF000
01FFFFE000
00FFFF8000
003FFE0000
0001C00000
ENDCHAR
STARTCHAR 1EC4
ENCODING 7876
SWIDTH 510 0
DWIDTH 34 0
BBX 32 72 2 0
BITMAP
0000000F
0000F80F
0003FFFE
0007FFFE
0007FFFC
000FFFFC
000F0FF8
000E0040
001E0000
00000000
00000000
0001FF00
0001FF80
0003FF80
0003FFC0
0007FFC0
0007E7E0
000FC7E0
000FC3F0
001F81F0
001F00F8
003E0078
003C007C
00000000
00000000
0000005C
00003FFC
0003FFFC
000FFFFC
003FFFFC
007FFFFC
00FFFFFC
03FFFFFC
07FFFFFC
07FFFFFC
0FFFFFFC
1FFFFC00
1FFFE000
3FFF8000
3FFE0000
7FFC0000
7FFC0000
7FF80000
FFFFFFFC
FFFFFFFC
FFFFFFFC
FFFFFFFC
FFFFFFFC
FFFFFFFC
FFFFFFFC
FFFFFFFC
FFFFFFFC
FFFFFFFC
FFFFFFFC
FFF80000
7FF80000
7FFC0000
7FFE0000
3FFF0000
3FFFC000
1FFFF000
0FFFFFFC
0FFFFFFC
07FFFFFC
03FFFFFC
01FFFFFC
00FFFFFC
003FFFFC
001FFFFC
0007FFFC
0000FFFC
000007FC
ENDCHAR
STARTCHAR 1EC5
ENCODING 7877
SWIDTH 540 0
DWIDTH 36 0
BBX 34 61 2 -1
BITMAP
0000007800
0000007000
000FE0F000
003FFFF000
003FFFE000
007FFFE000
007FFFC000
00F83F8000
00F0000000
0000000000
0000000000
000FF00000
000FF80000
001FFC0000
001FFC0000
003FFE0000
003F7E0000
007E7F0000
007E3F0000
00FC1F8000
00F80F8000
01F007C000
01E007C000
0000000000
0000000000
0000000000
0001C00000
003FFC0000
00FFFF8000
01FFFFC000
07FFFFE000
0FFFFFF000
0FFFFFF800
1FFFFFFC00
3FFFFFFE00
3FF80FFE00
7FF01FFF00
7FE03FFE00
FFE0FFF800
FFC1FFF000
FFC3FFC000
FFCFFF8000
FFC7FF0000
FFC7FC0000
FFC3F83000
FFC3E07C00
FFC1C07F00
FFE000FFC0
FFF001FFC0
7FF807FF80
7FFE3FFF80
3FFFFFFF00
3FFFFFFF00
1FFFFFFE00
0FFFFFFC00
0FFFFFF800
03FFFFF000
01FFFFE000
00FFFF8000
003FFE0000
0001C00000
ENDCHAR
STARTCHAR 1EC6
ENCODING 7878
SWIDTH 510 0
DWIDTH 34 0
BBX 30 78 2 -18
BITMAP
0001FF00
0001FF80
0003FF80
0003FFC0
0007FFC0
0007E7E0
000FC7E0
000FC3F0
001F81F0
001F00F8
003E0078
003C007C
00000000
00000000
0000005C
00003FFC
0003FFFC
000FFFFC
003FFFFC
007FFFFC
00FFFFFC
03FFFFFC
07FFFFFC
07FFFFFC
0FFFFFFC
1FFFFC00
1FFFE000
3FFF8000
3FFE0000
7FFC0000
7FFC0000
7FF80000
FFFFFFFC
FFFFFFFC
FFFFFFFC
FFFFFFFC
FFFFFFFC
FFFFFFFC
FFFFFFFC
FFFFFFFC
FFFFFFFC
FFFFFFFC
FFFFFFFC
FFF80000
7FF80000
7FFC0000
7FFE0000
3FFF0000
3FFFC000
1FFFF000
0FFFFFFC
0FFFFFFC
07FFFFFC
03FFFFFC
01FFFFFC
00FFFFFC
003FFFFC
001FFFFC
0007FFFC
0000FFFC
000007FC
00000000
00000000
00000000
00000000
00001800
0000FF00
0001FF80
0003FFC0
0003FFC0
0007FFC0
0007FFE0
0007FFE0
0007FFC0
0003FFC0
0003FFC0
0001FF80
0000FF00
ENDCHAR
STARTCHAR 1EC7
ENCODING 7879
SWIDTH 540 0
DWIDTH 36 0
BBX 34 67 2 -18
BITMAP
000FF00000
000FF80000
001FFC0000
001FFC0000
003FFE0000
003F7E0000
007E7F0000
007E3F0000
00FC1F8000
00F80F8000
01F007C000
01E007C000
0000000000
0000000000
0000000000
0001C00000
003FFC0000
00FFFF8000
01FFFFC000
07FFFFE000
0FFFFFF000
0FFFFFF800
1FFFFFFC00
3FFFFFFE00
3FF80FFE00
7FF01FFF00
7FE03FFE00
FFE0FFF800
FFC1FFF000
FFC3FFC000
FFCFFF8000
FFC7FF0000
FFC7FC0000
FFC3F83000
FFC3E07C00
FFC1C07F00
FFE000FFC0
FFF001FFC0
7FF807FF80
7FFE3FFF80
3FFFFFFF00
3FFFFFFF00
1FFFFFFE00
0FFFFFFC00
0FFFFFF800
03FFFFF000
01FFFFE000
00FFFF8000
003FFE0000
0001C00000
0000000000
0000000000
0000000000
0001800000
000FF00000
001FF80000
001FFC0000
003FFE0000
003FFE0000
003FFE0000
003FFE0000
003FFE0000
003FFE0000
001FFC0000
001FF80000
0007F00000
0000C00000
ENDCHAR
STARTCHAR 1EC8
ENCODING 7880
SWIDTH 270 0
DWIDTH 18 0
BBX 13 64 3 0
BITMAP
0F80
3FE0
7FF0
7FF8
F8F8
F078
3078
0078
00F8
07F0
07F0
07C0
0700
0700
0700
0000
0000
7FF0
7FF0
7FF0
7FF0
7FF0
7FF0
7FF0
7FF0
7FF0
7FF0
7FF0
7FF0
7FF0
7FF0
7FF0
7FF0
7FF0
7FF0
7FF0
7FF0
7FF0
7FF0
7FF0
7FF0
7FF0
7FF0
7FF0
7FF0
7FF0
7FF0
7FF0
7FF0
7FF0
7FF0
7FF0
7FF0
7FF0
7FF0
7FF0
7FF0
7FF0
7FF0
7FF0
7FF0
7FF0
7FF0
7FF0
ENDCHAR
STARTCHAR 1EC9
ENCODING 7881
SWIDTH 240 0
DWIDTH 16 0
BBX 14 51 2 0
BITMAP
0FC0
3FE0
7FF0
7FF8
F878
F078
307C
0078
01F8
07F8
07F0
07C0
0700
0700
0700
0000
0000
0000
7FF0
7FF0
7FF0
7FF0
7FF0
7FF0
7FF0
7FF0
7FF0
7FF0
7FF0
7FF0
7FF0
7FF0
7FF0
7FF0
7FF0
7FF0
7FF0
7FF0
7FF0
7FF0
7FF0
7FF0
7FF0
7FF0
7FF0
7FF0
7FF0
7FF0
7FF0
7FF0
7FF0
ENDCHAR
STARTCHAR 1ECA
ENCODING 7882
SWIDTH 270 0
DWIDTH 18 0
BBX 13 65 3 -18
BITMAP
7FF0
7FF0
7FF0
7FF0
7FF0
7FF0
7FF0
7FF0
7FF0
7FF0
7FF0
7FF0
7FF0
7FF0
7FF0
7FF0
7FF0
7FF0
7FF0
7FF0
7FF0
7FF0
7FF0
7FF0
7FF0
7FF0
7FF0
7FF0
7FF0
7FF0
7FF0
7FF0
7FF0
7FF0
7FF0
7FF0
7FF0
7FF0
7FF0
7FF0
7FF0
7FF0
7FF0
7FF0
7FF0
7FF0
7FF0
0000
0000
0000
0000
0700
1FC0
7FF0
7FF0
FFF8
FFF8
FFF8
FFF8
FFF8
FFF8
7FF0
3FE0
1FC0
0200
ENDCHAR
STARTCHAR 1ECB
ENCODING 7883
SWIDTH 240 0
DWIDTH 16 0
BBX 13 66 2 -18
BITMAP
0F80
3FC0
7FE0
7FF0
FFF0
FFF0
FFF0
FFF0
7FF0
7FE0
3FE0
0F80
0000
0000
0000
7FF0
7FF0
7FF0
7FF0
7FF0
7FF0
7FF0
7FF0
7FF0
7FF0
7FF0
7FF0
7FF0
7FF0
7FF0
7FF0
7FF0
7FF0
7FF0
7FF0
7FF0
7FF0
7FF0
7FF0
7FF0
7FF0
7FF0
7FF0
7FF0
7FF0
7FF0
7FF0
7FF0
0000
0000
0000
0000
0600
3FC0
7FE0
7FF0
FFF8
FFF8
FFF8
FFF8
FFF8
FFF8
7FF0
7FE0
1FC0
0300
ENDCHAR
STARTCHAR 1ECC
ENCODING 7884
SWIDTH 765 0
DWIDTH 51 0
BBX 48 65 2 -18
BITMAP
00007FFE0000
0003FFFF8000
000FFFFFE000
001FFFFFF800
007FFFFFFC00
00FFFFFFFF00
01FFFFFFFF80
03FFFFFFFFC0
07FFFFFFFFC0
0FFFFFFFFFE0
0FFFFFFFFFF0
1FFFF81FFFF0
1FFFC003FFF8
3FFF8001FFFC
3FFE0000FFFC
7FFE00007FFC
7FFC00003FFE
7FF800003FFE
FFF800001FFE
FFF000001FFE
FFF000001FFE
FFF000000FFF
FFF000000FFF
FFF000000FFF
FFF000000FFF
FFF000000FFF
FFF000001FFF
FFF000001FFE
FFF800001FFE
7FF800003FFE
7FFC00003FFE
7FFC00007FFC
7FFE0000FFFC
3FFF0001FFFC
3FFFC003FFF8
1FFFF00FFFF8
1FFFFFFFFFF0
0FFFFFFFFFE0
07FFFFFFFFE0
03FFFFFFFFC0
01FFFFFFFF80
00FFFFFFFF00
007FFFFFFE00
003FFFFFFC00
000FFFFFF000
0007FFFFC000
0000FFFF0000
00000FE00000
000000000000
000000000000
000000000000
000001800000
00000FF00000
00001FF80000
00003FF80000
00007FFC0000
00007FFC0000
00007FFC0000
00007FFC0000
00007FFC0000
00003FFC0000
00003FF80000
00001FF80000
00000FE00000
000003000000
ENDCHAR
STARTCHAR 1ECD
ENCODING 7885
SWIDTH 540 0
DWIDTH 36 0
BBX 33 52 2 -18
BITMAP
0001E00000
003FFE0000
00FFFF8000
01FFFFC000
07FFFFE000
0FFFFFF000
0FFFFFF800
1FFFFFFC00
3FFFFFFE00
3FFFFFFE00
7FFFFFFF00
7FF81FFF00
FFF00FFF00
FFE007FF80
FFE003FF80
FFE003FF80
FFC003FF80
FFC003FF80
FFC003FF80
FFE003FF80
FFE003FF80
FFF007FF80
FFF00FFF00
7FFC1FFF00
7FFFFFFF00
3FFFFFFE00
3FFFFFFE00
1FFFFFFC00
0FFFFFF800
0FFFFFF000
03FFFFE000
01FFFFC000
00FFFF0000
003FFC0000
0001800000
0000000000
0000000000
0000000000
0001800000
000FF00000
001FF80000
001FFC0000
003FFE0000
003FFE0000
003FFE0000
003FFE0000
003FFE0000
003FFE0000
001FFC0000
001FF80000
0007F00000
0000C00000
ENDCHAR
STARTCHAR 1ECE
ENCODING 7886
SWIDTH 765 0
DWIDTH 51 0
BBX 48 65 2 -1
BITMAP
000003E00000
00000FF00000
00001FF80000
00003FFC0000
00003E3E0000
00003C3E0000
00001C1E0000
0000003E0000
0000007E0000
000003FC0000
000003F80000
000003F00000
000003800000
000003800000
000003800000
000000000000
000000000000
00007FFE0000
0003FFFF8000
000FFFFFE000
001FFFFFF800
007FFFFFFC00
00FFFFFFFF00
01FFFFFFFF80
03FFFFFFFFC0
07FFFFFFFFC0
0FFFFFFFFFE0
0FFFFFFFFFF0
1FFFF81FFFF0
1FFFC003FFF8
3FFF8001FFFC
3FFE0000FFFC
7FFE00007FFC
7FFC00003FFE
7FF800003FFE
FFF800001FFE
FFF000001FFE
FFF000001FFE
FFF000000FFF
FFF000000FFF
FFF000000FFF
FFF000000FFF
FFF000000FFF
FFF000001FFF
FFF000001FFE
FFF800001FFE
7FF800003FFE
7FFC00003FFE
7FFC00007FFC
7FFE0000FFFC
3FFF0001FFFC
3FFFC003FFF8
1FFFF00FFFF8
1FFFFFFFFFF0
0FFFFFFFFFE0
07FFFFFFFFE0
03FFFFFFFFC0
01FFFFFFFF80
00FFFFFFFF00
007FFFFFFE00
003FFFFFFC00
000FFFFFF000
0007FFFFC000
0000FFFF0000
00000FE00000
ENDCHAR
STARTCHAR 1ECF
ENCODING 7887
SWIDTH 540 0
DWIDTH 36 0
BBX 33 52 2 -1
BITMAP
0003F00000
0007F80000
000FFC0000
001FFE0000
001E1E0000
003E1F0000
00041F0000
00001F0000
00007E0000
0001FE0000
0001FC0000
0001F00000
0001C00000
0001C00000
0001C00000
0000000000
0000000000
0001E00000
003FFE0000
00FFFF8000
01FFFFC000
07FFFFE000
0FFFFFF000
0FFFFFF800
1FFFFFFC00
3FFFFFFE00
3FFFFFFE00
7FFFFFFF00
7FF81FFF00
FFF00FFF00
FFE007FF80
FFE003FF80
FFE003FF80
FFC003FF80
FFC003FF80
FFC003FF80
FFE003FF80
FFE003FF80
FFF007FF80
FFF00FFF00
7FFC1FFF00
7FFFFFFF00
3FFFFFFE00
3FFFFFFE00
1FFFFFFC00
0FFFFFF800
0FFFFFF000
03FFFFE000
01FFFFC000
00FFFF0000
003FFC0000
0001800000
ENDCHAR
STARTCHAR 1ED0
ENCODING 7888
SWIDTH 765 0
DWIDTH 51 0
BBX 48 76 2 -1
BITMAP
000003FC0000
000007F80000
000007F00000
00000FE00000
00001FE00000
00001FC00000
00003F800000
00003F000000
00007E000000
00007C000000
0000FC000000
0000F8000000
000000000000
000000000000
00001FF00000
00001FF80000
00003FF80000
00003FFC0000
00007FFC0000
00007EFE0000
0000FC7E0000
0000F83F0000
0001F81F0000
0001F00F8000
0003E00F8000
0003C007C000
000000000000
000000000000
00007FFE0000
0003FFFF8000
000FFFFFE000
001FFFFFF800
007FFFFFFC00
00FFFFFFFF00
01FFFFFFFF80
03FFFFFFFFC0
07FFFFFFFFC0
0FFFFFFFFFE0
0FFFFFFFFFF0
1FFFF81FFFF0
1FFFC003FFF8
3FFF8001FFFC
3FFE0000FFFC
7FFE00007FFC
7FFC00003FFE
7FF800003FFE
FFF800001FFE
FFF000001FFE
FFF000001FFE
FFF000000FFF
FFF000000FFF
FFF000000FFF
FFF000000FFF
FFF000000FFF
FFF000001FFF
FFF000001FFE
FFF800001FFE
7FF800003FFE
7FFC00003FFE
7FFC00007FFC
7FFE0000FFFC
3FFF0001FFFC
3FFFC003FFF8
1FFFF00FFFF8
1FFFFFFFFFF0
0FFFFFFFFFE0
07FFFFFFFFE0
03FFFFFFFFC0
01FFFFFFFF80
00FFFFFFFF00
007FFFFFFE00
003FFFFFFC00
000FFFFFF000
0007FFFFC000
0000FFFF0000
00000FE00000
ENDCHAR
STARTCHAR 1ED1
ENCODING 7889
SWIDTH 540 0
DWIDTH 36 0
BBX 33 63 2 -1
BITMAP
0003FC0000
0007F80000
0007F80000
000FF00000
000FE00000
001FC00000
001F800000
003F000000
003F000000
007E000000
007C000000
00F8000000
0000000000
000FF00000
000FF80000
001FF80000
001FFC0000
003FFE0000
003F7E0000
007E7F0000
007E3F0000
00FC1F8000
00F80F8000
01F007C000
01E007C000
0000000000
0000000000
0000000000
0001E00000
003FFE0000
00FFFF8000
01FFFFC000
07FFFFE000
0FFFFFF000
0FFFFFF800
1FFFFFFC00
3FFFFFFE00
3FFFFFFE00
7FFFFFFF00
7FF81FFF00
FFF00FFF00
FFE007FF80
FFE003FF80
FFE003FF80
FFC003FF80
FFC003FF80
FFC003FF80
FFE003FF80
FFE003FF80
FFF007FF80
FFF00FFF00
7FFC1FFF00
7FFFFFFF00
3FFFFFFE00
3FFFFFFE00
1FFFFFFC00
0FFFFFF800
0FFFFFF000
03FFFFE000
01FFFFC000
00FFFF0000
003FFC0000
0001800000
ENDCHAR
STARTCHAR 1ED2
ENCODING 7890
SWIDTH 765 0
DWIDTH 51 0
BBX 48 76 2 -1
BITMAP
00003FC00000
00003FC00000
00001FE00000
00000FF00000
000007F00000
000003F80000
000001F80000
000000FC0000
000000FC0000
0000007E0000
0000003E0000
0000001F0000
000000000000
000000000000
00001FF00000
00001FF80000
00003FF80000
00003FFC0000
00007FFC0000
00007EFE0000
0000FC7E0000
0000F83F0000
0001F81F0000
0001F00F8000
0003E00F8000
0003C007C000
000000000000
000000000000
00007FFE0000
0003FFFF8000
000FFFFFE000
001FFFFFF800
007FFFFFFC00
00FFFFFFFF00
01FFFFFFFF80
03FFFFFFFFC0
07FFFFFFFFC0
0FFFFFFFFFE0
0FFFFFFFFFF0
1FFFF81FFFF0
1FFFC003FFF8
3FFF8001FFFC
3FFE0000FFFC
7FFE00007FFC
7FFC00003FFE
7FF800003FFE
FFF800001FFE
FFF000001FFE
FFF000001FFE
FFF000000FFF
FFF000000FFF
FFF000000FFF
FFF000000FFF
FFF000000FFF
FFF000001FFF
FFF000001FFE
FFF800001FFE
7FF800003FFE
7FFC00003FFE
7FFC00007FFC
7FFE0000FFFC
3FFF0001FFFC
3FFFC003FFF8
1FFFF00FFFF8
1FFFFFFFFFF0
0FFFFFFFFFE0
07FFFFFFFFE0
03FFFFFFFFC0
01FFFFFFFF80
00FFFFFFFF00
007FFFFFFE00
003FFFFFFC00
000FFFFFF000
0007FFFFC000
0000FFFF0000
00000FE00000
ENDCHAR
STARTCHAR 1ED3
ENCODING 7891
SWIDTH 540 0
DWIDTH 36 0
BBX 33 63 2 -1
BITMAP
001FE00000
001FE00000
000FF00000
0007F00000
0003F80000
0001F80000
0000FC0000
0000FE0000
00007E0000
00003F0000
00001F0000
00000F8000
0000000000
000FF00000
000FF80000
001FF80000
001FFC0000
003FFE0000
003F7E0000
007E7F0000
007E3F0000
00FC1F8000
00F80F8000
01F007C000
01E007C000
0000000000
0000000000
0000000000
0001E00000
003FFE0000
00FFFF8000
01FFFFC000
07FFFFE000
0FFFFFF000
0FFFFFF800
1FFFFFFC00
3FFFFFFE00
3FFFFFFE00
7FFFFFFF00
7FF81FFF00
FFF00FFF00
FFE007FF80
FFE003FF80
FFE003FF80
FFC003FF80
FFC003FF80
FFC003FF80
FFE003FF80
FFE003FF80
FFF007FF80
FFF00FFF00
7FFC1FFF00
7FFFFFFF00
3FFFFFFE00
3FFFFFFE00
1FFFFFFC00
0FFFFFF800
0FFFFFF000
03FFFFE000
01FFFFC000
00FFFF0000
003FFC0000
0001800000
ENDCHAR
STARTCHAR 1ED4
ENCODING 7892
SWIDTH 765 0
DWIDTH 51 0
BBX 48 76 2 -1
BITMAP
00000003E000
00000007F800
0000000FFC00
0000001FFE00
0000003E3E00
0000003C1E00
0000001C1E00
000000001E00
000000003E00
00000001FE00
00000001FC00
00000001F800
00000001C000
00000001C000
00001FF1C000
00001FF80000
00003FF80000
00003FFC0000
00007FFC0000
00007EFE0000
0000FC7E0000
0000F83F0000
0001F81F0000
0001F00F8000
0003E00F8000
0003C007C000
000000000000
000000000000
00007FFE0000
0003FFFF8000
000FFFFFE000
001FFFFFF800
007FFFFFFC00
00FFFFFFFF00
01FFFFFFFF80
03FFFFFFFFC0
07FFFFFFFFC0
0FFFFFFFFFE0
0FFFFFFFFFF0
1FFFF81FFFF0
1FFFC003FFF8
3FFF8001FFFC
3FFE0000FFFC
7FFE00007FFC
7FFC00003FFE
7FF800003FFE
FFF800001FFE
FFF000001FFE
FFF000001FFE
FFF000000FFF
FFF000000FFF
FFF000000FFF
FFF000000FFF
FFF000000FFF
FFF000001FFF
FFF000001FFE
FFF800001FFE
7FF800003FFE
7FFC00003FFE
7FFC00007FFC
7FFE0000FFFC
3FFF0001FFFC
3FFFC003FFF8
1FFFF00FFFF8
1FFFFFFFFFF0
0FFFFFFFFFE0
07FFFFFFFFE0
03FFFFFFFFC0
01FFFFFFFF80
00FFFFFFFF00
007FFFFFFE00
003FFFFFFC00
000FFFFFF000
0007FFFFC000
0000FFFF0000
00000FE00000
ENDCHAR
STARTCHAR 1ED5
ENCODING 7893
SWIDTH 540 0
DWIDTH 36 0
BBX 33 63 2 -1
BITMAP
000003F800
000007FC00
00000FFE00
00001FFE00
00001E1F00
00001E0F00
0000020F00
0000001F00
0000007F00
000001FE00
000001FC00
000001F800
000001E000
000FF1E000
000FF80000
001FF80000
001FFC0000
003FFE0000
003F7E0000
007E7F0000
007E3F0000
00FC1F8000
00F80F8000
01F007C000
01E007C000
0000000000
0000000000
0000000000
0001E00000
003FFE0000
00FFFF8000
01FFFFC000
07FFFFE000
0FFFFFF000
0FFFFFF800
1FFFFFFC00
3FFFFFFE00
3FFFFFFE00
7FFFFFFF00
7FF81FFF00
FFF00FFF00
FFE007FF80
FFE003FF80
FFE003FF80
FFC003FF80
FFC003FF80
FFC003FF80
FFE003FF80
FFE003FF80
FFF007FF80
FFF00FFF00
7FFC1FFF00
7FFFFFFF00
3FFFFFFE00
3FFFFFFE00
1FFFFFFC00
0FFFFFF800
0FFFFFF000
03FFFFE000
01FFFFC000
00FFFF0000
003FFC0000
0001800000
ENDCHAR
STARTCHAR 1ED6
ENCODING 7894
SWIDTH 765 0
DWIDTH 51 0
BBX 48 73 2 -1
BITMAP
00000000F000
00001F80F000
00003FFFE000
00007FFFE000
00007FFFC000
0000FFFFC000
0000F0FF8000
0000E0040000
0001E0000000
000000000000
000000000000
00001FF00000
00001FF80000
00003FF80000
00003FFC0000
00007FFC0000
00007EFE0000
0000FC7E0000
0000F83F0000
0001F81F0000
0001F00F8000
0003E00F8000
0003C007C000
000000000000
000000000000
00007FFE0000
0003FFFF8000
000FFFFFE000
001FFFFFF800
007FFFFFFC00
00FFFFFFFF00
01FFFFFFFF80
03FFFFFFFFC0
07FFFFFFFFC0
0FFFFFFFFFE0
0FFFFFFFFFF0
1FFFF81FFFF0
1FFFC003FFF8
3FFF8001FFFC
3FFE0000FFFC
7FFE00007FFC
7FFC00003FFE
7FF800003FFE
FFF800001FFE
FFF000001FFE
FFF000001FFE
FFF000000FFF
FFF000000FFF
FFF000000FFF
FFF000000FFF
FFF000000FFF
FFF000001FFF
FFF000001FFE
FFF800001FFE
7FF800003FFE
7FFC00003FFE
7FFC00007FFC
7FFE0000FFFC
3FFF0001FFFC
3FFFC003FFF8
1FFFF00FFFF8
1FFFFFFFFFF0
0FFFFFFFFFE0
07FFFFFFFFE0
03FFFFFFFFC0
01FFFFFFFF80
00FFFFFFFF00
007FFFFFFE00
003FFFFFFC00
000FFFFFF000
0007FFFFC000
0000FFFF0000
00000FE00000
ENDCHAR
STARTCHAR 1ED7
ENCODING 7895
SWIDTH 540 0
DWIDTH 36 0
BBX 33 61 2 -1
BITMAP
0000007800
0000007000
001FE0F000
003FFFF000
003FFFE000
007FFFE000
007FFFC000
00F03F8000
00F0000000
0000000000
0000000000
000FF00000
000FF80000
001FF80000
001FFC0000
003FFE0000
003F7E0000
007E7F0000
007E3F0000
00FC1F8000
00F80F8000
01F007C000
01E007C000
0000000000
0000000000
0000000000
0001E00000
003FFE0000
00FFFF8000
01FFFFC000
07FFFFE000
0FFFFFF000
0FFFFFF800
1FFFFFFC00
3FFFFFFE00
3FFFFFFE00
7FFFFFFF00
7FF81FFF00
FFF00FFF00
FFE007FF80
FFE003FF80
FFE003FF80
FFC003FF80
FFC003FF80
FFC003FF80
FFE003FF80
FFE003FF80
FFF007FF80
FFF00FFF00
7FFC1FFF00
7FFFFFFF00
3FFFFFFE00
3FFFFFFE00
1FFFFFFC00
0FFFFFF800
0FFFFFF000
03FFFFE000
01FFFFC000
00FFFF0000
003FFC0000
0001800000
ENDCHAR
STARTCHAR 1ED8
ENCODING 7896
SWIDTH 765 0
DWIDTH 51 0
BBX 48 79 2 -18
BITMAP
00001FF00000
00001FF80000
00003FF80000
00003FFC0000
00007FFC0000
00007EFE0000
0000FC7E0000
0000F83F0000
0001F81F0000
0001F00F8000
0003E00F8000
0003C007C000
000000000000
000000000000
00007FFE0000
0003FFFF8000
000FFFFFE000
001FFFFFF800
007FFFFFFC00
00FFFFFFFF00
01FFFFFFFF80
03FFFFFFFFC0
07FFFFFFFFC0
0FFFFFFFFFE0
0FFFFFFFFFF0
1FFFF81FFFF0
1FFFC003FFF8
3FFF8001FFFC
3FFE0000FFFC
7FFE00007FFC
7FFC00003FFE
7FF800003FFE
FFF800001FFE
FFF000001FFE
FFF000001FFE
FFF000000FFF
FFF000000FFF
FFF000000FFF
FFF000000FFF
FFF000000FFF
FFF000001FFF
FFF000001FFE
FFF800001FFE
7FF800003FFE
7FFC00003FFE
7FFC00007FFC
7FFE0000FFFC
3FFF0001FFFC
3FFFC003FFF8
1FFFF00FFFF8
1FFFFFFFFFF0
0FFFFFFFFFE0
07FFFFFFFFE0
03FFFFFFFFC0
01FFFFFFFF80
00FFFFFFFF00
007FFFFFFE00
003FFFFFFC00
000FFFFFF000
0007FFFFC000
0000FFFF0000
00000FE00000
000000000000
000000000000
000000000000
000001800000
00000FF00000
00001FF80000
00003FF80000
00007FFC0000
00007FFC0000
00007FFC0000
00007FFC0000
00007FFC0000
00003FFC0000
00003FF80000
00001FF80000
00000FE00000
000003000000
ENDCHAR
STARTCHAR 1ED9
ENCODING 7897
SWIDTH 540 0
DWIDTH 36 0
BBX 33 67 2 -18
BITMAP
000FF00000
000FF80000
001FF80000
001FFC0000
003FFE0000
003F7E0000
007E7F0000
007E3F0000
00FC1F8000
00F80F8000
01F007C000
01E007C000
0000000000
0000000000
0000000000
0001E00000
003FFE0000
00FFFF8000
01FFFFC000
07FFFFE000
0FFFFFF000
0FFFFFF800
1FFFFFFC00
3FFFFFFE00
3FFFFFFE00
7FFFFFFF00
7FF81FFF00
FFF00FFF00
FFE007FF80
FFE003FF80
FFE003FF80
FFC003FF80
FFC003FF80
FFC003FF80
FFE003FF80
FFE003FF80
FFF007FF80
FFF00FFF00
7FFC1FFF00
7FFFFFFF00
3FFFFFFE00
3FFFFFFE00
1FFFFFFC00
0FFFFFF800
0FFFFFF000
03FFFFE000
01FFFFC000
00FFFF0000
003FFC0000
0001800000
0000000000
0000000000
0000000000
0001800000
000FF00000
001FF80000
001FFC0000
003FFE0000
003FFE0000
003FFE0000
003FFE0000
003FFE0000
003FFE0000
001FFC0000
001FF80000
0007F00000
0000C00000
ENDCHAR
STARTCHAR 1EDA
ENCODING 7898
SWIDTH 765 0
DWIDTH 51 0
BBX 49 64 2 -1
BITMAP
0000007F800000
000000FF000000
000000FE000000
000001FC000000
000001FC000000
000003F8000000
000007F0000000
000007E0000000
00000FC0000000
00000F80000000
00001F80000000
00001F00000000
00000000000000
0000000000FF80
0000000001FF00
0000000001FF00
00007FFE01FE00
0003FFFF83FE00
000FFFFFE3FC00
001FFFFFFBFC00
007FFFFFFFF800
00FFFFFFFFF800
01FFFFFFFFF000
03FFFFFFFFF000
07FFFFFFFFE000
0FFFFFFFFFE000
0FFFFFFFFFF000
1FFFF81FFFF000
1FFFC003FFF800
3FFF8001FFFC00
3FFE0000FFFC00
7FFE00007FFC00
7FFC00003FFE00
7FF800003FFE00
FFF800001FFE00
FFF000001FFE00
FFF000001FFE00
FFF000000FFF00
FFF000000FFF00
FFF000000FFF00
FFF000000FFF00
FFF000000FFF00
FFF000001FFF00
FFF000001FFE00
FFF800001FFE00
7FF800003FFE00
7FFC00003FFE00
7FFC00007FFC00
7FFE0000FFFC00
3FFF0001FFFC00
3FFFC003FFF800
1FFFF00FFFF800
1FFFFFFFFFF000
0FFFFFFFFFE000
07FFFFFFFFE000
03FFFFFFFFC000
01FFFFFFFF8000
00FFFFFFFF0000
007FFFFFFE0000
003FFFFFFC0000
000FFFFFF00000
0007FFFFC00000
0000FFFF000000
00000FE0000000
ENDCHAR
STARTCHAR 1EDB
ENCODING 7899
SWIDTH 540 0
DWIDTH 36 0
BBX 36 50 2 -1
BITMAP
00007FC000
00007F8000
0000FF0000
0000FE0000
0001FC0000
0001FC0000
0003F80000
0003F00000
0007E00000
0007C00000
000F800000
000F000FF0
0000001FF0
0000001FF0
0000001FE0
0001E03FE0
003FFE3FC0
00FFFFFFC0
01FFFFFF80
07FFFFFF80
0FFFFFFF00
0FFFFFFF00
1FFFFFFE00
3FFFFFFE00
3FFFFFFE00
7FFFFFFF00
7FF81FFF00
FFF00FFF00
FFE007FF80
FFE003FF80
FFE003FF80
FFC003FF80
FFC003FF80
FFC003FF80
FFE003FF80
FFE003FF80
FFF007FF80
FFF00FFF00
7FFC1FFF00
7FFFFFFF00
3FFFFFFE00
3FFFFFFE00
1FFFFFFC00
0FFFFFF800
0FFFFFF000
03FFFFE000
01FFFFC000
00FFFF0000
003FFC0000
0001800000
ENDCHAR
STARTCHAR 1EDC
ENCODING 7900
SWIDTH 765 0
DWIDTH 51 0
BBX 49 64 2 -1
BITMAP
0001FE00000000
0000FE00000000
0000FF00000000
00007F80000000
00003F80000000
00001FC0000000
00000FC0000000
000007E0000000
000007E0000000
000003F0000000
000001F0000000
000000F8000000
00000000000000
0000000000FF80
0000000001FF00
0000000001FF00
00007FFE01FE00
0003FFFF83FE00
000FFFFFE3FC00
001FFFFFFBFC00
007FFFFFFFF800
00FFFFFFFFF800
01FFFFFFFFF000
03FFFFFFFFF000
07FFFFFFFFE000
0FFFFFFFFFE000
0FFFFFFFFFF000
1FFFF81FFFF000
1FFFC003FFF800
3FFF8001FFFC00
3FFE0000FFFC00
7FFE00007FFC00
7FFC00003FFE00
7FF800003FFE00
FFF800001FFE00
FFF000001FFE00
FFF000001FFE00
FFF000000FFF00
FFF000000FFF00
FFF000000FFF00
FFF000000FFF00
FFF000000FFF00
FFF000001FFF00
FFF000001FFE00
FFF800001FFE00
7FF800003FFE00
7FFC00003FFE00
7FFC00007FFC00
7FFE0000FFFC00
3FFF0001FFFC00
3FFFC003FFF800
1FFFF00FFFF800
1FFFFFFFFFF000
0FFFFFFFFFE000
07FFFFFFFFE000
03FFFFFFFFC000
01FFFFFFFF8000
00FFFFFFFF0000
007FFFFFFE0000
003FFFFFFC0000
000FFFFFF00000
0007FFFFC00000
0000FFFF000000
00000FE0000000
ENDCHAR
STARTCHAR 1EDD
ENCODING 7901
SWIDTH 540 0
DWIDTH 36 0
BBX 36 50 2 -1
BITMAP
01FE000000
00FF000000
007F000000
003F800000
003FC00000
001FC00000
000FE00000
0007E00000
0003F00000
0001F00000
0001F80000
0000F80FF0
0000001FF0
0000001FF0
0000001FE0
0001E03FE0
003FFE3FC0
00FFFFFFC0
01FFFFFF80
07FFFFFF80
0FFFFFFF00
0FFFFFFF00
1FFFFFFE00
3FFFFFFE00
3FFFFFFE00
7FFFFFFF00
7FF81FFF00
FFF00FFF00
FFE007FF80
FFE003FF80
FFE003FF80
FFC003FF80
FFC003FF80
FFC003FF80
FFE003FF80
FFE003FF80
FFF007FF80
FFF00FFF00
7FFC1FFF00
7FFFFFFF00
3FFFFFFE00
3FFFFFFE00
1FFFFFFC00
0FFFFFF800
0FFFFFF000
03FFFFE000
01FFFFC000
00FFFF0000
003FFC0000
0001800000
ENDCHAR
STARTCHAR 1EDE
ENCODING 7902
SWIDTH 765 0
DWIDTH 51 0
BBX 49 65 2 -1
BITMAP
000003E0000000
00000FF0000000
00001FF8000000
00003FFC000000
00003E3E000000
00003C3E000000
00001C1E000000
0000003E000000
0000007E000000
000003FC000000
000003F8000000
000003F0000000
00000380000000
00000380000000
0000038000FF80
0000000001FF00
0000000001FF00
00007FFE01FE00
0003FFFF83FE00
000FFFFFE3FC00
001FFFFFFBFC00
007FFFFFFFF800
00FFFFFFFFF800
01FFFFFFFFF000
03FFFFFFFFF000
07FFFFFFFFE000
0FFFFFFFFFE000
0FFFFFFFFFF000
1FFFF81FFFF000
1FFFC003FFF800
3FFF8001FFFC00
3FFE0000FFFC00
7FFE00007FFC00
7FFC00003FFE00
7FF800003FFE00
FFF800001FFE00
FFF000001FFE00
FFF000001FFE00
FFF000000FFF00
FFF000000FFF00
FFF000000FFF00
FFF000000FFF00
FFF000000FFF00
FFF000001FFF00
FFF000001FFE00
FFF800001FFE00
7FF800003FFE00
7FFC00003FFE00
7FFC00007FFC00
7FFE0000FFFC00
3FFF0001FFFC00
3FFFC003FFF800
1FFFF00FFFF800
1FFFFFFFFFF000
0FFFFFFFFFE000
07FFFFFFFFE000
03FFFFFFFFC000
01FFFFFFFF8000
00FFFFFFFF0000
007FFFFFFE0000
003FFFFFFC0000
000FFFFFF00000
0007FFFFC00000
0000FFFF000000
00000FE0000000
ENDCHAR
STARTCHAR 1EDF
ENCODING 7903
SWIDTH 540 0
DWIDTH 36 0
BBX 36 52 2 -1
BITMAP
0003F00000
0007F80000
000FFC0000
001FFE0000
001E1E0000
003E1F0000
00041F0000
00001F0000
00007E0000
0001FE0000
0001FC0000
0001F00000
0001C00000
0001C00FF0
0001C01FF0
0000001FF0
0000001FE0
0001E03FE0
003FFE3FC0
00FFFFFFC0
01FFFFFF80
07FFFFFF80
0FFFFFFF00
0FFFFFFF00
1FFFFFFE00
3FFFFFFE00
3FFFFFFE00
7FFFFFFF00
7FF81FFF00
FFF00FFF00
FFE007FF80
FFE003FF80
FFE003FF80
FFC003FF80
FFC003FF80
FFC003FF80
FFE003FF80
FFE003FF80
FFF007FF80
FFF00FFF00
7FFC1FFF00
7FFFFFFF00
3FFFFFFE00
3FFFFFFE00
1FFFFFFC00
0FFFFFF800
0FFFFFF000
03FFFFE000
01FFFFC000
00FFFF0000
003FFC0000
0001800000
ENDCHAR
STARTCHAR 1EE0
ENCODING 7904
SWIDTH 765 0
DWIDTH 51 0
BBX 49 62 2 -1
BITMAP
00000003C00000
00007F03C00000
0000FFFF800000
0001FFFF800000
0001FFFF000000
0003FFFF000000
0003C1FC000000
00038000000000
00000000000000
00000000000000
00000000000000
0000000000FF80
0000000001FF00
0000000001FF00
00007FFE01FE00
0003FFFF83FE00
000FFFFFE3FC00
001FFFFFFBFC00
007FFFFFFFF800
00FFFFFFFFF800
01FFFFFFFFF000
03FFFFFFFFF000
07FFFFFFFFE000
0FFFFFFFFFE000
0FFFFFFFFFF000
1FFFF81FFFF000
1FFFC003FFF800
3FFF8001FFFC00
3FFE0000FFFC00
7FFE00007FFC00
7FFC00003FFE00
7FF800003FFE00
FFF800001FFE00
FFF000001FFE00
FFF000001FFE00
FFF000000FFF00
FFF000000FFF00
FFF000000FFF00
FFF000000FFF00
FFF000000FFF00
FFF000001FFF00
FFF000001FFE00
FFF800001FFE00
7FF800003FFE00
7FFC00003FFE00
7FFC00007FFC00
7FFE0000FFFC00
3FFF0001FFFC00
3FFFC003FFF800
1FFFF00FFFF800
1FFFFFFFFFF000
0FFFFFFFFFE000
07FFFFFFFFE000
03FFFFFFFFC000
01FFFFFFFF8000
00FFFFFFFF0000
007FFFFFFE0000
003FFFFFFC0000
000FFFFFF00000
0007FFFFC00000
0000FFFF000000
00000FE0000000
ENDCHAR
STARTCHAR 1EE1
ENCODING 7905
SWIDTH 540 0
DWIDTH 36 0
BBX 36 48 2 -1
BITMAP
000001E000
003E03C000
007FF7C000
00FFFFC000
01FFFF8000
01FFFF0000
01E3FE0000
03C0380000
03C0000000
0000000FF0
0000001FF0
0000001FF0
0000001FE0
0001E03FE0
003FFE3FC0
00FFFFFFC0
01FFFFFF80
07FFFFFF80
0FFFFFFF00
0FFFFFFF00
1FFFFFFE00
3FFFFFFE00
3FFFFFFE00
7FFFFFFF00
7FF81FFF00
FFF00FFF00
FFE007FF80
FFE003FF80
FFE003FF80
FFC003FF80
FFC003FF80
FFC003FF80
FFE003FF80
FFE003FF80
FFF007FF80
FFF00FFF00
7FFC1FFF00
7FFFFFFF00
3FFFFFFE00
3FFFFFFE00
1FFFFFFC00
0FFFFFF800
0FFFFFF000
03FFFFE000
01FFFFC000
00FFFF0000
003FFC0000
0001800000
ENDCHAR
STARTCHAR 1EE2
ENCODING 7906
SWIDTH 765 0
DWIDTH 51 0
BBX 49 68 2 -18
BITMAP
0000000000FF80
0000000001FF00
0000000001FF00
00007FFE01FE00
0003FFFF83FE00
000FFFFFE3FC00
001FFFFFFBFC00
007FFFFFFFF800
00FFFFFFFFF800
01FFFFFFFFF000
03FFFFFFFFF000
07FFFFFFFFE000
0FFFFFFFFFE000
0FFFFFFFFFF000
1FFFF81FFFF000
1FFFC003FFF800
3FFF8001FFFC00
3FFE0000FFFC00
7FFE00007FFC00
7FFC00003FFE00
7FF800003FFE00
FFF800001FFE00
FFF000001FFE00
FFF000001FFE00
FFF000000FFF00
FFF000000FFF00
FFF000000FFF00
FFF000000FFF00
FFF000000FFF00
FFF000001FFF00
FFF000001FFE00
FFF800001FFE00
7FF800003FFE00
7FFC00003FFE00
7FFC00007FFC00
7FFE0000FFFC00
3FFF0001FFFC00
3FFFC003FFF800
1FFFF00FFFF800
1FFFFFFFFFF000
0FFFFFFFFFE000
07FFFFFFFFE000
03FFFFFFFFC000
01FFFFFFFF8000
00FFFFFFFF0000
007FFFFFFE0000
003FFFFFFC0000
000FFFFFF00000
0007FFFFC00000
0000FFFF000000
00000FE0000000
00000000000000
00000000000000
00000000000000
00000180000000
00000FF0000000
00001FF8000000
00003FF8000000
00007FFC000000
00007FFC000000
00007FFC000000
00007FFC000000
00007FFC000000
00003FFC000000
00003FF8000000
00001FF8000000
00000FE0000000
00000300000000
ENDCHAR
STARTCHAR 1EE3
ENCODING 7907
SWIDTH 540 0
DWIDTH 36 0
BBX 36 56 2 -18
BITMAP
0000000FF0
0000001FF0
0000001FF0
0000001FE0
0001E03FE0
003FFE3FC0
00FFFFFFC0
01FFFFFF80
07FFFFFF80
0FFFFFFF00
0FFFFFFF00
1FFFFFFE00
3FFFFFFE00
3FFFFFFE00
7FFFFFFF00
7FF81FFF00
FFF00FFF00
FFE007FF80
FFE003FF80
FFE003FF80
FFC003FF80
FFC003FF80
FFC003FF80
FFE003FF80
FFE003FF80
FFF007FF80
FFF00FFF00
7FFC1FFF00
7FFFFFFF00
3FFFFFFE00
3FFFFFFE00
1FFFFFFC00
0FFFFFF800
0FFFFFF000
03FFFFE000
01FFFFC000
00FFFF0000
003FFC0000
0001800000
0000000000
0000000000
0000000000
0001800000
000FF00000
001FF80000
001FFC0000
003FFE0000
003FFE0000
003FFE0000
003FFE0000
003FFE0000
003FFE0000
001FFC0000
001FF80000
0007F00000
0000C00000
ENDCHAR
STARTCHAR 1EE4
ENCODING 7908
SWIDTH 615 0
DWIDTH 41 0
BBX 36 65 3 -18
BITMAP
FFF000FFF0
FFF000FFF0
FFF000FFF0
FFF000FFF0
FFF000FFF0
FFF000FFF0
FFF000FFF0
FFF000FFF0
FFF000FFF0
FFF000FFF0
FFF000FFF0
FFF000FFF0
FFF000FFF0
FFF000FFF0
FFF000FFF0
FFF000FFF0
FFF000FFF0
FFF000FFF0
FFF000FFF0
FFF000FFF0
FFF000FFF0
FFF000FFF0
FFF000FFF0
FFF000FFF0
FFF000FFF0
FFF000FFF0
FFF000FFF0
FFF000FFF0
FFF000FFF0
FFF000FFE0
FFF000FFE0
FFF000FFE0
FFF001FFE0
7FF801FFE0
7FF803FFE0
7FFC07FFE0
7FFFFFFFC0
3FFFFFFFC0
3FFFFFFF80
1FFFFFFF80
1FFFFFFF00
0FFFFFFE00
07FFFFFE00
03FFFFFC00
01FFFFF800
007FFFE000
001FFF8000
0003F80000
0000000000
0000000000
0000000000
0000700000
0003FC0000
0007FE0000
000FFF0000
000FFF0000
001FFF0000
001FFF0000
001FFF0000
001FFF0000
000FFF0000
000FFF0000
0007FE0000
0003FC0000
0000400000
ENDCHAR
STARTCHAR 1EE5
ENCODING 7909
SWIDTH 525 0
DWIDTH 35 0
BBX 30 51 3 -18
BITMAP
FFC00FFC
FFC00FFC
FFC00FFC
FFC00FFC
FFC00FFC
FFC00FFC
FFC00FFC
FFC00FFC
FFC00FFC
FFC00FFC
FFC00FFC
FFC00FFC
FFC00FFC
FFC00FFC
FFC00FFC
FFC00FFC
FFC00FFC
FFC00FFC
FFC00FFC
FFC01FFC
FFC01FFC
FFE01FF8
FFF03FF8
7FFDFFF8
7FFFFFF8
7FFFFFF0
3FFFFFF0
1FFFFFE0
1FFFFFC0
0FFFFF80
07FFFF00
01FFFE00
007FF800
00070000
00000000
00000000
00000000
00030000
001FE000
003FF000
007FF800
007FF800
00FFF800
00FFF800
00FFFC00
00FFF800
007FF800
007FF000
003FF000
001FE000
00020000
ENDCHAR
STARTCHAR 1EE6
ENCODING 7910
SWIDTH 615 0
DWIDTH 41 0
BBX 36 65 3 -1
BITMAP
0000F80000
0003FC0000
0007FE0000
000FFF0000
000F8F8000
000F0F8000
0007078000
00000F8000
00001F8000
0000FF0000
0000FE0000
0000FC0000
0000E00000
0000E00000
0000E00000
0000000000
0000000000
FFF000FFF0
FFF000FFF0
FFF000FFF0
FFF000FFF0
FFF000FFF0
FFF000FFF0
FFF000FFF0
FFF000FFF0
FFF000FFF0
FFF000FFF0
FFF000FFF0
FFF000FFF0
FFF000FFF0
FFF000FFF0
FFF000FFF0
FFF000FFF0
FFF000FFF0
FFF000FFF0
FFF000FFF0
FFF000FFF0
FFF000FFF0
FFF000FFF0
FFF000FFF0
FFF000FFF0
FFF000FFF0
FFF000FFF0
FFF000FFF0
FFF000FFF0
FFF000FFF0
FFF000FFE0
FFF000FFE0
FFF000FFE0
FFF001FFE0
7FF801FFE0
7FF803FFE0
7FFC07FFE0
7FFFFFFFC0
3FFFFFFFC0
3FFFFFFF80
1FFFFFFF80
1FFFFFFF00
0FFFFFFE00
07FFFFFE00
03FFFFFC00
01FFFFF800
007FFFE000
001FFF8000
0003F80000
ENDCHAR
STARTCHAR 1EE7
ENCODING 7911
SWIDTH 525 0
DWIDTH 35 0
BBX 30 52 3 -1
BITMAP
000FC000
001FE000
003FF000
007FF800
00787800
00787C00
00107C00
00007C00
0000F800
0007F800
0007F000
0007E000
00070000
00070000
00070000
00000000
00000000
00000000
FFC00FFC
FFC00FFC
FFC00FFC
FFC00FFC
FFC00FFC
FFC00FFC
FFC00FFC
FFC00FFC
FFC00FFC
FFC00FFC
FFC00FFC
FFC00FFC
FFC00FFC
FFC00FFC
FFC00FFC
FFC00FFC
FFC00FFC
FFC00FFC
FFC00FFC
FFC01FFC
FFC01FFC
FFE01FF8
FFF03FF8
7FFDFFF8
7FFFFFF8
7FFFFFF0
3FFFFFF0
1FFFFFE0
1FFFFFC0
0FFFFF80
07FFFF00
01FFFE00
007FF800
00070000
ENDCHAR
STARTCHAR 1EE8
ENCODING 7912
SWIDTH 660 0
DWIDTH 44 0
BBX 44 64 3 -1
BITMAP
00001FE00000
00003FC00000
00003F800000
00007F000000
00007F000000
0000FE000000
0000FC000000
0001F8000000
0003F0000000
0003E0000000
0007E0000000
0007C0000000
000000000000
000000001FF0
000000001FF0
000000001FE0
FFF000FFFFE0
FFF000FFFFC0
FFF000FFFFC0
FFF000FFFF80
FFF000FFFF80
FFF000FFFF00
FFF000FFFF00
FFF000FFFE00
FFF000FFFE00
FFF000FFFC00
FFF000FFFC00
FFF000FFF000
FFF000FFF000
FFF000FFF000
FFF000FFF000
FFF000FFF000
FFF000FFF000
FFF000FFF000
FFF000FFF000
FFF000FFF000
FFF000FFF000
FFF000FFF000
FFF000FFF000
FFF000FFF000
FFF000FFF000
FFF000FFF000
FFF000FFF000
FFF000FFF000
FFF000FFF000
FFF000FFE000
FFF000FFE000
FFF000FFE000
FFF001FFE000
7FF801FFE000
7FF803FFE000
7FFC07FFE000
7FFFFFFFC000
3FFFFFFFC000
3FFFFFFF8000
1FFFFFFF8000
1FFFFFFF0000
0FFFFFFE0000
07FFFFFE0000
03FFFFFC0000
01FFFFF80000
007FFFE00000
001FFF800000
0003F8000000
ENDCHAR
STARTCHAR 1EE9
ENCODING 7913
SWIDTH 570 0
DWIDTH 38 0
BBX 38 50 3 -1
BITMAP
0000FF0000
0001FE0000
0001FE0000
0003FC0000
0003F80000
0007F00000
0007E00000
000FC00000
000F800000
001F800000
001F000000
003E0007FC
00000007FC
0000000FF8
0000000FF8
0000000FF0
FFC00FFFF0
FFC00FFFE0
FFC00FFFE0
FFC00FFFC0
FFC00FFFC0
FFC00FFF80
FFC00FFF80
FFC00FFF00
FFC00FFF00
FFC00FFC00
FFC00FFC00
FFC00FFC00
FFC00FFC00
FFC00FFC00
FFC00FFC00
FFC00FFC00
FFC00FFC00
FFC00FFC00
FFC00FFC00
FFC01FFC00
FFC01FFC00
FFE01FF800
FFF03FF800
7FFDFFF800
7FFFFFF800
7FFFFFF000
3FFFFFF000
1FFFFFE000
1FFFFFC000
0FFFFF8000
07FFFF0000
01FFFE0000
007FF80000
0007000000
ENDCHAR
STARTCHAR 1EEA
ENCODING 7914
SWIDTH 660 0
DWIDTH 44 0
BBX 44 64 3 -1
BITMAP
007F80000000
003FC0000000
003FC0000000
001FE0000000
000FE0000000
0007F0000000
0003F0000000
0001F8000000
0000F8000000
0000FC000000
00007C000000
00003E000000
000000000000
000000001FF0
000000001FF0
000000001FE0
FFF000FFFFE0
FFF000FFFFC0
FFF000FFFFC0
FFF000FFFF80
FFF000FFFF80
FFF000FFFF00
FFF000FFFF00
FFF000FFFE00
FFF000FFFE00
FFF000FFFC00
FFF000FFFC00
FFF000FFF000
FFF000FFF000
FFF000FFF000
FFF000FFF000
FFF000FFF000
FFF000FFF000
FFF000FFF000
FFF000FFF000
FFF000FFF000
FFF000FFF000
FFF000FFF000
FFF000FFF000
FFF000FFF000
FFF000FFF000
FFF000FFF000
FFF000FFF000
FFF000FFF000
FFF000FFF000
FFF000FFE000
FFF000FFE000
FFF000FFE000
FFF001FFE000
7FF801FFE000
7FF803FFE000
7FFC07FFE000
7FFFFFFFC000
3FFFFFFFC000
3FFFFFFF8000
1FFFFFFF8000
1FFFFFFF0000
0FFFFFFE0000
07FFFFFE0000
03FFFFFC0000
01FFFFF80000
007FFFE00000
001FFF800000
0003F8000000
ENDCHAR
STARTCHAR 1EEB
ENCODING 7915
SWIDTH 570 0
DWIDTH 38 0
BBX 38 50 3 -1
BITMAP
03FC000000
03FC000000
01FE000000
00FE000000
007F000000
003F800000
001F800000
001FC00000
000FC00000
0007E00000
0003E00000
0001F007FC
00000007FC
0000000FF8
0000000FF8
0000000FF0
FFC00FFFF0
FFC00FFFE0
FFC00FFFE0
FFC00FFFC0
FFC00FFFC0
FFC00FFF80
FFC00FFF80
FFC00FFF00
FFC00FFF00
FFC00FFC00
FFC00FFC00
FFC00FFC00
FFC00FFC00
FFC00FFC00
FFC00FFC00
FFC00FFC00
FFC00FFC00
FFC00FFC00
FFC00FFC00
FFC01FFC00
FFC01FFC00
FFE01FF800
FFF03FF800
7FFDFFF800
7FFFFFF800
7FFFFFF000
3FFFFFF000
1FFFFFE000
1FFFFFC000
0FFFFF8000
07FFFF0000
01FFFE0000
007FF80000
0007000000
ENDCHAR
STARTCHAR 1EEC
ENCODING 7916
SWIDTH 660 0
DWIDTH 44 0
BBX 44 65 3 -1
BITMAP
0000F8000000
0003FC000000
0007FE000000
000FFF000000
000F8F800000
000F0F800000
000707800000
00000F800000
00001F800000
0000FF000000
0000FE000000
0000FC000000
0000E0000000
0000E0000000
0000E0001FF0
000000001FF0
000000001FE0
FFF000FFFFE0
FFF000FFFFC0
FFF000FFFFC0
FFF000FFFF80
FFF000FFFF80
FFF000FFFF00
FFF000FFFF00
FFF000FFFE00
FFF000FFFE00
FFF000FFFC00
FFF000FFFC00
FFF000FFF000
FFF000FFF000
FFF000FFF000
FFF000FFF000
FFF000FFF000
FFF000FFF000
FFF000FFF000
FFF000FFF000
FFF000FFF000
FFF000FFF000
FFF000FFF000
FFF000FFF000
FFF000FFF000
FFF000FFF000
FFF000FFF000
FFF000FFF000
FFF000FFF000
FFF000FFF000
FFF000FFE000
FFF000FFE000
FFF000FFE000
FFF001FFE000
7FF801FFE000
7FF803FFE000
7FFC07FFE000
7FFFFFFFC000
3FFFFFFFC000
3FFFFFFF8000
1FFFFFFF8000
1FFFFFFF0000
0FFFFFFE0000
07FFFFFE0000
03FFFFFC0000
01FFFFF80000
007FFFE00000
001FFF800000
0003F8000000
ENDCHAR
STARTCHAR 1EED
ENCODING 7917
SWIDTH 570 0
DWIDTH 38 0
BBX 38 52 3 -1
BITMAP
000FC00000
001FE00000
003FF00000
007FF80000
0078780000
00787C0000
00107C0000
00007C0000
0000F80000
0007F80000
0007F00000
0007E00000
0007000000
00070007FC
00070007FC
0000000FF8
0000000FF8
0000000FF0
FFC00FFFF0
FFC00FFFE0
FFC00FFFE0
FFC00FFFC0
FFC00FFFC0
FFC00FFF80
FFC00FFF80
FFC00FFF00
FFC00FFF00
FFC00FFC00
FFC00FFC00
FFC00FFC00
FFC00FFC00
FFC00FFC00
FFC00FFC00
FFC00FFC00
FFC00FFC00
FFC00FFC00
FFC00FFC00
FFC01FFC00
FFC01FFC00
FFE01FF800
FFF03FF800
7FFDFFF800
7FFFFFF800
7FFFFFF000
3FFFFFF000
1FFFFFE000
1FFFFFC000
0FFFFF8000
07FFFF0000
01FFFE0000
007FF80000
0007000000
ENDCHAR
STARTCHAR 1EEE
ENCODING 7918
SWIDTH 660 0
DWIDTH 44 0
BBX 44 62 3 -1
BITMAP
000000F00000
001FC1E00000
003FFFE00000
007FFFE00000
007FFFC00000
00FFFF800000
00F07F000000
01E000000000
000000000000
000000000000
000000000000
000000001FF0
000000001FF0
000000001FE0
FFF000FFFFE0
FFF000FFFFC0
FFF000FFFFC0
FFF000FFFF80
FFF000FFFF80
FFF000FFFF00
FFF000FFFF00
FFF000FFFE00
FFF000FFFE00
FFF000FFFC00
FFF000FFFC00
FFF000FFF000
FFF000FFF000
FFF000FFF000
FFF000FFF000
FFF000FFF000
FFF000FFF000
FFF000FFF000
FFF000FFF000
FFF000FFF000
FFF000FFF000
FFF000FFF000
FFF000FFF000
FFF000FFF000
FFF000FFF000
FFF000FFF000
FFF000FFF000
FFF000FFF000
FFF000FFF000
FFF000FFE000
FFF000FFE000
FFF000FFE000
FFF001FFE000
7FF801FFE000
7FF803FFE000
7FFC07FFE000
7FFFFFFFC000
3FFFFFFFC000
3FFFFFFF8000
1FFFFFFF8000
1FFFFFFF0000
0FFFFFFE0000
07FFFFFE0000
03FFFFFC0000
01FFFFF80000
007FFFE00000
001FFF800000
0003F8000000
ENDCHAR
STARTCHAR 1EEF
ENCODING 7919
SWIDTH 570 0
DWIDTH 38 0
BBX 38 48 3 -1
BITMAP
0000038000
007C078000
00FFCF8000
01FFFF0000
03FFFF0000
03FFFE0000
07C7FC0000
0780700000
0700000000
00000007FC
00000007FC
0000000FF8
0000000FF8
0000000FF0
FFC00FFFF0
FFC00FFFE0
FFC00FFFE0
FFC00FFFC0
FFC00FFFC0
FFC00FFF80
FFC00FFF80
FFC00FFF00
FFC00FFF00
FFC00FFC00
FFC00FFC00
FFC00FFC00
FFC00FFC00
FFC00FFC00
FFC00FFC00
FFC00FFC00
FFC00FFC00
FFC00FFC00
FFC00FFC00
FFC01FFC00
FFC01FFC00
FFE01FF800
FFF03FF800
7FFDFFF800
7FFFFFF800
7FFFFFF000
3FFFFFF000
1FFFFFE000
1FFFFFC000
0FFFFF8000
07FFFF0000
01FFFE0000
007FF80000
0007000000
ENDCHAR
STARTCHAR 1EF0
ENCODING 7920
SWIDTH 660 0
DWIDTH 44 0
BBX 44 68 3 -18
BITMAP
000000001FF0
000000001FF0
000000001FE0
FFF000FFFFE0
FFF000FFFFC0
FFF000FFFFC0
FFF000FFFF80
FFF000FFFF80
FFF000FFFF00
FFF000FFFF00
FFF000FFFE00
FFF000FFFE00
FFF000FFFC00
FFF000FFFC00
FFF000FFF000
FFF000FFF000
FFF000FFF000
FFF000FFF000
FFF000FFF000
FFF000FFF000
FFF000FFF000
FFF000FFF000
FFF000FFF000
FFF000FFF000
FFF000FFF000
FFF000FFF000
FFF000FFF000
FFF000FFF000
FFF000FFF000
FFF000FFF000
FFF000FFF000
FFF000FFF000
FFF000FFE000
FFF000FFE000
FFF000FFE000
FFF001FFE000
7FF801FFE000
7FF803FFE000
7FFC07FFE000
7FFFFFFFC000
3FFFFFFFC000
3FFFFFFF8000
1FFFFFFF8000
1FFFFFFF0000
0FFFFFFE0000
07FFFFFE0000
03FFFFFC0000
01FFFFF80000
007FFFE00000
001FFF800000
0003F8000000
000000000000
000000000000
000000000000
000070000000
0003FC000000
0007FE000000
000FFF000000
000FFF000000
001FFF000000
001FFF000000
001FFF000000
001FFF000000
000FFF000000
000FFF000000
0007FE000000
0003FC000000
000040000000
ENDCHAR
STARTCHAR 1EF1
ENCODING 7921
SWIDTH 570 0
DWIDTH 38 0
BBX 38 56 3 -18
BITMAP
00000007FC
00000007FC
0000000FF8
0000000FF8
0000000FF0
FFC00FFFF0
FFC00FFFE0
FFC00FFFE0
FFC00FFFC0
FFC00FFFC0
FFC00FFF80
FFC00FFF80
FFC00FFF00
FFC00FFF00
FFC00FFC00
FFC00FFC00
FFC00FFC00
FFC00FFC00
FFC00FFC00
FFC00FFC00
FFC00FFC00
FFC00FFC00
FFC00FFC00
FFC00FFC00
FFC01FFC00
FFC01FFC00
FFE01FF800
FFF03FF800
7FFDFFF800
7FFFFFF800
7FFFFFF000
3FFFFFF000
1FFFFFE000
1FFFFFC000
0FFFFF8000
07FFFF0000
01FFFE0000
007FF80000
0007000000
0000000000
0000000000
0000000000
0003000000
001FE00000
003FF00000
007FF80000
007FF80000
00FFF80000
00FFF80000
00FFFC0000
00FFF80000
007FF80000
007FF00000
003FF00000
001FE00000
0002000000
ENDCHAR
STARTCHAR 1EF2
ENCODING 7922
SWIDTH 555 0
DWIDTH 37 0
BBX 32 63 3 0
BITMAP
03FE0000
01FE0000
00FF0000
007F0000
003F8000
001F8000
000FC000
000FC000
0007E000
0003E000
0001F000
0000F800
00000000
00000000
00000000
00000000
FFE007FF
FFE007FF
FFE007FF
FFE007FF
FFE007FF
FFE007FF
FFE007FF
FFE007FF
FFE007FF
FFE007FF
FFE007FF
FFE007FF
FFE007FF
FFE007FF
FFE007FF
FFE007FF
FFE007FF
FFF00FFF
FFF00FFF
FFF81FFF
7FFC3FFE
7FFFFFFE
7FFFFFFE
3FFFFFFC
3FFFFFFC
1FFFFFF8
0FFFFFF0
07FFFFE0
03FFFFC0
00FFFF00
007FFE00
003FFC00
003FFC00
003FFC00
003FFC00
003FFC00
003FFC00
003FFC00
003FFC00
003FFC00
003FFC00
003FFC00
003FFC00
003FFC00
003FFC00
003FFC00
003FFC00
ENDCHAR
STARTCHAR 1EF3
ENCODING 7923
SWIDTH 525 0
DWIDTH 35 0
BBX 30 63 3 -14
BITMAP
03FC0000
03FC0000
01FE0000
00FE0000
007F0000
003F8000
001F8000
001FC000
000FC000
0007E000
0003E000
0001F000
00000000
00000000
00000000
00000000
FFC00FFC
FFC00FFC
FFC00FFC
FFC00FFC
FFC00FFC
FFC00FFC
FFC00FFC
FFC00FFC
FFC00FFC
FFC00FFC
FFC00FFC
FFC00FFC
FFC00FFC
FFC00FFC
FFC00FFC
FFC00FFC
FFC00FFC
FFC00FFC
FFC00FFC
FFC00FFC
FFC01FFC
FFE01FFC
FFE03FF8
FFF87FF8
7FFFFFF8
7FFFFFF0
3FFFFFF0
3FFFFFE0
1FFFFFC0
0FFFFFC0
07FFFF00
01FFFE00
00FFF800
003FF000
003FF000
003FF000
003FF000
003FF000
003FF000
003FF000
003FF000
003FF000
003FF000
003FF000
003FF000
003FF000
003FF000
ENDCHAR
STARTCHAR 1EF4
ENCODING 7924
SWIDTH 555 0
DWIDTH 37 0
BBX 32 65 3 -18
BITMAP
FFE007FF
FFE007FF
FFE007FF
FFE007FF
FFE007FF
FFE007FF
FFE007FF
FFE007FF
FFE007FF
FFE007FF
FFE007FF
FFE007FF
FFE007FF
FFE007FF
FFE007FF
FFE007FF
FFE007FF
FFF00FFF
FFF00FFF
FFF81FFF
7FFC3FFE
7FFFFFFE
7FFFFFFE
3FFFFFFC
3FFFFFFC
1FFFFFF8
0FFFFFF0
07FFFFE0
03FFFFC0
00FFFF00
007FFE00
003FFC00
003FFC00
003FFC00
003FFC00
003FFC00
003FFC00
003FFC00
003FFC00
003FFC00
003FFC00
003FFC00
003FFC00
003FFC00
003FFC00
003FFC00
003FFC00
00000000
00000000
00000000
00000000
00038000
000FF000
001FF800
003FFC00
003FFC00
003FFE00
007FFE00
003FFE00
003FFE00
003FFC00
003FFC00
001FF800
000FF000
00008000
ENDCHAR
STARTCHAR 1EF5
ENCODING 7925
SWIDTH 525 0
DWIDTH 35 0
BBX 32 50 3 -18
BITMAP
FFC00FFC
FFC00FFC
FFC00FFC
FFC00FFC
FFC00FFC
FFC00FFC
FFC00FFC
FFC00FFC
FFC00FFC
FFC00FFC
FFC00FFC
FFC00FFC
FFC00FFC
FFC00FFC
FFC00FFC
FFC00FFC
FFC00FFC
FFC00FFC
FFC00FFC
FFC00FFC
FFC01FFC
FFE01FFC
FFE03FF8
FFF87FF8
7FFFFFF8
7FFFFFF0
3FFFFFF0
3FFFFFE0
1FFFFFC0
0FFFFFC0
07FFFF00
01FFFE00
00FFF800
003FF000
003FF000
003FF000
003FF000
003FF0C0
003FF7F8
003FFFFC
003FFFFE
003FFFFE
003FFFFF
003FFFFF
003FFFFF
003FFFFF
003FFFFE
00001FFE
00000FFC
000007F8
ENDCHAR
STARTCHAR 1EF6
ENCODING 7926
SWIDTH 555 0
DWIDTH 37 0
BBX 32 64 3 0
BITMAP
0007E000
000FF000
001FF800
003FFC00
003C3C00
003C3E00
00183E00
00003E00
00007C00
0003FC00
0003F800
0003F000
00038000
00038000
00038000
00000000
00000000
FFE007FF
FFE007FF
FFE007FF
FFE007FF
FFE007FF
FFE007FF
FFE007FF
FFE007FF
FFE007FF
FFE007FF
FFE007FF
FFE007FF
FFE007FF
FFE007FF
FFE007FF
FFE007FF
FFE007FF
FFF00FFF
FFF00FFF
FFF81FFF
7FFC3FFE
7FFFFFFE
7FFFFFFE
3FFFFFFC
3FFFFFFC
1FFFFFF8
0FFFFFF0
07FFFFE0
03FFFFC0
00FFFF00
007FFE00
003FFC00
003FFC00
003FFC00
003FFC00
003FFC00
003FFC00
003FFC00
003FFC00
003FFC00
003FFC00
003FFC00
003FFC00
003FFC00
003FFC00
003FFC00
003FFC00
ENDCHAR
STARTCHAR 1EF7
ENCODING 7927
SWIDTH 525 0
DWIDTH 35 0
BBX 30 65 3 -14
BITMAP
000FC000
001FE000
003FF000
007FF800
00787800
00787C00
00107C00
00007C00
0000F800
0007F800
0007F000
0007E000
00070000
00070000
00070000
00000000
00000000
00000000
FFC00FFC
FFC00FFC
FFC00FFC
FFC00FFC
FFC00FFC
FFC00FFC
FFC00FFC
FFC00FFC
FFC00FFC
FFC00FFC
FFC00FFC
FFC00FFC
FFC00FFC
FFC00FFC
FFC00FFC
FFC00FFC
FFC00FFC
FFC00FFC
FFC00FFC
FFC00FFC
FFC01FFC
FFE01FFC
FFE03FF8
FFF87FF8
7FFFFFF8
7FFFFFF0
3FFFFFF0
3FFFFFE0
1FFFFFC0
0FFFFFC0
07FFFF00
01FFFE00
00FFF800
003FF000
003FF000
003FF000
003FF000
003FF000
003FF000
003FF000
003FF000
003FF000
003FF000
003FF000
003FF000
003FF000
003FF000
ENDCHAR
STARTCHAR 1EF8
ENCODING 7928
SWIDTH 555 0
DWIDTH 37 0
BBX 32 61 3 0
BITMAP
000003C0
003F03C0
00FFFF80
01FFFF80
01FFFF00
03FFFF00
03C1FE00
03C00000
00000000
00000000
00000000
00000000
00000000
00000000
FFE007FF
FFE007FF
FFE007FF
FFE007FF
FFE007FF
FFE007FF
FFE007FF
FFE007FF
FFE007FF
FFE007FF
FFE007FF
FFE007FF
FFE007FF
FFE007FF
FFE007FF
FFE007FF
FFE007FF
FFF00FFF
FFF00FFF
FFF81FFF
7FFC3FFE
7FFFFFFE
7FFFFFFE
3FFFFFFC
3FFFFFFC
1FFFFFF8
0FFFFFF0
07FFFFE0
03FFFFC0
00FFFF00
007FFE00
003FFC00
003FFC00
003FFC00
003FFC00
003FFC00
003FFC00
003FFC00
003FFC00
003FFC00
003FFC00
003FFC00
003FFC00
003FFC00
003FFC00
003FFC00
003FFC00
ENDCHAR
STARTCHAR 1EF9
ENCODING 7929
SWIDTH 525 0
DWIDTH 35 0
BBX 30 61 3 -14
BITMAP
00000380
007C0780
00FFCF80
01FFFF00
03FFFF00
03FFFE00
07C7FC00
07807000
07000000
00000000
00000000
00000000
00000000
00000000
FFC00FFC
FFC00FFC
FFC00FFC
FFC00FFC
FFC00FFC
FFC00FFC
FFC00FFC
FFC00FFC
FFC00FFC
FFC00FFC
FFC00FFC
FFC00FFC
FFC00FFC
FFC00FFC
FFC00FFC
FFC00FFC
FFC00FFC
FFC00FFC
FFC00FFC
FFC00FFC
FFC01FFC
FFE01FFC
FFE03FF8
FFF87FF8
7FFFFFF8
7FFFFFF0
3FFFFFF0
3FFFFFE0
1FFFFFC0
0FFFFFC0
07FFFF00
01FFFE00
00FFF800
003FF000
003FF000
003FF000
003FF000
003FF000
003FF000
003FF000
003FF000
003FF000
003FF000
003FF000
003FF000
003FF000
003FF000
ENDCHAR
STARTCHAR 2010
ENCODING 8208
SWIDTH 330 0
DWIDTH 22 0
BBX 18 9 2 12
BITMAP
FFFFC0
FFFFC0
FFFFC0
FFFFC0
FFFFC0
FFFFC0
FFFFC0
FFFFC0
FFFFC0
ENDCHAR
STARTCHAR 2013
ENCODING 8211
SWIDTH 495 0
DWIDTH 33 0
BBX 33 7 0 13
BITMAP
FFFFFFFF80
FFFFFFFF80
FFFFFFFF80
FFFFFFFF80
FFFFFFFF80
FFFFFFFF80
FFFFFFFF80
ENDCHAR
STARTCHAR 2014
ENCODING 8212
SWIDTH 990 0
DWIDTH 66 0
BBX 67 7 0 13
BITMAP
FFFFFFFFFFFFFFFFE0
FFFFFFFFFFFFFFFFE0
FFFFFFFFFFFFFFFFE0
FFFFFFFFFFFFFFFFE0
FFFFFFFFFFFFFFFFE0
FFFFFFFFFFFFFFFFE0
FFFFFFFFFFFFFFFFE0
ENDCHAR
STARTCHAR 2018
ENCODING 8216
SWIDTH 270 0
DWIDTH 18 0
BBX 11 16 4 31
BITMAP
0FE0
0FE0
1FE0
1FE0
1FC0
1FC0
3FC0
3FC0
3FC0
3FC0
7FC0
7FC0
7F80
7F80
FF80
FF80
ENDCHAR
STARTCHAR 2019
ENCODING 8217
SWIDTH 270 0
DWIDTH 18 0
BBX 11 16 5 31
BITMAP
3FE0
3FC0
7FC0
7FC0
7FC0
7F80
7F80
7F80
7F80
FF00
FF00
FF00
FF00
FE00
FE00
FE00
ENDCHAR
STARTCHAR 201A
ENCODING 8218
SWIDTH 270 0
DWIDTH 18 0
BBX 11 16 4 -8
BITMAP
3FE0
3FE0
3FC0
3FC0
7FC0
7FC0
7F80
7F80
7F80
7F80
7F00
7F00
FF00
FF00
FE00
FE00
ENDCHAR
STARTCHAR 201C
ENCODING 8220
SWIDTH 480 0
DWIDTH 32 0
BBX 25 16 4 31
BITMAP
0FE07F80
0FE07F00
1FE07F00
1FE07F00
1FC07F00
1FC0FF00
3FC0FF00
3FC0FF00
3FC0FF00
3FC1FE00
7FC1FE00
7FC1FE00
7F81FE00
7F83FE00
FF83FE00
FF83FE00
ENDCHAR
STARTCHAR 201D
ENCODING 8221
SWIDTH 480 0
DWIDTH 32 0
BBX 24 16 5 31
BITMAP
3FE1FF
3FC1FF
7FC1FF
7FC1FE
7FC1FE
7F81FE
7F83FE
7F83FC
7F83FC
FF03FC
FF03FC
FF03F8
FF03F8
FE07F8
FE07F8
FE07F0
ENDCHAR
STARTCHAR 201E
ENCODING 8222
SWIDTH 480 0
DWIDTH 32 0
BBX 24 16 4 -8
BITMAP
3FE0FF
3FE1FF
3FC1FF
3FC1FF
7FC1FE
7FC1FE
7F81FE
7F81FE
7F81FC
7F83FC
7F03FC
7F03FC
FF03F8
FF03F8
FE03F8
FE03F8
ENDCHAR
STARTCHAR 2020
ENCODING 8224
SWIDTH 495 0
DWIDTH 33 0
BBX 29 50 2 -3
BITMAP
007FF000
007FF000
007FF000
007FF000
007FF000
007FF000
007FF000
007FF000
007FF000
007FF000
007FF000
FFFFFFF8
FFFFFFF8
FFFFFFF8
FFFFFFF8
FFFFFFF8
FFFFFFF8
FFFFFFF8
FFFFFFF8
007FF000
007FF000
007FF000
007FF000
007FF000
007FF000
007FF000
007FF000
007FF000
007FF000
007FF000
007FF000
007FF000
007FF000
007FF000
007FF000
007FF000
007FF000
007FF000
007FF000
007FF000
007FF000
007FF000
007FF000
007FF000
007FF000
007FF000
007FF000
007FF000
007FF000
007FF000
ENDCHAR
STARTCHAR 2021
ENCODING 8225
SWIDTH 495 0
DWIDTH 33 0
BBX 29 50 2 -3
BITMAP
003FF000
003FF000
003FF000
003FF000
003FF000
003FF000
003FF000
003FF000
003FF000
003FF000
003FF000
FFFFFFF8
FFFFFFF8
FFFFFFF8
FFFFFFF8
FFFFFFF8
FFFFFFF8
FFFFFFF8
FFFFFFF8
003FF000
003FF000
003FF000
003FF000
003FF000
003FF000
003FF000
003FF000
003FF000
FFFFFFF8
FFFFFFF8
FFFFFFF8
FFFFFFF8
FFFFFFF8
FFFFFFF8
FFFFFFF8
FFFFFFF8
FFFFFFF8
003FF000
003FF000
003FF000
003FF000
003FF000
003FF000
003FF000
003FF000
003FF000
003FF000
003FF000
003FF000
003FF000
ENDCHAR
STARTCHAR 2022
ENCODING 8226
SWIDTH 585 0
DWIDTH 39 0
BBX 19 19 10 15
BITMAP
07FC00
0FFE00
1FFF80
3FFF80
7FFFC0
7FFFE0
FFFFE0
FFFFE0
FFFFE0
FFFFE0
FFFFE0
FFFFE0
7FFFE0
7FFFC0
3FFFC0
3FFF80
1FFF00
07FE00
01F000
ENDCHAR
STARTCHAR 2026
ENCODING 8230
SWIDTH 990 0
DWIDTH 66 0
BBX 58 13 4 -1
BITMAP
0FE0003F8000FE00
3FF0007FC001FF00
3FF800FFE003FF80
7FF801FFE007FFC0
7FFC01FFF007FFC0
FFFC01FFF007FFC0
FFFC01FFF007FFC0
7FFC01FFF007FFC0
7FF801FFF007FFC0
7FF801FFE003FF80
3FF000FFC003FF80
1FE0007F8001FF00
0780001E00003C00
ENDCHAR
STARTCHAR 2030
ENCODING 8240
SWIDTH 1260 0
DWIDTH 84 0
BBX 80 47 2 0
BITMAP
003C000003F800000000
01FFC00007F000000000
07FFE00007F000000000
0FFFF0000FE000000000
1FFFF8000FE000000000
3FFFFC001FC000000000
3FFFFE003F8000000000
7FFFFE003F8000000000
7FC1FF007F0000000000
7F80FF00FE0000000000
FF007F00FE0000000000
FF007F01FC0000000000
FF007F01FC0000000000
FF007F03F80000000000
FF007F07F00000000000
7F80FF07F00000000000
7FC1FF0FE00000000000
7FFFFE1FC00000000000
3FFFFE1FC00000000000
1FFFFC3F800000000000
1FFFF83F800000000000
0FFFF07F000000000000
03FFE0FE000000000000
00FF80FE03FC00007F00
000001FC0FFF0003FFC0
000003F81FFF8007FFF0
000003F87FFFE00FFFF8
000007F07FFFE01FFFFC
000007F0FFFFF03FFFFE
00000FE1FFFFF83FFFFE
00001FC1FF0FF87FE3FF
00001FC3FE07FC7F80FF
00003F83FC03FC7F00FF
00007F03F801FCFF007F
00007F03F801FCFF007F
0000FE03F801FCFF007F
0000FE03FC01FCFF007F
0001FC03FC03FC7F00FF
0003F803FE07FC7F80FF
0003F801FF9FF87FE3FF
0007F001FFFFF83FFFFE
000FF000FFFFF03FFFFE
000FE0007FFFE01FFFFC
001FC0007FFFE00FFFF8
001FC0001FFF8007FFF0
003F80000FFF0003FFC0
007F000003FC00007F00
ENDCHAR
STARTCHAR 2039
ENCODING 8249
SWIDTH 330 0
DWIDTH 22 0
BBX 15 21 4 6
BITMAP
00FE
01FC
03FC
07F8
07F0
0FE0
1FE0
3FC0
7F80
7F00
FE00
7F00
7F80
3FC0
1FE0
0FE0
07F0
07F8
03FC
01FC
00FE
ENDCHAR
STARTCHAR 203A
ENCODING 8250
SWIDTH 330 0
DWIDTH 22 0
BBX 15 21 4 6
BITMAP
FE00
FF00
7F80
3F80
1FC0
0FE0
0FF0
07F8
03F8
01FC
01FE
01FC
03F8
07F8
0FF0
0FE0
1FC0
3F80
7F80
FF00
FE00
ENDCHAR
STARTCHAR 2044
ENCODING 8260
SWIDTH 165 0
DWIDTH 11 0
BBX 33 47 -11 0
BITMAP
0000001F80
0000003F80
0000007F00
0000007E00
000000FE00
000000FC00
000001FC00
000001F800
000003F800
000007F000
000007E000
00000FE000
00000FC000
00001FC000
00001F8000
00003F8000
00007F0000
00007E0000
0000FE0000
0000FC0000
0001FC0000
0001F80000
0003F00000
0007F00000
0007E00000
000FE00000
000FC00000
001FC00000
003F800000
003F000000
007F000000
007E000000
00FE000000
00FC000000
01FC000000
03F8000000
03F0000000
07F0000000
07E0000000
0FE0000000
0FC0000000
1FC0000000
3F80000000
3F00000000
7F00000000
7E00000000
FE00000000
ENDCHAR
ENDFONT
